<svg width="25" height="25" viewBox="0 0 25 25" fill="none" xmlns="http://www.w3.org/2000/svg">
<g clip-path="url(#clip0_3_1234)">
<g clip-path="url(#clip1_3_1234)">
<g clip-path="url(#clip2_3_1234)">
<path d="M2.33353 19.3541C1.5083 19.3541 0.659988 20.016 0.659988 21.1726C0.659988 22.2314 1.40583 22.9791 2.33353 22.9791C3.09968 22.9791 3.44122 22.4649 3.44122 22.4649V22.6892C3.44122 22.7944 3.54091 22.9126 3.66461 22.9126H4.21845V19.4326H3.44122V19.8757C3.44122 19.8757 3.09691 19.3541 2.33353 19.3541ZM2.47199 20.0658C3.15137 20.0658 3.50768 20.6631 3.50768 21.1735C3.50768 21.7403 3.08491 22.2794 2.47384 22.2794C1.96245 22.2794 1.45107 21.8658 1.45107 21.1652C1.45107 20.5329 1.89137 20.0658 2.47199 20.0658ZM5.29937 22.9126C5.26968 22.9135 5.24011 22.9083 5.21249 22.8973C5.18487 22.8864 5.15978 22.8699 5.13877 22.8489C5.11776 22.8279 5.10127 22.8028 5.09032 22.7752C5.07936 22.7476 5.07417 22.718 5.07507 22.6883V19.4335H5.8523V19.8637C6.02861 19.5988 6.37291 19.3532 6.90184 19.3532C7.76491 19.3532 8.22461 20.0418 8.22461 20.6852V22.9126H7.68461C7.62176 22.9124 7.56156 22.8873 7.51713 22.8428C7.47269 22.7984 7.44762 22.7382 7.44737 22.6754V20.8569C7.44737 20.4997 7.22861 20.0668 6.72276 20.0668C6.17814 20.0668 5.8523 20.5818 5.8523 21.0674V22.9135H5.29845L5.29937 22.9126ZM10.4917 19.3541C9.66645 19.3541 8.81814 20.016 8.81814 21.1726C8.81814 22.2314 9.56399 22.9791 10.4917 22.9791C11.2578 22.9791 11.5994 22.4649 11.5994 22.4649V22.6883C11.5994 22.7944 11.6991 22.9126 11.8228 22.9126H12.3766V17.6944H11.5994V19.8757C11.5994 19.8757 11.2551 19.3541 10.4917 19.3541ZM10.6301 20.0658C11.3095 20.0658 11.6658 20.6631 11.6658 21.1735C11.6658 21.7403 11.2431 22.2794 10.632 22.2794C10.1215 22.2794 9.60922 21.8658 9.60922 21.1652C9.60922 20.5329 10.0495 20.0658 10.6301 20.0658ZM13.4575 22.9126C13.4278 22.9135 13.3983 22.9083 13.3707 22.8973C13.343 22.8864 13.3179 22.8699 13.2969 22.8489C13.2759 22.8279 13.2594 22.8028 13.2485 22.7752C13.2375 22.7476 13.2323 22.718 13.2332 22.6883V19.4335H14.0105V20.0132C14.0815 19.8247 14.2102 19.6633 14.3783 19.5521C14.5463 19.4409 14.7451 19.3855 14.9465 19.3938C15.0895 19.3938 15.2234 19.4206 15.2234 19.4206V20.2237C15.2234 20.2237 15.0572 20.1591 14.8542 20.1591C14.3095 20.1591 14.0105 20.6741 14.0105 21.1597V22.9135H13.4566L13.4575 22.9126ZM19.9412 22.9126C19.9117 22.9134 19.8823 22.9081 19.8549 22.8971C19.8274 22.8862 19.8025 22.8698 19.7816 22.8489C19.7607 22.828 19.7443 22.803 19.7333 22.7756C19.7223 22.7481 19.7171 22.7188 19.7178 22.6892V19.4335H20.4951V22.9135L19.9412 22.9126ZM22.7751 19.3541C21.9498 19.3541 21.1015 20.016 21.1015 21.1726C21.1015 22.2314 21.8474 22.9791 22.7751 22.9791C23.5412 22.9791 23.8828 22.4649 23.8828 22.4649V22.6883C23.8828 22.7944 23.9825 22.9126 24.1062 22.9126H24.66V17.6944H23.8828V19.8757C23.8828 19.8757 23.5385 19.3541 22.7751 19.3541ZM22.9135 20.0658C23.5929 20.0658 23.9492 20.6631 23.9492 21.1735C23.9492 21.7403 23.5265 22.2794 22.9154 22.2794C22.4049 22.2794 21.8926 21.8658 21.8926 21.1652C21.8926 20.5329 22.3329 20.0658 22.9135 20.0658ZM20.1 18.6831C20.2365 18.6831 20.3674 18.6288 20.4639 18.5323C20.5604 18.4358 20.6146 18.3049 20.6146 18.1684C20.6146 18.032 20.5604 17.9011 20.4639 17.8046C20.3674 17.708 20.2365 17.6538 20.1 17.6538C19.9635 17.6538 19.8326 17.708 19.7361 17.8046C19.6396 17.9011 19.5854 18.032 19.5854 18.1684C19.5854 18.3049 19.6396 18.4358 19.7361 18.5323C19.8326 18.6288 19.9635 18.6831 20.1 18.6831ZM17.2754 19.3532C16.4105 19.3532 15.4615 19.9984 15.4615 21.1671C15.4615 22.2314 16.2702 22.9791 17.2735 22.9791C18.5095 22.9791 19.1132 21.9849 19.1132 21.1735C19.1151 20.9325 19.0687 20.6935 18.9768 20.4706C18.8849 20.2478 18.7493 20.0456 18.578 19.8759C18.4068 19.7063 18.2033 19.5727 17.9796 19.4829C17.7558 19.3931 17.5164 19.349 17.2754 19.3532ZM17.2782 20.0797C17.8754 20.0797 18.3212 20.5606 18.3212 21.1689C18.3212 21.7874 17.8477 22.2646 17.28 22.2646C16.752 22.2646 16.2388 21.8354 16.2388 21.1791C16.2388 20.5126 16.7271 20.0797 17.2782 20.0797Z" fill="#D7DDE1"/>
<path d="M18.5177 6.08242L20.506 2.63565C20.5594 2.54315 20.574 2.43328 20.5467 2.33003C20.5194 2.22678 20.4523 2.13853 20.3601 2.08457C20.3146 2.05786 20.2642 2.04046 20.2119 2.03338C20.1595 2.02631 20.1063 2.02969 20.0553 2.04335C20.0043 2.057 19.9565 2.08065 19.9147 2.11292C19.8729 2.14519 19.8379 2.18544 19.8118 2.23134L17.7967 5.72241C16.1853 4.99258 14.4353 4.61916 12.6663 4.62765C10.8044 4.62765 9.07366 5.01995 7.53582 5.72241L5.51982 2.23134C5.49343 2.18547 5.45824 2.14527 5.41627 2.11305C5.3743 2.08083 5.32638 2.05722 5.27525 2.04358C5.22413 2.02994 5.17081 2.02654 5.11837 2.03357C5.06592 2.04061 5.01539 2.05794 4.96966 2.08457C4.92367 2.11095 4.88336 2.14618 4.85106 2.18822C4.81876 2.23027 4.7951 2.27829 4.78145 2.32953C4.76781 2.38076 4.76444 2.43419 4.77156 2.48673C4.77867 2.53927 4.79612 2.58988 4.82289 2.63565L6.81212 6.08242C3.38289 7.94149 1.05766 11.4141 0.67366 15.4794H24.658C24.274 11.4141 21.9506 7.94149 18.5177 6.08242ZM7.16012 12.1101C7.02449 12.1159 6.88908 12.0942 6.76206 12.0463C6.63503 11.9985 6.51901 11.9253 6.42098 11.8314C6.32295 11.7375 6.24494 11.6247 6.19165 11.4999C6.13835 11.375 6.11088 11.2407 6.11088 11.1049C6.11088 10.9691 6.13835 10.8348 6.19165 10.7099C6.24494 10.5851 6.32295 10.4723 6.42098 10.3784C6.51901 10.2844 6.63503 10.2113 6.76206 10.1634C6.88908 10.1155 7.02449 10.0938 7.16012 10.0996C7.42158 10.1076 7.66967 10.217 7.8518 10.4048C8.03394 10.5925 8.1358 10.8438 8.1358 11.1054C8.1358 11.3669 8.03394 11.6182 7.8518 11.806C7.66967 11.9937 7.42158 12.1021 7.16012 12.1101ZM18.1697 12.1101C18.034 12.1159 17.8986 12.0941 17.7716 12.0462C17.6446 11.9982 17.5286 11.9251 17.4307 11.8311C17.3327 11.7371 17.2547 11.6243 17.2015 11.4994C17.1482 11.3745 17.1208 11.2402 17.1209 11.1044C17.121 10.9687 17.1485 10.8343 17.2018 10.7095C17.2552 10.5846 17.3333 10.4719 17.4313 10.378C17.5294 10.2842 17.6454 10.2111 17.7725 10.1632C17.8995 10.1154 18.035 10.0938 18.1706 10.0996C18.432 10.1076 18.6801 10.217 18.8623 10.4048C19.0444 10.5925 19.1463 10.8438 19.1463 11.1054C19.1463 11.3669 19.0444 11.6182 18.8623 11.806C18.6801 11.9937 18.432 12.1031 18.1706 12.1111L18.1697 12.1101Z" fill="#32DE84"/>
</g>
</g>
</g>
<defs>
<clipPath id="clip0_3_1234">
<rect width="24" height="24" fill="white" transform="translate(0.659988 0.22998)"/>
</clipPath>
<clipPath id="clip1_3_1234">
<rect width="24" height="24" fill="white" transform="translate(0.659988 0.22998)"/>
</clipPath>
<clipPath id="clip2_3_1234">
<rect width="24" height="24" fill="white" transform="translate(0.659988 0.22998)"/>
</clipPath>
</defs>
</svg>
