<svg width="25" height="25" viewBox="0 0 25 25" fill="none" xmlns="http://www.w3.org/2000/svg">
<g clip-path="url(#clip0_3_1483)">
<g clip-path="url(#clip1_3_1483)">
<g clip-path="url(#clip2_3_1483)">
<path d="M11.3006 0.731116L0.811578 11.2115C0.247673 11.7749 0.247673 12.685 0.811578 13.2484L11.3006 23.7288C11.8645 24.2922 12.7753 24.2922 13.3392 23.7288L17.737 19.3345C18.2421 18.8299 18.2421 18.0118 17.737 17.5072C17.232 17.0026 16.4132 17.0026 15.9082 17.5072L12.5742 20.8384C12.4339 20.9787 12.2208 20.9787 12.0805 20.8384L3.70429 12.4691C3.56394 12.3289 3.56394 12.116 3.70429 11.9758L12.0805 3.60648C12.2208 3.46624 12.4339 3.46624 12.5742 3.60648L15.9082 6.93773C16.4132 7.44233 17.232 7.44233 17.737 6.93773C18.2421 6.43313 18.2421 5.61501 17.737 5.1104L13.3396 0.716622C12.7734 0.165374 11.8623 0.169836 11.3006 0.731116Z" fill="url(#paint0_linear_3_1483)"/>
<path d="M11.3006 0.731116L0.811578 11.2115C0.247673 11.7749 0.247673 12.685 0.811578 13.2484L11.3006 23.7288C11.8645 24.2922 12.7753 24.2922 13.3392 23.7288L17.737 19.3345C18.2421 18.8299 18.2421 18.0118 17.737 17.5072C17.232 17.0026 16.4132 17.0026 15.9082 17.5072L12.5742 20.8384C12.4339 20.9787 12.2208 20.9787 12.0805 20.8384L3.70429 12.4691C3.56394 12.3289 3.56394 12.116 3.70429 11.9758L12.0805 3.60648C12.43 3.30519 13.0002 2.69495 13.8375 2.55223C14.4599 2.44616 15.1402 2.67962 15.8786 3.25261C15.3849 2.75934 14.5386 1.91402 13.3396 0.716622C12.7734 0.165374 11.8623 0.169836 11.3006 0.731116Z" fill="url(#paint1_linear_3_1483)"/>
<path d="M18.7523 16.5326C19.2573 17.0372 20.0761 17.0372 20.5811 16.5326L23.8252 13.2911C24.3891 12.7277 24.3891 11.8176 23.8252 11.2543L20.5529 7.99618C20.0467 7.49218 19.2276 7.4929 18.7223 7.9978C18.2173 8.50241 18.2173 9.32053 18.7223 9.82513L20.9325 12.0335C21.0728 12.1737 21.0728 12.3866 20.9325 12.5268L18.7523 14.7052C18.2472 15.2098 18.2472 16.028 18.7523 16.5326Z" fill="url(#paint2_linear_3_1483)"/>
<path d="M12.3723 15.112C13.9364 15.112 15.2043 13.8451 15.2043 12.2823C15.2043 10.7195 13.9364 9.45264 12.3723 9.45264C10.8082 9.45264 9.54028 10.7195 9.54028 12.2823C9.54028 13.8451 10.8082 15.112 12.3723 15.112Z" fill="url(#paint3_linear_3_1483)"/>
</g>
</g>
</g>
<defs>
<linearGradient id="paint0_linear_3_1483" x1="1101.29" y1="0.3067" x2="2098.04" y2="609.011" gradientUnits="userSpaceOnUse">
<stop stop-color="#4285EB"/>
<stop offset="1" stop-color="#2EC7FF"/>
</linearGradient>
<linearGradient id="paint1_linear_3_1483" x1="1234.98" y1="0.306627" x2="742.674" y2="2544.68" gradientUnits="userSpaceOnUse">
<stop stop-color="#29CDFF"/>
<stop offset="0.378601" stop-color="#148EFF"/>
<stop offset="1" stop-color="#0A60FF"/>
</linearGradient>
<linearGradient id="paint2_linear_3_1483" x1="429.839" y1="-112.944" x2="-210.727" y2="888.85" gradientUnits="userSpaceOnUse">
<stop stop-color="#FA816E"/>
<stop offset="0.414726" stop-color="#F74A5C"/>
<stop offset="1" stop-color="#F51D2C"/>
</linearGradient>
<linearGradient id="paint3_linear_3_1483" x1="395.42" y1="-192.534" x2="182.285" y2="660.04" gradientUnits="userSpaceOnUse">
<stop stop-color="#FA8E7D"/>
<stop offset="0.512635" stop-color="#F74A5C"/>
<stop offset="1" stop-color="#F51D2C"/>
</linearGradient>
<clipPath id="clip0_3_1483">
<rect width="24" height="24" fill="white" transform="translate(0.309982 0.22998)"/>
</clipPath>
<clipPath id="clip1_3_1483">
<rect width="24" height="24" fill="white" transform="translate(0.309982 0.22998)"/>
</clipPath>
<clipPath id="clip2_3_1483">
<rect width="24" height="24" fill="white" transform="translate(0.309982 0.22998)"/>
</clipPath>
</defs>
</svg>
