<svg width="25" height="25" viewBox="0 0 25 25" fill="none" xmlns="http://www.w3.org/2000/svg">
<g clip-path="url(#clip0_3_1281)">
<g clip-path="url(#clip1_3_1281)">
<g clip-path="url(#clip2_3_1281)">
<path d="M7.98198 15.344L5.78598 16.292L7.81998 17.168L10.178 16.292L7.98198 15.344ZM4.68198 16.532L4.60398 20.804L7.81998 22.232V17.792L4.67598 16.532H4.68198ZM11.282 16.532L8.37798 17.642V21.83L11.288 20.642V16.532H11.282ZM14.768 3.22998L12.548 4.17798L14.6 5.05398L16.958 4.17798L14.756 3.22998H14.768ZM11.69 4.48998V8.76798L14.438 9.56598L14.528 5.67798L11.69 4.48998ZM17.834 4.72998L15.236 5.84598V10.046L17.834 8.85798V4.72998ZM4.35798 9.24798L2.16198 10.19L4.19598 11.066L6.55398 10.19L4.35798 9.24198V9.24798ZM1.05798 10.43L0.97998 14.708L4.19598 16.136V11.696L1.05198 10.436L1.05798 10.43ZM7.66398 10.43L4.75998 11.546V15.734L7.66398 14.546V10.436V10.43ZM11.444 9.07998L9.24198 10.034L11.282 10.91L13.64 10.034L11.444 9.07998ZM8.13798 10.274L8.05998 14.546L11.282 15.974V11.534L8.13798 10.274ZM14.75 10.274L11.84 11.39V15.578L14.75 14.39V10.274ZM21.674 3.22998L19.478 4.17798L21.512 5.05398L23.876 4.17798L21.668 3.22998H21.674ZM18.374 4.41798L18.296 8.68998L21.512 10.118V5.67798L18.368 4.41798H18.374ZM24.98 4.41798L22.076 5.53398V9.71598L24.98 8.52798V4.41798Z" fill="#F7A80D"/>
</g>
</g>
</g>
<defs>
<clipPath id="clip0_3_1281">
<rect width="24" height="24" fill="white" transform="translate(0.97998 0.22998)"/>
</clipPath>
<clipPath id="clip1_3_1281">
<rect width="24" height="24" fill="white" transform="translate(0.97998 0.22998)"/>
</clipPath>
<clipPath id="clip2_3_1281">
<rect width="24" height="24" fill="white" transform="translate(0.97998 0.22998)"/>
</clipPath>
</defs>
</svg>
