<svg width="25" height="25" viewBox="0 0 25 25" fill="none" xmlns="http://www.w3.org/2000/svg">
<g clip-path="url(#clip0_3_1381)">
<g clip-path="url(#clip1_3_1381)">
<g clip-path="url(#clip2_3_1381)">
<mask id="mask0_3_1381" style="mask-type:luminance" maskUnits="userSpaceOnUse" x="0" y="0" width="25" height="25">
<path d="M24.31 0.22998H0.309967V24.23H24.31V0.22998Z" fill="white"/>
</mask>
<g mask="url(#mask0_3_1381)">
<path d="M11.2425 24.2246C9.91217 24.2642 8.58621 24.0541 7.33327 23.6053C3.8985 22.3979 2.19357 19.8114 1.7025 16.3388C1.1828 12.6566 1.71265 9.10739 3.27173 5.72524C3.65573 4.89355 4.17911 4.14678 4.7588 3.43139C5.94034 1.97293 7.59265 1.61754 9.3188 1.42278C10.1099 1.33324 10.9047 1.2797 11.6958 1.19939C12.2441 1.14401 12.8238 1.33139 13.2004 0.608622C13.3914 0.244007 14.0496 0.104622 14.4954 0.359391C16.0536 1.24093 17.7585 1.83354 19.2013 2.95601C23.0708 5.96708 24.5404 9.89477 23.7364 14.6653C22.961 19.2733 20.0034 21.9963 15.7536 23.4945C14.3025 24.0086 12.7923 24.2606 11.2425 24.2246ZM2.99019 13.3406C3.00588 14.3708 3.06404 15.4009 3.26434 16.4173C3.65573 18.4166 4.47727 20.2434 6.31788 21.2145C8.49819 22.3646 10.9047 22.7717 13.3933 22.5465C15.3594 22.3693 17.129 21.7286 18.5893 20.3809C20.7834 18.3539 21.9511 15.8006 22.2816 12.8569C22.7154 9.00031 21.0696 5.74739 17.8111 3.97047C17.561 3.83478 17.297 3.54401 17.0081 3.69539C16.2022 4.11908 15.6022 3.64554 14.9496 3.32247C14.4511 3.07416 13.9545 2.78893 13.4219 2.64585C11.345 2.08185 9.41757 2.7197 7.49942 3.44339C6.0068 4.00647 4.99696 5.14924 4.38865 6.48585C3.40395 8.63364 2.92612 10.9788 2.99019 13.3406Z" fill="#8D8D8D"/>
<path d="M12.7098 18.2062C10.4519 18.1379 8.45528 17.4632 6.94882 15.6798C6.4559 15.0982 6.2399 14.4013 6.17713 13.6518C6.15867 13.4515 6.06451 13.1746 6.33036 13.1321C6.47713 13.109 6.65897 13.3047 6.75036 13.5198C7.08267 14.3118 7.53774 14.9422 8.34451 15.4102C9.77621 16.2419 11.2587 16.6702 12.9027 16.6416C14.7212 16.6093 16.2452 15.9346 17.4968 14.6275C17.6972 14.4189 17.8809 14.0939 18.2132 14.3192C18.5436 14.5426 18.2916 14.8509 18.1928 15.101C17.6205 16.553 16.4944 17.3921 15.047 17.8306C14.2901 18.0613 13.5202 18.2579 12.7098 18.2062ZM17.0741 10.2161C16.9541 10.7238 16.8433 11.3016 16.1381 11.2887C15.4061 11.2767 15.2667 10.7192 15.2492 10.1256C15.2279 9.45361 15.6599 9.14161 16.2378 9.15915C16.8193 9.17761 17.1452 9.55884 17.0741 10.2161ZM9.6839 10.1764C9.49836 10.4949 9.62113 11.1336 8.90205 11.1244C8.20697 11.1152 7.82667 10.7644 7.80174 10.0591C7.78051 9.45915 8.00482 8.93761 8.65928 9.02346C9.17159 9.09084 9.65159 9.43792 9.6839 10.1764Z" fill="#8D8D8D"/>
</g>
</g>
</g>
</g>
<defs>
<clipPath id="clip0_3_1381">
<rect width="24" height="24" fill="white" transform="translate(0.309967 0.22998)"/>
</clipPath>
<clipPath id="clip1_3_1381">
<rect width="24" height="24" fill="white" transform="translate(0.309967 0.22998)"/>
</clipPath>
<clipPath id="clip2_3_1381">
<rect width="24" height="24" fill="white" transform="translate(0.309967 0.22998)"/>
</clipPath>
</defs>
</svg>
