<svg width="25" height="25" viewBox="0 0 25 25" fill="none" xmlns="http://www.w3.org/2000/svg">
<g clip-path="url(#clip0_3_1205)">
<g clip-path="url(#clip1_3_1205)">
<g clip-path="url(#clip2_3_1205)">
<path d="M1.52295 1.54499C1.41156 1.54355 1.3012 1.56651 1.19963 1.61226C1.09806 1.65802 1.00774 1.72546 0.935004 1.80984C0.862272 1.89422 0.808897 1.99351 0.778625 2.10072C0.748353 2.20793 0.74192 2.32046 0.759776 2.43043L3.9996 22.0982C4.03995 22.3388 4.16383 22.5576 4.34946 22.716C4.53509 22.8745 4.77062 22.9624 5.01465 22.9644H20.5573C20.7402 22.9668 20.9179 22.9033 21.0579 22.7856C21.198 22.668 21.2911 22.5039 21.3204 22.3233L24.5603 2.43424C24.5781 2.32429 24.5717 2.21176 24.5414 2.10457C24.5111 1.99737 24.4577 1.89811 24.385 1.81375C24.3122 1.72938 24.2219 1.66196 24.1203 1.61623C24.0188 1.57049 23.9084 1.54754 23.797 1.54899L1.52295 1.54499ZM15.1652 15.7597H10.2044L8.86114 8.74202H16.3673L15.1652 15.7597Z" fill="#2684FF"/>
<path d="M23.5102 8.73193H16.3534L15.1523 15.744H10.1954L4.34256 22.6912C4.52807 22.8516 4.76458 22.9408 5.0098 22.9428H20.5439C20.7267 22.9452 20.9042 22.8818 21.0442 22.7642C21.1842 22.6466 21.2773 22.4827 21.3065 22.3023L23.5102 8.73193Z" fill="url(#paint0_linear_3_1205)"/>
</g>
</g>
</g>
<defs>
<linearGradient id="paint0_linear_3_1205" x1="5375.13" y1="462.01" x2="3172.8" y2="3260.52" gradientUnits="userSpaceOnUse">
<stop offset="0.18" stop-color="#0052CC"/>
<stop offset="1" stop-color="#2684FF"/>
</linearGradient>
<clipPath id="clip0_3_1205">
<rect width="24" height="24" fill="white" transform="translate(0.660004 0.22998)"/>
</clipPath>
<clipPath id="clip1_3_1205">
<rect width="24" height="24" fill="white" transform="translate(0.660004 0.22998)"/>
</clipPath>
<clipPath id="clip2_3_1205">
<rect width="24" height="21.6576" fill="white" transform="translate(0.660004 1.40137)"/>
</clipPath>
</defs>
</svg>
