<svg width="25" height="25" viewBox="0 0 25 25" fill="none" xmlns="http://www.w3.org/2000/svg">
<g clip-path="url(#clip0_3_1550)">
<g clip-path="url(#clip1_3_1550)">
<g clip-path="url(#clip2_3_1550)">
<mask id="mask0_3_1550" style="mask-type:luminance" maskUnits="userSpaceOnUse" x="0" y="0" width="25" height="25">
<path d="M24.66 0.22998H0.660004V24.23H24.66V0.22998Z" fill="white"/>
</mask>
<g mask="url(#mask0_3_1550)">
<path d="M12.658 0.22998C6.026 0.22998 0.660006 5.59698 0.660006 12.23C0.658955 13.8062 0.968626 15.3671 1.57131 16.8234C2.17399 18.2798 3.05786 19.6031 4.17238 20.7176C5.28689 21.8321 6.61018 22.716 8.06656 23.3187C9.52294 23.9214 11.0838 24.2311 12.66 24.23C19.293 24.23 24.66 18.863 24.66 12.23C24.659 5.59698 19.248 0.22998 12.658 0.22998ZM7.03 14.805C7.422 15.328 7.946 15.547 8.687 15.547C9.037 15.547 9.386 15.503 9.691 15.372C9.997 15.242 10.346 15.066 10.781 14.805L12.004 16.55C11.001 17.38 9.866 17.772 8.557 17.772C7.509 17.772 6.637 17.554 5.852 17.118C5.08993 16.6684 4.48137 15.9992 4.106 15.198C3.714 14.368 3.495 13.408 3.495 12.273C3.495 11.183 3.714 10.179 4.105 9.34998C4.47833 8.5241 5.0862 7.82617 5.853 7.34298C6.594 6.86298 7.51 6.64498 8.514 6.64498C9.213 6.64498 9.867 6.73198 10.391 6.94998C10.9789 7.17754 11.5244 7.50203 12.005 7.90998L10.783 9.56798C10.4728 9.33893 10.136 9.14822 9.78 8.99998C9.475 8.86998 9.082 8.82598 8.732 8.82598C7.249 8.82598 6.507 9.95998 6.507 12.272C6.464 13.452 6.682 14.28 7.031 14.804L7.03 14.805ZM19.03 17.51C18.594 18.863 17.939 19.867 17.022 20.608C16.106 21.351 14.884 21.743 13.357 21.874L13.052 19.824C14.055 19.692 14.797 19.474 15.277 19.124C15.451 18.994 15.801 18.601 15.801 18.601L12.179 6.99398H15.189L17.284 15.677L19.51 6.99398H22.433L19.03 17.51Z" fill="#1B5BF7"/>
</g>
</g>
</g>
</g>
<defs>
<clipPath id="clip0_3_1550">
<rect width="24" height="24" fill="white" transform="translate(0.660004 0.22998)"/>
</clipPath>
<clipPath id="clip1_3_1550">
<rect width="24" height="24" fill="white" transform="translate(0.660004 0.22998)"/>
</clipPath>
<clipPath id="clip2_3_1550">
<rect width="24" height="24" fill="white" transform="translate(0.660004 0.22998)"/>
</clipPath>
</defs>
</svg>
