<svg width="25" height="25" viewBox="0 0 25 25" fill="none" xmlns="http://www.w3.org/2000/svg">
<g clip-path="url(#clip0_3_1270)">
<g clip-path="url(#clip1_3_1270)">
<g clip-path="url(#clip2_3_1270)">
<mask id="mask0_3_1270" style="mask-type:luminance" maskUnits="userSpaceOnUse" x="0" y="0" width="25" height="25">
<path d="M24.31 0.22998H0.309967V24.23H24.31V0.22998Z" fill="white"/>
</mask>
<g mask="url(#mask0_3_1270)">
<path d="M12.31 24.2302V19.6223C13.7597 19.628 15.1785 19.2039 16.3872 18.4035C17.5959 17.6032 18.5402 16.4624 19.1008 15.1255C19.6614 13.7886 19.8131 12.3155 19.5367 10.8924C19.2603 9.46934 18.5682 8.16012 17.548 7.13023C16.8309 6.41798 15.9667 5.8712 15.016 5.52823C9.83197 3.66823 4.95397 7.44823 4.95397 12.3323H0.309967C0.309967 4.55023 7.89997 -1.52177 16.126 1.02823C19.726 2.13823 22.582 4.97623 23.704 8.54023C24.2962 10.3389 24.4526 12.2525 24.1603 14.1235C23.868 15.9944 23.1353 17.7691 22.0226 19.3013C20.9099 20.8336 19.449 22.0795 17.7604 22.9364C16.0717 23.7934 14.2036 24.2368 12.31 24.2302Z" fill="#0069FF"/>
<path d="M12.3158 19.6344H7.68381V15.0444H12.3158V19.6344ZM7.68381 23.1624H4.12581V19.6344H7.68381V23.1624ZM4.12581 19.6344H1.14981V16.6764H4.13181V19.6344H4.12581Z" fill="#0069FF"/>
</g>
</g>
</g>
</g>
<defs>
<clipPath id="clip0_3_1270">
<rect width="24" height="24" fill="white" transform="translate(0.309967 0.22998)"/>
</clipPath>
<clipPath id="clip1_3_1270">
<rect width="24" height="24" fill="white" transform="translate(0.309967 0.22998)"/>
</clipPath>
<clipPath id="clip2_3_1270">
<rect width="24" height="24" fill="white" transform="translate(0.309967 0.22998)"/>
</clipPath>
</defs>
</svg>
