<svg width="25" height="25" viewBox="0 0 25 25" fill="none" xmlns="http://www.w3.org/2000/svg">
<g clip-path="url(#clip0_3_1417)">
<g clip-path="url(#clip1_3_1417)">
<g clip-path="url(#clip2_3_1417)">
<path fill-rule="evenodd" clip-rule="evenodd" d="M14.1673 9.75488H16.286V11.9112H17.3548C17.8423 11.9112 18.3485 11.8174 18.8173 11.6674C19.0423 11.5924 19.3048 11.4799 19.5298 11.3487C19.2298 10.9549 19.0798 10.4674 19.0423 9.97988C18.986 9.32363 19.1173 8.46113 19.5673 7.95488L19.7923 7.69238L20.0548 7.89863C20.7298 8.44238 21.2735 9.17363 21.386 10.0361C22.1923 9.79238 23.1298 9.84863 23.8423 10.2612L24.1235 10.4299L23.9735 10.7299C23.3735 11.8924 22.1173 12.2674 20.8985 12.1924C19.061 16.7487 15.086 18.9049 10.2486 18.9049C7.75481 18.9049 5.46731 17.9674 4.15481 15.7549L4.13606 15.7174L3.94856 15.3237C3.49856 14.3487 3.36731 13.2799 3.46106 12.2112L3.49856 11.8924H5.29856V9.75488H7.41731V7.65488H11.636V5.53613H14.1673V9.75488Z" fill="#3A4D54"/>
<path d="M21.0296 10.561C21.1796 9.45469 20.3546 8.59219 19.8296 8.17969C19.2484 8.85469 19.1546 10.6547 20.0734 11.4047C19.5484 11.8547 18.4796 12.286 17.3546 12.286H3.81714C3.70464 13.4485 3.91089 14.5172 4.37964 15.436L4.52964 15.7172C4.62339 15.886 4.73589 16.036 4.84839 16.2047C5.41089 16.2422 5.91714 16.261 6.38589 16.2422C7.30464 16.2235 8.05464 16.111 8.63589 15.9235C8.72964 15.886 8.80464 15.9422 8.84214 16.0172C8.87964 16.111 8.82339 16.186 8.74839 16.2235C8.67339 16.2422 8.59839 16.2797 8.50464 16.2985C8.05464 16.4297 7.56714 16.5047 6.94839 16.5422H6.83589C6.59214 16.561 6.32964 16.561 6.04839 16.561C5.74839 16.561 5.46714 16.561 5.12964 16.5422C6.25464 17.8172 8.01714 18.5672 10.2296 18.5672C14.9171 18.5672 18.8921 16.486 20.6359 11.836C21.8921 11.9672 23.0921 11.6485 23.6359 10.5797C22.7921 10.0734 21.6671 10.2422 21.0296 10.561Z" fill="#00AADA"/>
<path d="M21.0298 10.561C21.1798 9.45469 20.3548 8.59219 19.8298 8.17969C19.2486 8.85469 19.1548 10.6547 20.0736 11.4047C19.5486 11.8547 18.4798 12.286 17.3548 12.286H4.60484C4.54859 14.0672 5.20484 15.4172 6.38609 16.2235C7.30484 16.2047 8.05484 16.0922 8.63609 15.9047C8.72984 15.8672 8.80484 15.9235 8.84234 15.9985C8.87984 16.0922 8.82359 16.1672 8.74859 16.2047C8.67359 16.2235 8.59859 16.261 8.50484 16.2797C8.05484 16.411 7.52984 16.5047 6.91109 16.5422L6.89234 16.5235C8.48609 17.3485 10.7923 17.3297 13.4548 16.3172C16.4173 15.1735 19.1923 12.9985 21.1236 10.5235C21.0861 10.5422 21.0486 10.5422 21.0298 10.561Z" fill="#28B8EB"/>
<path d="M3.83588 13.6924C3.91088 14.3112 4.09838 14.8924 4.37963 15.4362L4.52963 15.7174C4.62338 15.8862 4.73588 16.0362 4.84838 16.2049C5.41088 16.2424 5.91713 16.2612 6.38588 16.2424C7.30463 16.2237 8.05463 16.1112 8.63588 15.9237C8.72963 15.8862 8.80463 15.9424 8.84213 16.0174C8.87963 16.1112 8.82338 16.1862 8.74838 16.2237C8.67338 16.2424 8.59838 16.2799 8.50463 16.2987C8.05463 16.4299 7.52963 16.5237 6.91088 16.5612H6.83588C6.59213 16.5799 6.32963 16.5799 6.06713 16.5799C5.76713 16.5799 5.46713 16.5799 5.14838 16.5612C6.27338 17.8362 8.05463 18.5862 10.2671 18.5862C14.2796 18.5862 17.7671 17.0674 19.7921 13.7112H3.83588V13.6924Z" fill="#028BB8"/>
<path d="M4.73627 13.6924C4.98002 14.7799 5.54252 15.6424 6.38627 16.2237C7.30502 16.2049 8.05502 16.0924 8.63627 15.9049C8.73002 15.8674 8.80502 15.9237 8.84252 15.9987C8.88002 16.0924 8.82377 16.1674 8.74877 16.2049C8.67377 16.2237 8.59877 16.2612 8.50502 16.2799C8.05502 16.4112 7.53002 16.5049 6.89252 16.5424C8.48627 17.3674 10.7925 17.3487 13.4363 16.3362C15.03 15.7174 16.5862 14.7987 17.9737 13.6924H4.73627Z" fill="#019BC6"/>
<path fill-rule="evenodd" clip-rule="evenodd" d="M5.65521 10.1112H7.49271V11.9488H5.65521V10.1112ZM5.80521 10.2612H5.95521V11.78H5.80521V10.2612ZM6.06771 10.2612H6.21771V11.78H6.06771V10.2612ZM6.34896 10.2612H6.49896V11.78H6.34896V10.2612ZM6.63021 10.2612H6.78021V11.78H6.63021V10.2612ZM6.91146 10.2612H7.06146V11.78H6.91146V10.2612ZM7.19271 10.2612H7.34271V11.78H7.19271V10.2612ZM7.75521 8.01123H9.59271V9.84873H7.75521V8.01123ZM7.92396 8.16123H8.07396V9.67998H7.92396V8.16123ZM8.18646 8.16123H8.33646V9.67998H8.18646V8.16123ZM8.46771 8.16123H8.61771V9.67998H8.46771V8.16123ZM8.74896 8.16123H8.89896V9.67998H8.74896V8.16123ZM9.01146 8.16123H9.16146V9.67998H9.01146V8.16123ZM9.29271 8.16123H9.44271V9.67998H9.29271V8.16123Z" fill="#00ACD3"/>
<path fill-rule="evenodd" clip-rule="evenodd" d="M7.75482 10.1113H9.59233V11.9488H7.75482V10.1113ZM7.92358 10.2613H8.07358V11.7801H7.92358V10.2613ZM8.18608 10.2613H8.33608V11.7801H8.18608V10.2613ZM8.46733 10.2613H8.61733V11.7801H8.46733V10.2613ZM8.74858 10.2613H8.89858V11.7801H8.74858V10.2613ZM9.01108 10.2613H9.16108V11.7801H9.01108V10.2613ZM9.29233 10.2613H9.44233V11.7801H9.29233V10.2613Z" fill="#23C2EE"/>
<path fill-rule="evenodd" clip-rule="evenodd" d="M9.87396 10.1113H11.7114V11.9488H9.87396V10.1113ZM10.024 10.2613H10.174V11.7801H10.024V10.2613ZM10.3052 10.2613H10.4552V11.7801H10.3052V10.2613ZM10.5864 10.2613H10.7364V11.7801H10.5864V10.2613ZM10.8489 10.2613H10.9989V11.7801H10.8489V10.2613ZM11.1302 10.2613H11.2802V11.7801H11.1302V10.2613ZM11.4114 10.2613H11.5614V11.7801H11.4114V10.2613Z" fill="#00ACD3"/>
<path fill-rule="evenodd" clip-rule="evenodd" d="M9.87396 8.01123H11.7114V9.84873H9.87396V8.01123ZM10.024 8.16123H10.174V9.67998H10.024V8.16123ZM10.3052 8.16123H10.4552V9.67998H10.3052V8.16123ZM10.5864 8.16123H10.7364V9.67998H10.5864V8.16123ZM10.8489 8.16123H10.9989V9.67998H10.8489V8.16123ZM11.1302 8.16123H11.2802V9.67998H11.1302V8.16123ZM11.4114 8.16123H11.5614V9.67998H11.4114V8.16123ZM11.9927 10.1112H13.8302V11.9488H11.9927V10.1112ZM12.1427 10.2612H12.2927V11.78H12.1427V10.2612ZM12.4239 10.2612H12.5739V11.78H12.4239V10.2612ZM12.6864 10.2612H12.8364V11.78H12.6864V10.2612ZM12.9677 10.2612H13.1177V11.78H12.9677V10.2612ZM13.2489 10.2612H13.3989V11.78H13.2489V10.2612ZM13.5302 10.2612H13.6802V11.78H13.5302V10.2612Z" fill="#23C2EE"/>
<path fill-rule="evenodd" clip-rule="evenodd" d="M11.9921 8.01123H13.8296V9.84873H11.9921V8.01123ZM12.1421 8.16123H12.2921V9.67998H12.1421V8.16123ZM12.4234 8.16123H12.5734V9.67998H12.4234V8.16123ZM12.6859 8.16123H12.8359V9.67998H12.6859V8.16123ZM12.9671 8.16123H13.1171V9.67998H12.9671V8.16123ZM13.2484 8.16123H13.3984V9.67998H13.2484V8.16123ZM13.5296 8.16123H13.6796V9.67998H13.5296V8.16123Z" fill="#00ACD3"/>
<path fill-rule="evenodd" clip-rule="evenodd" d="M11.9921 5.89258H13.8296V7.73008H11.9921V5.89258ZM12.1421 6.04258H12.2921V7.56133H12.1421V6.04258ZM12.4234 6.04258H12.5734V7.56133H12.4234V6.04258ZM12.6859 6.04258H12.8359V7.56133H12.6859V6.04258ZM12.9671 6.04258H13.1171V7.56133H12.9671V6.04258ZM13.2484 6.04258H13.3984V7.56133H13.2484V6.04258ZM13.5296 6.04258H13.6796V7.56133H13.5296V6.04258Z" fill="#23C2EE"/>
<path fill-rule="evenodd" clip-rule="evenodd" d="M14.1112 10.1113H15.9488V11.9488H14.1112V10.1113ZM14.2613 10.2613H14.4112V11.7801H14.2613V10.2613ZM14.5237 10.2613H14.6738V11.7801H14.5237V10.2613ZM14.805 10.2613H14.955V11.7801H14.805V10.2613ZM15.0862 10.2613H15.2362V11.7801H15.0862V10.2613ZM15.3675 10.2613H15.5175V11.7801H15.3675V10.2613ZM15.6487 10.2613H15.7988V11.7801H15.6487V10.2613Z" fill="#00ACD3"/>
<path fill-rule="evenodd" clip-rule="evenodd" d="M9.47983 14.9111C9.76108 14.9111 9.98608 15.1361 9.98608 15.4173C9.98608 15.6986 9.76108 15.9236 9.47983 15.9236C9.19858 15.9236 8.97357 15.6986 8.97357 15.4173C8.97357 15.1361 9.19858 14.9111 9.47983 14.9111Z" fill="#D4EEF1"/>
<path fill-rule="evenodd" clip-rule="evenodd" d="M9.47983 15.0611C9.51732 15.0611 9.57358 15.0611 9.61108 15.0798C9.57358 15.0986 9.53607 15.1548 9.53607 15.2111C9.53607 15.2861 9.61108 15.3611 9.68608 15.3611C9.74232 15.3611 9.79857 15.3236 9.81732 15.2861C9.83607 15.3236 9.83607 15.3798 9.83607 15.4173C9.83607 15.6236 9.66733 15.7736 9.47983 15.7736C9.27357 15.7736 9.12358 15.6048 9.12358 15.4173C9.12358 15.2298 9.27357 15.0611 9.47983 15.0611ZM0.536072 13.8798H24.0486C23.5423 13.7486 22.4361 13.5798 22.6048 12.9048C21.6673 13.9736 19.4361 13.6548 18.8548 13.1298C18.2173 14.0486 14.5423 13.6923 14.2986 12.9798C13.5111 13.9173 11.0548 13.9173 10.2673 12.9798C10.0048 13.6923 6.32982 14.0486 5.71107 13.1298C5.14857 13.6548 2.89857 13.9736 1.96107 12.9048C2.16732 13.5611 1.04232 13.7486 0.536072 13.8798Z" fill="#3A4D54"/>
<path d="M10.8302 18.5673C9.57395 17.9673 8.89895 17.1611 8.5052 16.2798C8.03645 16.4111 7.47395 16.5048 6.83646 16.5423C6.59271 16.5611 6.33021 16.5611 6.06771 16.5611C5.74896 16.5611 5.43021 16.5611 5.09271 16.5423C6.21771 17.6673 7.64271 18.5486 10.249 18.5673H10.8302Z" fill="#BFDBE0"/>
<path d="M8.97338 17.0861C8.80463 16.8423 8.63588 16.5611 8.50463 16.2798C8.03588 16.4111 7.47338 16.5048 6.83588 16.5423C7.26713 16.7673 7.90463 16.9923 8.97338 17.0861Z" fill="#D4EEF1"/>
</g>
</g>
</g>
<defs>
<clipPath id="clip0_3_1417">
<rect width="24" height="24" fill="white" transform="translate(0.330017 0.22998)"/>
</clipPath>
<clipPath id="clip1_3_1417">
<rect width="24" height="24" fill="white" transform="translate(0.330017 0.22998)"/>
</clipPath>
<clipPath id="clip2_3_1417">
<rect width="24" height="24" fill="white" transform="translate(0.330017 0.22998)"/>
</clipPath>
</defs>
</svg>
