<svg width="25" height="25" viewBox="0 0 25 25" fill="none" xmlns="http://www.w3.org/2000/svg">
<g clip-path="url(#clip0_3_1297)">
<g clip-path="url(#clip1_3_1297)">
<g clip-path="url(#clip2_3_1297)">
<mask id="mask0_3_1297" style="mask-type:luminance" maskUnits="userSpaceOnUse" x="0" y="0" width="25" height="25">
<path d="M24.33 0.22998H0.330017V24.23H24.33V0.22998Z" fill="white"/>
</mask>
<g mask="url(#mask0_3_1297)">
<path d="M24.288 12.8179C24.288 10.8079 23.046 9.03791 21.168 8.35391C21.3608 7.37174 21.3341 6.35911 21.0899 5.38847C20.8456 4.41783 20.3899 3.51316 19.7552 2.7392C19.1206 1.96523 18.3227 1.3411 17.4187 0.911458C16.5147 0.481813 15.5269 0.257274 14.526 0.253906C12.342 0.259906 10.314 1.30991 9.03605 3.07391C8.41607 2.59617 7.65729 2.33351 6.87464 2.32569C6.09199 2.31788 5.32811 2.56535 4.69872 3.03061C4.06933 3.49587 3.60872 4.15358 3.38665 4.9041C3.16458 5.65463 3.19316 6.45708 3.46805 7.18991C2.54787 7.52587 1.75325 8.13667 1.19192 8.93949C0.630593 9.7423 0.329705 10.6983 0.330048 11.6779C0.326525 12.656 0.625637 13.6112 1.18637 14.4125C1.7471 15.2139 2.542 15.8221 3.46205 16.1539C3.27776 17.1326 3.31034 18.1397 3.55749 19.1044C3.80464 20.069 4.26034 20.9678 4.8925 21.7372C5.52465 22.5067 6.31786 23.1281 7.21623 23.5578C8.1146 23.9874 9.09627 24.2148 10.092 24.2239C11.1638 24.2248 12.2203 23.9693 13.1733 23.4787C14.1262 22.9882 14.948 22.2768 15.57 21.4039C16.1941 21.9009 16.9683 22.1716 17.766 22.1719C18.3488 22.1726 18.923 22.0318 19.4394 21.7616C19.9557 21.4914 20.3987 21.0999 20.7304 20.6207C21.062 20.1415 21.2724 19.589 21.3434 19.0105C21.4144 18.4321 21.3439 17.8451 21.138 17.2999C22.0576 16.9652 22.8525 16.3567 23.4157 15.5564C23.9788 14.7561 24.2833 13.8025 24.288 12.8239V12.8179Z" fill="white"/>
<path d="M9.74957 10.5799L14.9936 12.9799L20.2736 8.32387C20.4475 7.46348 20.4284 6.57522 20.2177 5.7231C20.0069 4.87098 19.6097 4.07623 19.0548 3.39614C18.4998 2.71604 17.8008 2.16755 17.0083 1.79018C16.2157 1.41282 15.3494 1.21598 14.4716 1.21387C13.5116 1.21449 12.5663 1.44991 11.7182 1.89961C10.87 2.3493 10.1448 2.99962 9.60558 3.79387L8.72357 8.38387L9.74357 10.5799H9.74957Z" fill="#FED10A"/>
<path d="M4.32028 16.154C4.14322 17.0178 4.16048 17.9101 4.3708 18.7663C4.58112 19.6226 4.97923 20.4214 5.53632 21.1048C6.0934 21.7882 6.7955 22.3392 7.59177 22.7178C8.38805 23.0965 9.25856 23.2933 10.1403 23.294C11.1079 23.2935 12.0607 23.0558 12.9152 22.6019C13.7698 22.1479 14.5001 21.4915 15.0423 20.69L15.9123 16.13L14.7483 13.886L9.48628 11.48L4.32028 16.16V16.154Z" fill="#24BBB1"/>
<path d="M4.29002 7.04591L7.89002 7.89791L8.67001 3.79991C8.18032 3.43345 7.58554 3.23462 6.97391 3.23292C6.36228 3.23122 5.7664 3.42675 5.27468 3.79048C4.78297 4.15422 4.42161 4.66679 4.24423 5.25214C4.06686 5.83748 4.08291 6.46441 4.29002 7.03991V7.04591Z" fill="#EF5098"/>
<path d="M3.97789 7.91016C3.20107 8.17162 2.52362 8.66598 2.03765 9.32601C1.55168 9.98605 1.28076 10.7798 1.26175 11.5992C1.24274 12.4186 1.47656 13.224 1.93139 13.9059C2.38623 14.5877 3.04003 15.113 3.80389 15.4102L8.84389 10.8262L7.92589 8.84616L3.97789 7.91016Z" fill="#17A8E0"/>
<path d="M15.954 20.69C16.452 21.068 17.046 21.278 17.664 21.278C18.1226 21.2777 18.5743 21.1664 18.9806 20.9538C19.3869 20.7412 19.7358 20.4334 19.9974 20.0568C20.2591 19.6802 20.4258 19.246 20.4834 18.791C20.541 18.3361 20.4877 17.8739 20.328 17.444L16.746 16.604L15.954 20.69Z" fill="#93C83E"/>
<path d="M16.6865 15.6561L20.6345 16.5801C21.4166 16.3242 22.1001 15.832 22.5907 15.1714C23.0814 14.5108 23.3552 13.7143 23.3742 12.8916C23.3933 12.069 23.1568 11.2606 22.6973 10.578C22.2378 9.89533 21.5779 9.372 20.8085 9.08008L15.6425 13.6341L16.6865 15.6561Z" fill="#0779A1"/>
</g>
</g>
</g>
</g>
<defs>
<clipPath id="clip0_3_1297">
<rect width="24" height="24" fill="white" transform="translate(0.330017 0.22998)"/>
</clipPath>
<clipPath id="clip1_3_1297">
<rect width="24" height="24" fill="white" transform="translate(0.330017 0.22998)"/>
</clipPath>
<clipPath id="clip2_3_1297">
<rect width="24" height="24" fill="white" transform="translate(0.330017 0.22998)"/>
</clipPath>
</defs>
</svg>
