<svg width="25" height="25" viewBox="0 0 25 25" fill="none" xmlns="http://www.w3.org/2000/svg">
<g clip-path="url(#clip0_3_1257)">
<g clip-path="url(#clip1_3_1257)">
<g clip-path="url(#clip2_3_1257)">
<mask id="mask0_3_1257" style="mask-type:luminance" maskUnits="userSpaceOnUse" x="0" y="0" width="25" height="25">
<path d="M24.66 0.22998H0.660019V24.23H24.66V0.22998Z" fill="white"/>
</mask>
<g mask="url(#mask0_3_1257)">
<path d="M15.8816 7.35199H16.6136L18.7016 5.26399L18.8036 4.38199C17.6086 3.3281 16.1647 2.59608 14.6083 2.25499C13.0519 1.91391 11.4342 1.975 9.90798 2.43252C8.38173 2.89004 6.99721 3.72888 5.88507 4.86991C4.77293 6.01093 3.96986 7.4165 3.55162 8.95399C3.77962 8.85799 4.03762 8.84599 4.28362 8.91199L8.45362 8.22199C8.45362 8.22199 8.66362 7.87399 8.77762 7.89199C9.67073 6.90865 10.9065 6.30471 12.2311 6.20428C13.5557 6.10385 14.8684 6.51455 15.8996 7.35199H15.8816Z" fill="#EA4335"/>
<path d="M21.6717 8.9537C21.1926 7.18835 20.2083 5.60137 18.8397 4.3877L15.9117 7.3157C16.5223 7.81409 17.0118 8.44457 17.3434 9.15962C17.6749 9.87467 17.8398 10.6557 17.8257 11.4437V11.9657C18.5163 11.9657 19.1786 12.2401 19.667 12.7284C20.1553 13.2168 20.4297 13.8791 20.4297 14.5697C20.4297 15.2603 20.1553 15.9227 19.667 16.411C19.1786 16.8994 18.5163 17.1737 17.8257 17.1737H12.6117L12.0897 17.7017V20.8277L12.6117 21.3497H17.8257C19.281 21.36 20.701 20.9016 21.8758 20.0425C23.0505 19.1833 23.9176 17.969 24.3489 16.579C24.7801 15.189 24.7527 13.6971 24.2706 12.3239C23.7884 10.9507 22.8772 9.76904 21.6717 8.9537Z" fill="#4285F4"/>
<path d="M7.39153 21.314H12.6055V17.15H7.39153C7.01953 17.15 6.65353 17.072 6.31153 16.916L5.58553 17.144L3.48553 19.232L3.30553 19.964C4.48218 20.8515 5.91775 21.3279 7.39153 21.32V21.314Z" fill="#34A853"/>
<path d="M7.39125 7.78423C5.97988 7.79397 4.60672 8.24394 3.4633 9.07138C2.31987 9.89882 1.46317 11.0625 1.01269 12.4001C0.562201 13.7377 0.540382 15.1825 0.950274 16.5331C1.36017 17.8837 2.18133 19.0727 3.29926 19.9343L6.32325 16.9102C5.94003 16.7361 5.60475 16.4716 5.34614 16.1394C5.08753 15.8073 4.91329 15.4174 4.83837 15.0032C4.76344 14.5889 4.79005 14.1627 4.91592 13.761C5.04179 13.3593 5.26316 12.9941 5.56108 12.6967C5.85899 12.3993 6.22457 12.1786 6.62648 12.0534C7.02839 11.9283 7.45465 11.9024 7.86875 11.978C8.28285 12.0537 8.67243 12.2286 9.00413 12.4878C9.33582 12.747 9.59973 13.0827 9.77325 13.4662L12.7912 10.4422C12.1575 9.61232 11.3401 8.94046 10.4033 8.47931C9.46641 8.01816 8.43547 7.78025 7.39125 7.78423Z" fill="#FBBC05"/>
</g>
</g>
</g>
</g>
<defs>
<clipPath id="clip0_3_1257">
<rect width="24" height="24" fill="white" transform="translate(0.660019 0.22998)"/>
</clipPath>
<clipPath id="clip1_3_1257">
<rect width="24" height="24" fill="white" transform="translate(0.660019 0.22998)"/>
</clipPath>
<clipPath id="clip2_3_1257">
<rect width="24" height="24" fill="white" transform="translate(0.660019 0.22998)"/>
</clipPath>
</defs>
</svg>
