<svg width="25" height="25" viewBox="0 0 25 25" fill="none" xmlns="http://www.w3.org/2000/svg">
<g clip-path="url(#clip0_3_1214)">
<g clip-path="url(#clip1_3_1214)">
<g clip-path="url(#clip2_3_1214)">
<path fill-rule="evenodd" clip-rule="evenodd" d="M12.3098 23.2821L16.7198 9.68604H7.89986L12.3098 23.2821Z" fill="#E24329"/>
<path fill-rule="evenodd" clip-rule="evenodd" d="M12.31 23.2821L7.90603 9.68604H1.72603L12.31 23.2821Z" fill="#FC6D26"/>
<path fill-rule="evenodd" clip-rule="evenodd" d="M1.72598 9.68604L0.387985 13.8141C0.267985 14.1921 0.399985 14.6061 0.717985 14.8341L12.31 23.2881L1.72598 9.68604Z" fill="#FCA326"/>
<path fill-rule="evenodd" clip-rule="evenodd" d="M1.72603 9.6857H7.90603L5.24803 1.4897C5.21749 1.39934 5.15938 1.32082 5.08189 1.26521C5.00439 1.2096 4.91141 1.17969 4.81603 1.17969C4.72064 1.17969 4.62766 1.2096 4.55016 1.26521C4.47267 1.32082 4.41456 1.39934 4.38403 1.4897L1.72603 9.6857Z" fill="#E24329"/>
<path fill-rule="evenodd" clip-rule="evenodd" d="M12.31 23.2821L16.72 9.68604H22.894L12.31 23.2821Z" fill="#FC6D26"/>
<path fill-rule="evenodd" clip-rule="evenodd" d="M22.894 9.68604L24.232 13.8141C24.352 14.1921 24.22 14.6061 23.902 14.8341L12.31 23.2881L22.894 9.69204V9.68604Z" fill="#FCA326"/>
<path fill-rule="evenodd" clip-rule="evenodd" d="M22.8943 9.6857H16.7143L19.3723 1.4897C19.4028 1.39934 19.4609 1.32082 19.5384 1.26521C19.6159 1.2096 19.7089 1.17969 19.8043 1.17969C19.8997 1.17969 19.9927 1.2096 20.0702 1.26521C20.1477 1.32082 20.2058 1.39934 20.2363 1.4897L22.8943 9.6857Z" fill="#E24329"/>
</g>
</g>
</g>
<defs>
<clipPath id="clip0_3_1214">
<rect width="24" height="24" fill="white" transform="translate(0.310013 0.22998)"/>
</clipPath>
<clipPath id="clip1_3_1214">
<rect width="24" height="24" fill="white" transform="translate(0.310013 0.22998)"/>
</clipPath>
<clipPath id="clip2_3_1214">
<rect width="24" height="24" fill="white" transform="translate(0.310013 0.22998)"/>
</clipPath>
</defs>
</svg>
