<svg width="25" height="25" viewBox="0 0 25 25" fill="none" xmlns="http://www.w3.org/2000/svg">
<g clip-path="url(#clip0_3_1476)">
<g clip-path="url(#clip1_3_1476)">
<g clip-path="url(#clip2_3_1476)">
<path fill-rule="evenodd" clip-rule="evenodd" d="M12.4132 9.77762C11.4112 10.032 10.7272 10.2234 9.74083 10.4784C9.50203 10.542 9.48583 10.5582 9.27883 10.3188C9.04063 10.0482 8.86543 9.87302 8.53183 9.71342C7.52983 9.21962 6.55903 9.36302 5.65183 9.95282C4.57063 10.6536 4.01383 11.6892 4.03003 12.9792C4.04563 14.2536 4.92043 15.3054 6.17743 15.4806C7.25923 15.624 8.16583 15.2418 8.88163 14.4288C9.02503 14.2536 9.15163 14.0628 9.31123 13.8396H6.24103C5.90683 13.8396 5.82703 13.6326 5.93863 13.362C6.14563 12.8682 6.52723 12.0396 6.74983 11.6256C6.79783 11.5296 6.90883 11.3706 7.14763 11.3706H12.9376C12.9064 11.8008 12.9064 12.2304 12.8422 12.6606C12.6676 13.8078 12.238 14.859 11.5384 15.783C10.3924 17.2968 8.89783 18.237 7.00483 18.4914C5.44543 18.6984 3.99823 18.3954 2.72563 17.4402C1.54783 16.548 0.880027 15.369 0.705427 13.9032C0.498427 12.1668 1.00723 10.6056 2.05723 9.23583C3.18703 7.75383 4.68223 6.81422 6.51163 6.48002C8.00683 6.20882 9.43843 6.38403 10.7266 7.26002C11.5702 7.81803 12.1744 8.58243 12.5722 9.50643C12.6676 9.65043 12.604 9.72962 12.4132 9.77762Z" fill="#327C99"/>
<path d="M17.6781 18.5874C16.2309 18.5556 14.9103 18.141 13.7967 17.1852C12.8583 16.3728 12.2697 15.3372 12.0789 14.1108C11.7927 12.3108 12.2859 10.7178 13.3671 9.3C14.5287 7.77 15.9285 6.9738 17.8215 6.6396C19.4439 6.3528 20.9715 6.5118 22.3551 7.452C23.6115 8.3118 24.3915 9.4752 24.5979 11.004C24.8679 13.155 24.2481 14.907 22.7685 16.4046C21.7185 17.4726 20.4303 18.141 18.9507 18.444C18.5217 18.5238 18.0915 18.5394 17.6781 18.5874ZM21.4641 12.1512C21.4485 11.9442 21.4485 11.7852 21.4161 11.6256C21.1305 10.0482 19.6821 9.1566 18.1713 9.507C16.6923 9.8412 15.7377 10.7814 15.3873 12.279C15.1011 13.521 15.7053 14.7798 16.8513 15.2898C17.7261 15.672 18.6009 15.624 19.4439 15.1938C20.7009 14.541 21.3849 13.521 21.4641 12.1512Z" fill="#327C99"/>
</g>
</g>
</g>
<defs>
<clipPath id="clip0_3_1476">
<rect width="24" height="24" fill="white" transform="translate(0.659988 0.22998)"/>
</clipPath>
<clipPath id="clip1_3_1476">
<rect width="24" height="24" fill="white" transform="translate(0.659988 0.22998)"/>
</clipPath>
<clipPath id="clip2_3_1476">
<rect width="24" height="24" fill="white" transform="translate(0.659988 0.22998)"/>
</clipPath>
</defs>
</svg>
