<svg width="25" height="25" viewBox="0 0 25 25" fill="none" xmlns="http://www.w3.org/2000/svg">
<g clip-path="url(#clip0_3_1313)">
<g clip-path="url(#clip1_3_1313)">
<g clip-path="url(#clip2_3_1313)">
<path d="M24.98 0.22998H0.980011V24.23H24.98V0.22998Z" fill="#C4C4C4" fill-opacity="0.01"/>
<path d="M23.8024 10.7696C23.7632 10.3682 23.6977 9.90769 23.5669 9.39452C23.436 8.88794 23.2397 8.32873 22.9518 7.74977C22.6639 7.17082 22.2909 6.57213 21.8067 5.9866C21.6169 5.75634 21.4075 5.53265 21.185 5.31555C21.5188 3.98001 20.7793 2.82211 20.7793 2.82211C19.5034 2.74316 18.692 3.22342 18.391 3.44053C18.3386 3.42079 18.2928 3.39448 18.2405 3.37474C18.0246 3.28921 17.8021 3.20369 17.5665 3.13132C17.3375 3.05895 17.1019 2.99316 16.8598 2.93395C16.6177 2.87474 16.3756 2.82868 16.127 2.78921C16.0811 2.78263 16.0419 2.77605 15.9961 2.76947C15.4399 0.979986 13.8433 0.22998 13.8433 0.22998C12.0569 1.36815 11.7232 2.96026 11.7232 2.96026C11.7232 2.96026 11.7167 2.99316 11.7036 3.05237C11.6054 3.07869 11.5073 3.11158 11.4091 3.1379C11.2717 3.17737 11.1343 3.23 11.0034 3.28263C10.866 3.33527 10.7352 3.3879 10.5977 3.44711C10.3295 3.56553 10.0612 3.69711 9.79944 3.84185C9.54424 3.98659 9.29559 4.14448 9.05349 4.30896C9.02077 4.2958 8.98805 4.28264 8.98805 4.28264C6.51463 3.33527 4.32257 4.47343 4.32257 4.47343C4.11972 7.11819 5.31063 8.78268 5.54619 9.08531C5.4873 9.24979 5.43495 9.41426 5.38261 9.57874C5.19939 10.1774 5.06198 10.7893 4.97691 11.4275C4.96383 11.5196 4.95074 11.6117 4.9442 11.7038C2.65399 12.8419 1.98001 15.1643 1.98001 15.1643C3.88416 17.3683 6.10893 17.5064 6.10893 17.5064L6.11547 17.4999C6.39684 18.0065 6.72402 18.4867 7.09045 18.9407C7.24749 19.1315 7.40453 19.3091 7.57466 19.4867C6.88106 21.4867 7.67282 23.1446 7.67282 23.1446C9.7929 23.2236 11.1866 22.2104 11.4811 21.9802C11.6905 22.0525 11.9064 22.1183 12.1224 22.171C12.7767 22.342 13.4441 22.4407 14.1116 22.467C14.2752 22.4736 14.4453 22.4802 14.6089 22.4736H14.6874H14.7397H14.8444L14.9491 22.467V22.4736C15.9503 23.9078 17.7039 24.1118 17.7039 24.1118C18.9537 22.7894 19.0257 21.4736 19.0257 21.1907C19.0257 21.1907 19.0257 21.1841 19.0257 21.171C19.0257 21.1446 19.0257 21.1315 19.0257 21.1315C19.0257 21.1117 19.0257 21.092 19.0257 21.0723C19.2874 20.8881 19.5361 20.6907 19.7717 20.4736C20.269 20.0196 20.7074 19.4999 21.0738 18.9407C21.1065 18.888 21.1392 18.8354 21.172 18.7828C22.5853 18.8617 23.5865 17.9012 23.5865 17.9012C23.3509 16.4209 22.5134 15.6972 22.3367 15.5591C22.3367 15.5591 22.3301 15.5525 22.3171 15.5459C22.304 15.5393 22.304 15.5327 22.304 15.5327C22.2974 15.5262 22.2843 15.5196 22.2713 15.513C22.2778 15.4209 22.2843 15.3354 22.2909 15.2433C22.304 15.0854 22.304 14.9209 22.304 14.763V14.6446V14.5854V14.5525C22.304 14.513 22.304 14.5262 22.304 14.513L22.2974 14.4143L22.2909 14.2827C22.2909 14.2367 22.2843 14.1972 22.2778 14.1577C22.2713 14.1183 22.2713 14.0722 22.2647 14.0327L22.2516 13.9077L22.232 13.7827C22.2058 13.6183 22.1796 13.4604 22.1404 13.2959C21.9899 12.6577 21.7412 12.0525 21.4206 11.5064C21.0934 10.9603 20.6877 10.4801 20.2232 10.0722C19.7651 9.66426 19.2482 9.33531 18.7116 9.09189C18.1685 8.84847 17.6058 8.69057 17.043 8.6182C16.7617 8.57873 16.4803 8.56557 16.1989 8.57215H16.0942H16.0681C16.0615 8.57215 16.0288 8.57215 16.0353 8.57215H15.9895L15.8848 8.57873C15.8456 8.57873 15.8063 8.58531 15.7736 8.58531C15.6296 8.59847 15.4857 8.6182 15.3483 8.64452C14.7855 8.74978 14.2555 8.95373 13.7909 9.23663C13.3264 9.51953 12.9207 9.86821 12.5935 10.263C12.2663 10.6577 12.0111 11.0985 11.8344 11.5525C11.6578 12.0064 11.5596 12.4801 11.5334 12.934C11.5269 13.0459 11.5269 13.1643 11.5269 13.2762C11.5269 13.3025 11.5269 13.3354 11.5269 13.3617L11.5334 13.4538C11.54 13.5064 11.54 13.5656 11.5465 13.6183C11.5662 13.8485 11.612 14.0722 11.6709 14.2827C11.7952 14.7104 11.9915 15.0985 12.2336 15.4275C12.4757 15.7564 12.7702 16.0262 13.0777 16.2433C13.3852 16.4538 13.719 16.6051 14.0461 16.7038C14.3733 16.8025 14.7005 16.842 15.008 16.842C15.0473 16.842 15.0865 16.842 15.1193 16.842C15.1389 16.842 15.1585 16.842 15.1781 16.842C15.1978 16.842 15.2174 16.842 15.237 16.8354C15.2698 16.8354 15.3025 16.8288 15.3352 16.8288C15.3417 16.8288 15.3548 16.8288 15.3614 16.8222L15.3941 16.8157C15.4137 16.8157 15.4333 16.8091 15.453 16.8091C15.4922 16.8025 15.525 16.7959 15.5642 16.7893C15.6035 16.7828 15.6362 16.7762 15.6689 16.763C15.7409 16.7499 15.8063 16.7235 15.8718 16.7038C16.0026 16.6578 16.1335 16.6051 16.2447 16.5459C16.3625 16.4867 16.4672 16.4143 16.5719 16.3485C16.5981 16.3288 16.6308 16.3091 16.657 16.2828C16.7617 16.1972 16.7813 16.0393 16.6962 15.9341C16.6243 15.842 16.4934 15.8156 16.3887 15.8749C16.3625 15.888 16.3363 15.9012 16.3102 15.9143C16.2186 15.9604 16.127 15.9999 16.0288 16.0328C15.9306 16.0656 15.826 16.092 15.7213 16.1117C15.6689 16.1183 15.6166 16.1249 15.5577 16.1314C15.5315 16.1314 15.5053 16.138 15.4726 16.138C15.4464 16.138 15.4137 16.138 15.3941 16.138C15.3679 16.138 15.3417 16.138 15.3156 16.138C15.2828 16.138 15.2501 16.138 15.2174 16.1314C15.2174 16.1314 15.1978 16.1314 15.2109 16.1314H15.1978H15.1781C15.1651 16.1314 15.1454 16.1314 15.1323 16.1249C15.0996 16.1183 15.0735 16.1183 15.0407 16.1117C14.7986 16.0788 14.5565 16.0064 14.3275 15.9012C14.0919 15.7959 13.8695 15.6512 13.6666 15.467C13.4638 15.2827 13.2871 15.0656 13.1497 14.8156C13.0123 14.5656 12.9141 14.2893 12.8683 13.9998C12.8487 13.8551 12.8356 13.7038 12.8421 13.5591C12.8421 13.5196 12.8487 13.4801 12.8487 13.4406C12.8487 13.4538 12.8487 13.434 12.8487 13.434V13.4209V13.388C12.8487 13.3683 12.8552 13.3485 12.8552 13.3288C12.8618 13.2498 12.8749 13.1709 12.8879 13.0919C12.9992 12.4604 13.3133 11.8419 13.7975 11.3748C13.9218 11.2564 14.0527 11.1511 14.1901 11.0525C14.3275 10.9538 14.478 10.8682 14.635 10.7959C14.7921 10.7235 14.9491 10.6643 15.1193 10.6182C15.2828 10.5722 15.453 10.5459 15.6296 10.5261C15.7147 10.5196 15.7998 10.513 15.8914 10.513C15.9176 10.513 15.9306 10.513 15.9503 10.513H16.0223H16.0681C16.0877 10.513 16.0681 10.513 16.0746 10.513H16.0942L16.1662 10.5196C16.356 10.5327 16.5392 10.559 16.7224 10.6051C17.0888 10.684 17.4487 10.8222 17.7824 11.0064C18.4499 11.3814 19.0192 11.9604 19.366 12.6577C19.5426 13.0064 19.667 13.3814 19.7259 13.7696C19.7389 13.8683 19.752 13.9669 19.7586 14.0656L19.7651 14.138L19.7717 14.2104C19.7717 14.2367 19.7717 14.263 19.7717 14.2827C19.7717 14.3091 19.7717 14.3354 19.7717 14.3551V14.4209V14.4933C19.7717 14.5393 19.7651 14.6183 19.7651 14.6643C19.7586 14.7696 19.7455 14.8814 19.7324 14.9867C19.7193 15.092 19.6997 15.1972 19.68 15.3025C19.6604 15.4077 19.6342 15.513 19.6081 15.6117C19.5557 15.8156 19.4903 16.0196 19.4118 16.2235C19.2547 16.6183 19.0453 16.9999 18.7967 17.3486C18.2928 18.0459 17.6058 18.6117 16.8206 18.9736C16.4279 19.1512 16.0157 19.2828 15.5904 19.3486C15.381 19.388 15.1651 19.4078 14.9491 19.4144H14.9099H14.8772H14.8052H14.7005H14.6481C14.6743 19.4144 14.6416 19.4144 14.6416 19.4144H14.622C14.5042 19.4144 14.3929 19.4078 14.2752 19.3946C13.8171 19.3617 13.3656 19.2762 12.9207 19.1512C12.4822 19.0262 12.0569 18.8486 11.6512 18.638C10.8464 18.2038 10.1201 17.6117 9.55733 16.8946C9.27596 16.5393 9.02731 16.1512 8.82446 15.7499C8.62162 15.3485 8.45803 14.9209 8.34025 14.4933C8.22247 14.0591 8.15049 13.6183 8.11777 13.1709L8.11123 13.0854V13.0656V13.0459V13.0064V12.934V12.9143V12.888V12.8354V12.7301V12.7104C8.11123 12.7104 8.11123 12.7169 8.11123 12.7038V12.6643C8.11123 12.6117 8.11123 12.5525 8.11123 12.4998C8.11777 12.2827 8.1374 12.0525 8.16358 11.8288C8.18975 11.6051 8.22901 11.3748 8.27481 11.1511C8.32062 10.9275 8.37297 10.7038 8.4384 10.4801C8.56273 10.0393 8.71977 9.61163 8.90299 9.21031C9.27596 8.40767 9.76018 7.69056 10.3426 7.11819C10.4865 6.97345 10.637 6.84187 10.794 6.71029C10.9511 6.58529 11.1147 6.46687 11.2848 6.35503C11.4484 6.24318 11.6251 6.1445 11.8017 6.05239C11.8868 6.00634 11.9784 5.96029 12.07 5.92081C12.1158 5.90108 12.1616 5.88134 12.2074 5.8616C12.2532 5.84187 12.299 5.82213 12.3448 5.80239C12.5281 5.72344 12.7178 5.65765 12.9141 5.59844C12.9599 5.58528 13.0123 5.57213 13.0581 5.55239C13.1039 5.53923 13.1562 5.52607 13.202 5.51292C13.3002 5.4866 13.3983 5.46028 13.4965 5.44055C13.5423 5.42739 13.5946 5.42081 13.647 5.40765C13.6993 5.39449 13.7451 5.38791 13.7975 5.37476C13.8498 5.36818 13.8956 5.35502 13.948 5.34844L14.02 5.33528L14.0985 5.32212C14.1508 5.31555 14.1966 5.30897 14.249 5.30239C14.3079 5.29581 14.3602 5.28923 14.4191 5.28265C14.4649 5.27607 14.5434 5.26949 14.5892 5.26291C14.622 5.25633 14.6612 5.25633 14.6939 5.24976L14.7659 5.24318L14.7986 5.2366H14.8379C14.8968 5.23002 14.9491 5.23002 15.008 5.22344L15.0931 5.21686C15.0931 5.21686 15.1258 5.21686 15.0996 5.21686H15.1193H15.1585C15.2043 5.21686 15.2567 5.21028 15.3025 5.21028C15.4922 5.2037 15.6885 5.2037 15.8783 5.21028C16.2578 5.22344 16.6308 5.26949 16.9907 5.33528C17.717 5.47344 18.3975 5.70371 19.0192 6.01292C19.6408 6.31555 20.1904 6.69056 20.6747 7.09845C20.7074 7.12477 20.7335 7.15109 20.7663 7.1774C20.7924 7.20372 20.8252 7.23003 20.8513 7.25635C20.9102 7.30898 20.9626 7.36161 21.0215 7.41425C21.0803 7.46688 21.1327 7.51951 21.185 7.57214C21.2374 7.62477 21.2897 7.67741 21.3421 7.73662C21.5449 7.95372 21.7347 8.17083 21.9048 8.39452C22.2451 8.83531 22.5199 9.28268 22.7358 9.70374C22.7489 9.73005 22.762 9.75637 22.7751 9.78269C22.7882 9.809 22.8013 9.83532 22.8144 9.86163C22.8405 9.91427 22.8667 9.9669 22.8863 10.0195C22.9125 10.0722 22.9321 10.1182 22.9583 10.1709C22.9779 10.2235 23.0041 10.2696 23.0238 10.3222C23.1023 10.5196 23.1808 10.7103 23.2397 10.888C23.3378 11.1775 23.4098 11.434 23.4687 11.6577C23.4883 11.7498 23.5734 11.809 23.665 11.7959C23.7632 11.7893 23.8351 11.7104 23.8351 11.6117C23.8417 11.3748 23.8351 11.0919 23.8024 10.7696Z" fill="url(#paint0_linear_3_1313)"/>
</g>
</g>
</g>
<defs>
<linearGradient id="paint0_linear_3_1313" x1="12.9076" y1="29.4733" x2="12.9076" y2="7.66652" gradientUnits="userSpaceOnUse">
<stop stop-color="#FFF100"/>
<stop offset="1" stop-color="#F05A28"/>
</linearGradient>
<clipPath id="clip0_3_1313">
<rect width="24" height="24" fill="white" transform="translate(0.980011 0.22998)"/>
</clipPath>
<clipPath id="clip1_3_1313">
<rect width="24" height="24" fill="white" transform="translate(0.980011 0.22998)"/>
</clipPath>
<clipPath id="clip2_3_1313">
<rect width="24" height="24" fill="white" transform="translate(0.980011 0.22998)"/>
</clipPath>
</defs>
</svg>
