<svg width="57" height="57" viewBox="0 0 57 57" fill="none" xmlns="http://www.w3.org/2000/svg">
<g clip-path="url(#clip0_3_835)">
<g clip-path="url(#clip1_3_835)">
<g clip-path="url(#clip2_3_835)">
<path d="M56.5 0.22998H0.5V56.23H56.5V0.22998Z" fill="#C4C4C4" fill-opacity="0.01"/>
<mask id="mask0_3_835" style="mask-type:luminance" maskUnits="userSpaceOnUse" x="12" y="12" width="33" height="33">
<path d="M44.5 12.23H12.5V44.23H44.5V12.23Z" fill="white"/>
</mask>
<g mask="url(#mask0_3_835)">
<path d="M13.833 13.6035H43.1664V42.1369H13.833V13.6035Z" fill="#210B00"/>
<path d="M13.8333 13.6038H43.1667V42.1373H13.8333V13.6038ZM12.5 43.4706H44.5001V12.2705H12.5V43.4706ZM33.46 23.3906C33.46 23.2839 33.5 23.2305 33.62 23.2305H35.7134C35.82 23.2305 35.8734 23.2705 35.8734 23.3906V33.9106C35.8734 34.0172 35.8467 34.0706 35.7134 34.0706H33.6467C33.5134 34.0706 33.4733 34.0039 33.4733 33.8973V23.3906H33.46ZM33.3134 20.3639C33.3134 19.5105 33.9133 19.0039 34.6734 19.0039C35.4867 19.0039 36.0334 19.5505 36.0334 20.3639C36.0334 21.2439 35.4601 21.7238 34.6467 21.7238C33.8733 21.7239 33.3134 21.2439 33.3134 20.3639ZM27.3134 27.7772C26.9401 26.2972 26.0601 23.0705 25.7267 21.5105H25.7C25.42 23.0705 24.7134 25.7105 24.1534 27.7772H27.3134ZM23.6067 29.9373L22.5533 33.9373C22.5267 34.0439 22.4867 34.0705 22.3534 34.0705H20.3934C20.26 34.0705 20.2333 34.0305 20.26 33.8706L24.0467 20.6172C24.1134 20.3772 24.1533 20.1638 24.18 19.5105C24.18 19.4172 24.22 19.3772 24.2867 19.3772H27.0867C27.18 19.3772 27.22 19.4039 27.2467 19.5105L31.4867 33.8972C31.5133 34.0038 31.4867 34.0705 31.38 34.0705H29.1667C29.06 34.0705 28.9933 34.0439 28.9667 33.9506L27.8733 29.9373H23.6067Z" fill="#FF7F18"/>
</g>
</g>
</g>
</g>
<defs>
<clipPath id="clip0_3_835">
<rect width="56" height="56" fill="white" transform="translate(0.5 0.22998)"/>
</clipPath>
<clipPath id="clip1_3_835">
<rect width="56" height="56" fill="white" transform="translate(0.5 0.22998)"/>
</clipPath>
<clipPath id="clip2_3_835">
<rect width="56" height="56" fill="white" transform="translate(0.5 0.22998)"/>
</clipPath>
</defs>
</svg>
