<svg width="25" height="25" viewBox="0 0 25 25" fill="none" xmlns="http://www.w3.org/2000/svg">
<g clip-path="url(#clip0_3_1392)">
<g clip-path="url(#clip1_3_1392)">
<g clip-path="url(#clip2_3_1392)">
<mask id="mask0_3_1392" style="mask-type:luminance" maskUnits="userSpaceOnUse" x="0" y="0" width="25" height="25">
<path d="M24.98 0.22998H0.97998V24.23H24.98V0.22998Z" fill="white"/>
</mask>
<g mask="url(#mask0_3_1392)">
<path d="M24.9801 8.19806V22.1541C24.9801 22.7036 24.7622 23.2308 24.3742 23.6199C23.9862 24.0091 23.4597 24.2285 22.9101 24.2301H3.05012C2.51192 24.2319 1.9943 24.0234 1.60761 23.649C1.22093 23.2747 0.995764 22.7641 0.980122 22.2261V2.30606C0.976918 2.03305 1.02823 1.76215 1.13105 1.50923C1.23386 1.2563 1.38612 1.02644 1.5789 0.833098C1.77168 0.639761 2.0011 0.486838 2.25373 0.383289C2.50635 0.27974 2.77711 0.227647 3.05012 0.230061H22.8021C23.3678 0.238795 23.9087 0.463747 24.3137 0.858736C24.7188 1.25372 24.9572 1.78878 24.9801 2.35406V8.19806Z" fill="#ED4969"/>
<path d="M17.7198 8.67784C19.0518 8.67784 20.1018 9.58984 20.1018 11.4559C20.1018 11.9119 20.0298 12.4399 19.8918 13.0039L19.2258 15.3979C19.1538 15.6799 19.0878 15.8539 19.0878 16.0639C19.0878 16.4539 19.2978 16.7359 19.5438 16.7359C19.8558 16.7359 20.2758 16.4539 20.7318 15.1879L21.6438 15.4999C21.1218 17.4379 20.1018 18.2479 18.8718 18.2479C17.4018 18.2479 16.7358 17.3659 16.7358 16.1719C16.7358 15.8539 16.8018 15.4999 16.8738 15.1159L17.5398 12.6559C17.6118 12.3679 17.6838 12.1219 17.6838 11.9119C17.6838 11.1019 17.2278 10.6519 16.4238 10.6519C15.4338 10.6519 14.7678 11.3839 14.4198 12.7219L13.0878 18.1039H10.8078L11.1918 16.3819C10.5258 17.5099 9.54178 18.2419 8.34778 18.2419C6.94378 18.2419 6.27778 17.4379 6.27778 16.1719C6.27778 15.8539 6.34978 15.4339 6.41578 15.1159L7.47178 10.7179H5.82178L6.27778 8.85184H10.2798L8.70178 15.1099C8.55778 15.4939 8.55778 15.8479 8.55778 16.0939C8.55778 16.4839 8.76778 16.6219 9.08578 16.6939H9.22378C9.61378 16.6939 10.8738 16.4839 11.6118 14.8939L12.6618 10.7119H10.9458L11.4738 8.84584H15.0498L14.5938 10.9939C15.1938 9.79384 16.4538 8.67184 17.7138 8.67184L17.7198 8.67784ZM9.32578 7.54984C8.51578 7.54984 7.92178 6.94984 7.92178 6.13984C7.92336 5.76796 8.07178 5.41177 8.33474 5.14881C8.5977 4.88585 8.9539 4.73742 9.32578 4.73584C10.1298 4.73584 10.7298 5.33584 10.7298 6.13984C10.7958 6.94984 10.1298 7.54984 9.32578 7.54984Z" fill="white"/>
</g>
</g>
</g>
</g>
<defs>
<clipPath id="clip0_3_1392">
<rect width="24" height="24" fill="white" transform="translate(0.97998 0.22998)"/>
</clipPath>
<clipPath id="clip1_3_1392">
<rect width="24" height="24" fill="white" transform="translate(0.97998 0.22998)"/>
</clipPath>
<clipPath id="clip2_3_1392">
<rect width="24" height="24" fill="white" transform="translate(0.97998 0.22998)"/>
</clipPath>
</defs>
</svg>
