<svg width="25" height="25" viewBox="0 0 25 25" fill="none" xmlns="http://www.w3.org/2000/svg">
<g clip-path="url(#clip0_3_1241)">
<g clip-path="url(#clip1_3_1241)">
<g clip-path="url(#clip2_3_1241)">
<path d="M8.5151 18.7668C8.5151 18.7668 7.5869 19.299 9.1751 19.479C11.0993 19.695 12.0833 19.6638 14.2043 19.269C14.2043 19.269 14.7611 19.6128 15.5399 19.9116C10.7861 21.9198 4.7801 19.7946 8.5151 18.7668ZM7.9343 16.1466C7.9343 16.1466 6.8933 16.9056 8.4821 17.067C10.5383 17.277 12.1619 17.2938 14.9711 16.761C14.9711 16.761 15.3593 17.1486 15.9713 17.361C10.2221 19.0176 3.8213 17.4924 7.9343 16.1466Z" fill="#5382A1"/>
<path d="M12.8301 11.7C14.0019 13.0296 12.5229 14.226 12.5229 14.226C12.5229 14.226 15.4971 12.7128 14.1309 10.818C12.8559 9.04982 11.8767 8.17202 17.1741 5.14502C17.1741 5.14502 8.85924 7.19042 12.8301 11.7Z" fill="#E76F00"/>
<path d="M19.1184 20.7051C19.1184 20.7051 19.8054 21.2631 18.3624 21.6951C15.618 22.5141 6.94138 22.7613 4.53118 21.7269C3.66418 21.3561 5.28898 20.8401 5.80138 20.7321C6.33298 20.6181 6.63838 20.6391 6.63838 20.6391C5.67418 19.9701 0.409184 21.9531 3.96418 22.5213C13.656 24.0711 21.633 21.8229 19.1184 20.7051ZM8.96098 13.4313C8.96098 13.4313 4.54738 14.4639 7.39798 14.8401C8.60098 14.9979 11.001 14.9631 13.236 14.7783C15.0624 14.6259 16.896 14.3031 16.896 14.3031C16.896 14.3031 16.2534 14.5749 15.786 14.8893C11.3052 16.0509 2.64598 15.5103 5.13898 14.3223C7.24738 13.3173 8.96098 13.4313 8.96098 13.4313ZM16.878 17.7933C21.435 15.4599 19.3284 13.2171 17.8584 13.5189C17.4984 13.5933 17.337 13.6569 17.337 13.6569C17.337 13.6569 17.4702 13.4511 17.7264 13.3611C20.6352 12.3531 22.872 16.3341 16.7862 17.9109C16.7862 17.9109 16.857 17.8491 16.878 17.7933Z" fill="#5382A1"/>
<path d="M14.1308 0.255859C14.1308 0.255859 16.655 2.74406 11.738 6.56906C7.79598 9.63926 10.8386 11.3895 11.7368 13.3875C9.43458 11.3415 7.74678 9.53906 8.87958 7.86206C10.5416 5.40086 15.1496 4.20806 14.1308 0.255859Z" fill="#E76F00"/>
<path d="M9.40882 24.1173C13.7816 24.3933 20.498 23.9643 20.657 21.9243C20.657 21.9243 20.351 22.6971 17.042 23.3109C13.31 24.0039 8.70562 23.9229 5.97502 23.4789C5.97502 23.4789 6.53482 23.9349 9.40882 24.1173Z" fill="#5382A1"/>
</g>
</g>
</g>
<defs>
<clipPath id="clip0_3_1241">
<rect width="24" height="24" fill="white" transform="translate(0.309982 0.22998)"/>
</clipPath>
<clipPath id="clip1_3_1241">
<rect width="24" height="24" fill="white" transform="translate(0.309982 0.22998)"/>
</clipPath>
<clipPath id="clip2_3_1241">
<rect width="24" height="24" fill="white" transform="translate(0.309982 0.22998)"/>
</clipPath>
</defs>
</svg>
