<svg width="25" height="25" viewBox="0 0 25 25" fill="none" xmlns="http://www.w3.org/2000/svg">
<g clip-path="url(#clip0_3_1560)">
<g clip-path="url(#clip1_3_1560)">
<g clip-path="url(#clip2_3_1560)">
<path d="M17.2436 3.3198C16.8038 3.49406 16.0708 3.982 15.2016 4.68951L16.0027 5.69676C16.5629 5.16003 17.1389 4.67906 17.7148 4.2678C17.7567 4.23643 17.7829 4.219 17.7829 4.219C17.762 4.23643 17.7358 4.25037 17.7148 4.2678C17.5264 4.40372 16.9609 4.84287 16.1074 5.71767C16.9295 5.68979 18.1913 5.57826 19.2228 5.45976C19.5317 4.31659 18.9243 3.7938 18.9243 3.7938C18.9243 3.7938 18.1494 2.96082 17.2436 3.3198Z" fill="url(#paint0_linear_3_1560)"/>
<path d="M14.5455 11.7749C14.441 11.7889 14.3364 11.7993 14.2319 11.8098C14.2842 11.8063 14.3417 11.7993 14.3939 11.7923C14.4462 11.7889 14.4985 11.7819 14.5455 11.7749Z" fill="#1B5BF7"/>
<path opacity="0.35" d="M14.5455 11.7749C14.441 11.7889 14.3364 11.7993 14.2319 11.8098C14.2842 11.8063 14.3417 11.7993 14.3939 11.7923C14.4462 11.7889 14.4985 11.7819 14.5455 11.7749Z" fill="#1B5BF7"/>
<path d="M14.8188 10.8936C14.8136 10.8936 14.8136 10.8936 14.8188 10.8936C14.8345 10.8936 14.8502 10.8901 14.8659 10.8901C14.9338 10.8832 15.0018 10.8762 15.0645 10.8657C14.9861 10.8762 14.9024 10.8832 14.8188 10.8936Z" fill="#1B5BF7"/>
<path opacity="0.35" d="M14.8188 10.8936C14.8136 10.8936 14.8136 10.8936 14.8188 10.8936C14.8345 10.8936 14.8502 10.8901 14.8659 10.8901C14.9338 10.8832 15.0018 10.8762 15.0645 10.8657C14.9861 10.8762 14.9024 10.8832 14.8188 10.8936Z" fill="#1B5BF7"/>
<path d="M13.6342 8.29671C13.8803 7.99349 14.1264 7.69725 14.3724 7.40797C14.629 7.10823 14.8908 6.81896 15.1578 6.53665C15.1735 6.51922 15.1893 6.5018 15.205 6.48786C15.4668 6.21252 15.7286 5.94764 15.9956 5.69321L15.1945 4.68945C15.1369 4.73825 15.0741 4.78704 15.0112 4.83932C14.7808 5.03101 14.54 5.23664 14.2939 5.45621C14.0164 5.70367 13.7337 5.96506 13.4405 6.2404C13.1734 6.49483 12.9012 6.76319 12.6289 7.03853C12.3985 7.27553 12.1681 7.51601 11.9377 7.76347C11.9273 7.77392 11.922 7.78089 11.9116 7.79135L12.9535 9.16106C13.1839 8.87178 13.409 8.58251 13.6342 8.29671Z" fill="url(#paint1_linear_3_1560)"/>
<path d="M8.88702 16.0238C8.75088 16.2748 8.60951 16.5327 8.47338 16.7975C8.47338 16.801 8.46814 16.8045 8.46814 16.808C8.4472 16.8463 8.42625 16.8812 8.41055 16.9195C8.3163 17.0973 8.23776 17.2576 8.04927 17.6201C8.35819 17.7142 8.60428 17.9581 8.83466 18.237C8.80848 17.9477 8.63046 17.6758 8.29012 17.4667C9.8033 17.512 11.1123 17.2576 11.7825 16.5187C11.8401 16.4525 11.8977 16.3828 11.95 16.3096C11.6411 16.5675 11.2641 16.679 10.5468 16.6512C11.5992 16.3375 12.128 16.0343 12.594 15.5359C12.704 15.4174 12.8139 15.2884 12.9239 15.1455C12.0024 15.7764 10.9343 15.9541 9.80854 15.8182L8.96555 15.8809C8.93937 15.9297 8.9132 15.975 8.88702 16.0238Z" fill="url(#paint2_linear_3_1560)"/>
<path d="M9.27904 14.766C9.46229 14.4523 9.65079 14.1351 9.83928 13.8145C10.0225 13.5078 10.211 13.2011 10.4048 12.8909C10.5985 12.5807 10.7974 12.2705 10.9964 11.9603C11.2006 11.6432 11.41 11.3295 11.6247 11.0158C11.8342 10.7056 12.0541 10.3954 12.2687 10.0887C12.3473 9.97719 12.4258 9.86915 12.5096 9.75762C12.6457 9.56942 12.7871 9.38121 12.9285 9.19301C12.9337 9.18255 12.9442 9.17209 12.9494 9.16164L11.9179 7.79541C11.9022 7.81284 11.8865 7.83375 11.8656 7.85117C11.6247 8.11606 11.3786 8.38442 11.143 8.65976C10.9022 8.93858 10.6665 9.22089 10.4362 9.51017C10.2425 9.75413 10.054 9.9981 9.86546 10.2456C9.82881 10.2944 9.79216 10.3467 9.75551 10.3954C9.53036 10.7056 9.32092 11.0089 9.13767 11.2981C8.92823 11.6257 8.74497 11.9394 8.58266 12.2357C8.47794 12.4308 8.37846 12.6191 8.28945 12.8003C8.21614 12.9536 8.14808 13.1105 8.08001 13.2638C7.92293 13.6263 7.79203 13.9888 7.68208 14.3512L8.72926 15.7279C8.8654 15.4805 9.012 15.233 9.15337 14.9786C9.19526 14.9089 9.23715 14.8392 9.27904 14.766Z" fill="url(#paint3_linear_3_1560)"/>
<path d="M7.66618 14.3999C7.53528 14.839 7.44103 15.2782 7.39391 15.7173C7.39391 15.7313 7.38867 15.7487 7.38867 15.7626C7.06404 15.4141 6.18441 15.0725 6.18965 15.076C6.81796 15.6825 7.29442 16.2819 7.36249 16.8709C7.02739 16.9163 6.56663 16.85 6.0378 16.7211C6.59281 17.0592 7.00645 17.1533 7.16876 17.1777C6.66088 17.1986 6.13205 17.4321 5.59799 17.7004C6.37814 17.4878 7.01169 17.4042 7.46197 17.4739C6.74465 18.8227 6.02733 20.3144 5.31001 21.8967C5.52992 21.8549 5.66082 21.7538 5.73412 21.6214C5.85978 21.3356 6.71324 19.4535 8.04316 16.9825C8.07981 16.9128 8.1217 16.8431 8.15835 16.7699C8.16882 16.749 8.1793 16.7315 8.18977 16.7106C8.33114 16.4527 8.47774 16.1878 8.62959 15.916C8.66624 15.8532 8.69765 15.794 8.7343 15.7313V15.7278L7.68712 14.3511C7.67665 14.3685 7.67141 14.3825 7.66618 14.3999Z" fill="url(#paint4_linear_3_1560)"/>
<path d="M13.1226 9.27996C13.0912 9.32179 13.065 9.36012 13.0336 9.40195C12.9446 9.52742 12.8503 9.65289 12.7613 9.78184C12.6618 9.92125 12.5624 10.0641 12.4576 10.2105C12.4053 10.2837 12.3529 10.3569 12.3006 10.4336C12.1435 10.6602 11.9864 10.8937 11.8241 11.1342C11.6251 11.4304 11.4262 11.7371 11.222 12.0577C11.0282 12.361 10.8293 12.6781 10.6303 13.0023C10.4418 13.3124 10.2481 13.6296 10.0544 13.9607C9.88158 14.2535 9.70879 14.5567 9.53077 14.8669C9.5203 14.8808 9.51507 14.8982 9.50459 14.9122C9.33181 15.2189 9.15379 15.5361 8.97577 15.8602C8.97053 15.8672 8.96529 15.8741 8.96529 15.8811L9.80828 15.8184C9.79257 15.8149 9.77686 15.8149 9.75592 15.8114C10.7664 15.7277 12.1068 15.2259 12.9708 14.6055C13.3687 14.3197 13.73 13.9851 14.0651 13.5913C14.3164 13.2985 14.5468 12.9744 14.7719 12.6119C14.9656 12.2982 15.1541 11.9567 15.3322 11.5872C15.1018 11.6674 14.8347 11.7266 14.5415 11.7685C14.4892 11.7754 14.4368 11.7824 14.3845 11.7894C14.3321 11.7964 14.2797 11.7998 14.2221 11.8068C15.1646 11.5663 15.7563 11.1028 16.1856 10.5312C15.9395 10.6427 15.5364 10.7891 15.0547 10.8623C14.9918 10.8728 14.9238 10.8797 14.8557 10.8867C14.84 10.8867 14.8243 10.8902 14.8033 10.8902C15.128 10.7996 15.4055 10.6985 15.6463 10.5765C15.6987 10.5521 15.7458 10.5242 15.7929 10.4963C15.8662 10.4545 15.9343 10.4092 16.0024 10.3639C16.0442 10.3325 16.0861 10.3047 16.128 10.2733C16.2223 10.2001 16.3113 10.1199 16.3898 10.0328C16.416 10.0049 16.4422 9.9805 16.4631 9.95262C16.4945 9.9108 16.5259 9.87246 16.5521 9.83412C16.683 9.65986 16.7877 9.50302 16.8715 9.36361C16.9134 9.2939 16.9501 9.23117 16.9815 9.17192C16.9919 9.14752 17.0076 9.12661 17.0181 9.10221C17.0495 9.03599 17.081 8.97674 17.1019 8.92446C17.1333 8.84779 17.1543 8.78505 17.1647 8.73975C17.1333 8.75717 17.0967 8.7746 17.0548 8.78854C16.772 8.90007 16.2851 9.00463 15.8924 9.05342C15.8872 9.05342 15.8819 9.05342 15.8767 9.05691C15.84 9.06039 15.7982 9.06388 15.7563 9.07085C15.7615 9.06736 15.772 9.06736 15.7772 9.06388L13.1278 9.25557C13.1331 9.26951 13.1278 9.27648 13.1226 9.27996Z" fill="url(#paint5_linear_3_1560)"/>
<path d="M16.1069 5.7178C15.8713 5.95829 15.6147 6.23362 15.3372 6.54033C15.3215 6.55776 15.3058 6.5717 15.2953 6.58912C15.0545 6.85749 14.8031 7.15025 14.5361 7.47438C14.3057 7.75321 14.0649 8.04945 13.8136 8.37358C13.5937 8.65241 13.3737 8.94866 13.1381 9.26233L15.7875 9.07064C16.5572 8.83364 16.9028 8.62104 17.2379 8.31085C17.3269 8.2272 17.4159 8.13659 17.5049 8.04248C17.7772 7.76018 18.0442 7.44999 18.2798 7.1398C18.5102 6.84006 18.7144 6.54381 18.8662 6.27893C18.9657 6.10815 19.0442 5.95132 19.1018 5.81191C19.149 5.68992 19.1856 5.57491 19.217 5.46338C18.1908 5.57839 16.9289 5.68992 16.1069 5.7178Z" fill="url(#paint6_linear_3_1560)"/>
<path d="M14.3939 11.7959C14.3417 11.8029 14.2894 11.8064 14.2319 11.8133C14.2842 11.8064 14.3364 11.7994 14.3939 11.7959Z" fill="#1B5BF7"/>
<path opacity="0.35" d="M14.3939 11.7959C14.3417 11.8029 14.2894 11.8064 14.2319 11.8133C14.2842 11.8064 14.3364 11.7994 14.3939 11.7959Z" fill="#1B5BF7"/>
<path d="M14.3939 11.7959C14.3417 11.8029 14.2894 11.8064 14.2319 11.8133C14.2842 11.8064 14.3364 11.7994 14.3939 11.7959Z" fill="url(#paint7_linear_3_1560)"/>
<path d="M14.8129 10.8931C14.8286 10.8931 14.8443 10.8896 14.8652 10.8896C14.8495 10.8896 14.8338 10.8931 14.8129 10.8931Z" fill="#1B5BF7"/>
<path opacity="0.35" d="M14.8129 10.8931C14.8286 10.8931 14.8443 10.8896 14.8652 10.8896C14.8495 10.8896 14.8338 10.8931 14.8129 10.8931Z" fill="#1B5BF7"/>
<path d="M14.8129 10.8931C14.8286 10.8931 14.8443 10.8896 14.8652 10.8896C14.8495 10.8896 14.8338 10.8931 14.8129 10.8931Z" fill="url(#paint8_linear_3_1560)"/>
<path d="M24.31 0.22998H0.310013V24.23H24.31V0.22998Z" fill="#C4C4C4" fill-opacity="0.01"/>
</g>
</g>
</g>
<defs>
<linearGradient id="paint0_linear_3_1560" x1="15.8851" y1="4.81111" x2="21.2705" y2="2.56169" gradientUnits="userSpaceOnUse">
<stop stop-color="#F69923"/>
<stop offset="0.3123" stop-color="#F79A23"/>
<stop offset="0.8383" stop-color="#E97826"/>
</linearGradient>
<linearGradient id="paint1_linear_3_1560" x1="3.03226" y1="22.351" x2="8.90777" y2="3.4213" gradientUnits="userSpaceOnUse">
<stop offset="0.3233" stop-color="#9E2064"/>
<stop offset="0.6302" stop-color="#C92037"/>
<stop offset="0.7514" stop-color="#CD2335"/>
<stop offset="1" stop-color="#E97826"/>
</linearGradient>
<linearGradient id="paint2_linear_3_1560" x1="7.04418" y1="21.0907" x2="10.5454" y2="9.81046" gradientUnits="userSpaceOnUse">
<stop stop-color="#282662"/>
<stop offset="0.0954839" stop-color="#662E8D"/>
<stop offset="0.7882" stop-color="#9F2064"/>
<stop offset="0.9487" stop-color="#CD2032"/>
</linearGradient>
<linearGradient id="paint3_linear_3_1560" x1="3.46545" y1="21.3201" x2="9.34097" y2="2.39035" gradientUnits="userSpaceOnUse">
<stop offset="0.3233" stop-color="#9E2064"/>
<stop offset="0.6302" stop-color="#C92037"/>
<stop offset="0.7514" stop-color="#CD2335"/>
<stop offset="1" stop-color="#E97826"/>
</linearGradient>
<linearGradient id="paint4_linear_3_1560" x1="4.68266" y1="20.1842" x2="7.77041" y2="10.2361" gradientUnits="userSpaceOnUse">
<stop stop-color="#282662"/>
<stop offset="0.0954839" stop-color="#662E8D"/>
<stop offset="0.7882" stop-color="#9F2064"/>
<stop offset="0.9487" stop-color="#CD2032"/>
</linearGradient>
<linearGradient id="paint5_linear_3_1560" x1="6.11636" y1="22.1426" x2="11.9919" y2="3.21285" gradientUnits="userSpaceOnUse">
<stop offset="0.3233" stop-color="#9E2064"/>
<stop offset="0.6302" stop-color="#C92037"/>
<stop offset="0.7514" stop-color="#CD2335"/>
<stop offset="1" stop-color="#E97826"/>
</linearGradient>
<linearGradient id="paint6_linear_3_1560" x1="5.2438" y1="23.159" x2="11.1193" y2="4.22926" gradientUnits="userSpaceOnUse">
<stop offset="0.3233" stop-color="#9E2064"/>
<stop offset="0.6302" stop-color="#C92037"/>
<stop offset="0.7514" stop-color="#CD2335"/>
<stop offset="1" stop-color="#E97826"/>
</linearGradient>
<linearGradient id="paint7_linear_3_1560" x1="6.91529" y1="22.3868" x2="12.7982" y2="3.46235" gradientUnits="userSpaceOnUse">
<stop offset="0.3233" stop-color="#9E2064"/>
<stop offset="0.6302" stop-color="#C92037"/>
<stop offset="0.7514" stop-color="#CD2335"/>
<stop offset="1" stop-color="#E97826"/>
</linearGradient>
<linearGradient id="paint8_linear_3_1560" x1="6.82609" y1="22.3576" x2="12.7082" y2="3.43459" gradientUnits="userSpaceOnUse">
<stop offset="0.3233" stop-color="#9E2064"/>
<stop offset="0.6302" stop-color="#C92037"/>
<stop offset="0.7514" stop-color="#CD2335"/>
<stop offset="1" stop-color="#E97826"/>
</linearGradient>
<clipPath id="clip0_3_1560">
<rect width="24" height="24" fill="white" transform="translate(0.310013 0.22998)"/>
</clipPath>
<clipPath id="clip1_3_1560">
<rect width="24" height="24" fill="white" transform="translate(0.310013 0.22998)"/>
</clipPath>
<clipPath id="clip2_3_1560">
<rect width="24" height="24" fill="white" transform="translate(0.310013 0.22998)"/>
</clipPath>
</defs>
</svg>
