<svg width="25" height="25" viewBox="0 0 25 25" fill="none" xmlns="http://www.w3.org/2000/svg">
<g clip-path="url(#clip0_3_1374)">
<g clip-path="url(#clip1_3_1374)">
<g clip-path="url(#clip2_3_1374)">
<path d="M0.660019 0.22998H24.66V24.23H0.660019V0.22998Z" fill="#F7DF1E"/>
<path d="M6.97057 20.2861L8.80717 19.1749C9.16117 19.8031 9.48457 20.3347 10.2574 20.3347C10.9983 20.3347 11.4651 20.0449 11.4651 18.9169V11.2477H13.7211V18.9481C13.7211 21.2851 12.3513 22.3477 10.3546 22.3477C8.54917 22.3477 7.50217 21.4141 6.97057 20.2861ZM14.9463 20.0437L16.7823 18.9811C17.2665 19.7707 17.8941 20.3509 19.0053 20.3509C19.9401 20.3509 20.5353 19.8829 20.5353 19.2391C20.5353 18.4657 19.9245 18.1921 18.8931 17.7409L18.3291 17.4991C16.7025 16.8061 15.6225 15.9361 15.6225 14.0989C15.6225 12.4087 16.9125 11.1187 18.9255 11.1187C20.3595 11.1187 21.3903 11.6191 22.1313 12.9241L20.3751 14.0521C19.9881 13.3591 19.5693 13.0849 18.9255 13.0849C18.2655 13.0849 17.8455 13.5037 17.8455 14.0521C17.8455 14.7277 18.2655 15.0019 19.2315 15.4219L19.7955 15.6619C21.7125 16.4839 22.7913 17.3221 22.7913 19.2067C22.7913 21.2371 21.1965 22.3477 19.0545 22.3477C16.9593 22.3477 15.6063 21.3499 14.9463 20.0449" fill="black"/>
</g>
</g>
</g>
<defs>
<clipPath id="clip0_3_1374">
<rect width="24" height="24" fill="white" transform="translate(0.660019 0.22998)"/>
</clipPath>
<clipPath id="clip1_3_1374">
<rect width="24" height="24" fill="white" transform="translate(0.660019 0.22998)"/>
</clipPath>
<clipPath id="clip2_3_1374">
<rect width="24" height="24" fill="white" transform="translate(0.660019 0.22998)"/>
</clipPath>
</defs>
</svg>
