<svg width="25" height="25" viewBox="0 0 25 25" fill="none" xmlns="http://www.w3.org/2000/svg">
<g clip-path="url(#clip0_3_1184)">
<g clip-path="url(#clip1_3_1184)">
<g clip-path="url(#clip2_3_1184)">
<path d="M7.07059 0.894096L7.05549 0.826172L6.99512 0.841266L7.07059 0.894096Z" fill="url(#paint0_linear_3_1184)"/>
<path d="M8.50453 21.8374L6.81396 22.177L7.15359 23.8751L8.84415 23.5355L8.50453 21.8374Z" fill="url(#paint1_linear_3_1184)"/>
<path d="M14.58 19.626L22.0593 18.1242L21.7196 16.4336L14.2404 17.9279L14.58 19.626Z" fill="url(#paint2_linear_3_1184)"/>
<path d="M11.5838 18.4641L11.9234 20.1547L13.6215 19.8151L13.2819 18.1245L11.5838 18.4641Z" fill="url(#paint3_linear_3_1184)"/>
<path d="M11.5008 22.9996L11.1612 21.3091L9.46304 21.6487L9.80267 23.3393L11.5008 22.9996Z" fill="url(#paint4_linear_3_1184)"/>
<path d="M6.61776 21.2187L8.31587 20.879L7.97625 19.1885L6.27814 19.5281L6.61776 21.2187Z" fill="url(#paint5_linear_3_1184)"/>
<path d="M22.2479 19.083L14.7687 20.5849L15.1083 22.2755L22.5875 20.7811L22.2479 19.083Z" fill="url(#paint6_linear_3_1184)"/>
<path d="M12.1196 21.1131L12.4593 22.8112L14.1498 22.4716L13.8102 20.7734L12.1196 21.1131Z" fill="url(#paint7_linear_3_1184)"/>
<path d="M9.27435 20.6901L10.9649 20.3505L10.6253 18.6523L8.93472 18.992L9.27435 20.6901Z" fill="url(#paint8_linear_3_1184)"/>
<path d="M6.08945 18.5694L6.80643 18.426L4.08945 4.86377L3.37247 5.00717L6.08945 18.5694Z" fill="url(#paint9_linear_3_1184)"/>
<path d="M7.07059 18.3733L7.78757 18.2299L4.87436 3.67139L4.15738 3.81478L7.07059 18.3733Z" fill="url(#paint10_linear_3_1184)"/>
<path d="M8.7536 18.0335L9.47058 17.8901L6.13474 1.26367L5.41776 1.40707L8.7536 18.0335Z" fill="url(#paint11_linear_3_1184)"/>
<path d="M9.73474 17.8376L10.4517 17.6942L7.39511 2.42627L6.67813 2.56967L9.73474 17.8376Z" fill="url(#paint12_linear_3_1184)"/>
<path d="M11.3951 17.5055L12.1121 17.3621L9.60642 4.85645L8.88943 4.99984L11.3951 17.5055Z" fill="url(#paint13_linear_3_1184)"/>
<path d="M12.3763 17.3091L13.0932 17.1657L10.497 4.18457L9.78003 4.32797L12.3763 17.3091Z" fill="url(#paint14_linear_3_1184)"/>
</g>
</g>
</g>
<defs>
<linearGradient id="paint0_linear_3_1184" x1="12.5045" y1="28.1857" x2="7.3186" y2="2.29599" gradientUnits="userSpaceOnUse">
<stop stop-color="#F9EC1C"/>
<stop offset="1" stop-color="#F05A2B"/>
</linearGradient>
<linearGradient id="paint1_linear_3_1184" x1="8.88789" y1="28.1431" x2="3.702" y2="2.25324" gradientUnits="userSpaceOnUse">
<stop stop-color="#F9EC1C"/>
<stop offset="1" stop-color="#F05A2B"/>
</linearGradient>
<linearGradient id="paint2_linear_3_1184" x1="19.7387" y1="25.9696" x2="14.5528" y2="0.0797298" gradientUnits="userSpaceOnUse">
<stop stop-color="#F9EC1C"/>
<stop offset="1" stop-color="#F05A2B"/>
</linearGradient>
<linearGradient id="paint3_linear_3_1184" x1="14.1938" y1="27.0806" x2="9.00792" y2="1.19076" gradientUnits="userSpaceOnUse">
<stop stop-color="#F9EC1C"/>
<stop offset="1" stop-color="#F05A2B"/>
</linearGradient>
<linearGradient id="paint4_linear_3_1184" x1="11.5409" y1="27.6116" x2="6.35497" y2="1.72183" gradientUnits="userSpaceOnUse">
<stop stop-color="#F9EC1C"/>
<stop offset="1" stop-color="#F05A2B"/>
</linearGradient>
<linearGradient id="paint5_linear_3_1184" x1="8.88791" y1="28.1432" x2="3.70202" y2="2.25336" gradientUnits="userSpaceOnUse">
<stop stop-color="#F9EC1C"/>
<stop offset="1" stop-color="#F05A2B"/>
</linearGradient>
<linearGradient id="paint6_linear_3_1184" x1="19.7386" y1="25.9699" x2="14.5528" y2="0.0800872" gradientUnits="userSpaceOnUse">
<stop stop-color="#F9EC1C"/>
<stop offset="1" stop-color="#F05A2B"/>
</linearGradient>
<linearGradient id="paint7_linear_3_1184" x1="14.1938" y1="27.0804" x2="9.0079" y2="1.19062" gradientUnits="userSpaceOnUse">
<stop stop-color="#F9EC1C"/>
<stop offset="1" stop-color="#F05A2B"/>
</linearGradient>
<linearGradient id="paint8_linear_3_1184" x1="11.5408" y1="27.6115" x2="6.35495" y2="1.72169" gradientUnits="userSpaceOnUse">
<stop stop-color="#F9EC1C"/>
<stop offset="1" stop-color="#F05A2B"/>
</linearGradient>
<linearGradient id="paint9_linear_3_1184" x1="8.29778" y1="27.7382" x2="3.37941" y2="3.1839" gradientUnits="userSpaceOnUse">
<stop stop-color="#F9EC1C"/>
<stop offset="1" stop-color="#F05A2B"/>
</linearGradient>
<linearGradient id="paint10_linear_3_1184" x1="9.41811" y1="28.2221" x2="4.13748" y2="1.85931" gradientUnits="userSpaceOnUse">
<stop stop-color="#F9EC1C"/>
<stop offset="1" stop-color="#F05A2B"/>
</linearGradient>
<linearGradient id="paint11_linear_3_1184" x1="11.3807" y1="29.2965" x2="5.34939" y2="-0.81386" gradientUnits="userSpaceOnUse">
<stop stop-color="#F9EC1C"/>
<stop offset="1" stop-color="#F05A2B"/>
</linearGradient>
<linearGradient id="paint12_linear_3_1184" x1="12.1784" y1="28.1702" x2="6.64163" y2="0.528609" gradientUnits="userSpaceOnUse">
<stop stop-color="#F9EC1C"/>
<stop offset="1" stop-color="#F05A2B"/>
</linearGradient>
<linearGradient id="paint13_linear_3_1184" x1="13.4596" y1="25.9537" x2="8.92518" y2="3.31641" gradientUnits="userSpaceOnUse">
<stop stop-color="#F9EC1C"/>
<stop offset="1" stop-color="#F05A2B"/>
</linearGradient>
<linearGradient id="paint14_linear_3_1184" x1="14.5089" y1="26.0831" x2="9.80081" y2="2.57834" gradientUnits="userSpaceOnUse">
<stop stop-color="#F9EC1C"/>
<stop offset="1" stop-color="#F05A2B"/>
</linearGradient>
<clipPath id="clip0_3_1184">
<rect width="24" height="24" fill="white" transform="translate(0.980011 0.22998)"/>
</clipPath>
<clipPath id="clip1_3_1184">
<rect width="24" height="24" fill="white" transform="translate(0.980011 0.22998)"/>
</clipPath>
<clipPath id="clip2_3_1184">
<rect width="19.9396" height="24" fill="white" transform="translate(3.01019 0.22998)"/>
</clipPath>
</defs>
</svg>
