<svg width="25" height="25" viewBox="0 0 25 25" fill="none" xmlns="http://www.w3.org/2000/svg">
<g clip-path="url(#clip0_3_1357)">
<g clip-path="url(#clip1_3_1357)">
<g clip-path="url(#clip2_3_1357)">
<path d="M6.6829 8.06304H11.7765V8.4655H7.14998V11.4978H11.5005V11.9012H7.14998V15.2307H11.83V15.6332H6.6829V8.06304ZM12.2334 8.06304H12.7743L15.1725 11.3926L17.6242 8.06304L20.9583 3.8335L15.4808 11.7415L18.3035 15.6332H17.7405L15.1725 12.0923L12.5934 15.6332H12.0423L14.8854 11.7415L12.2334 8.06304ZM18.5048 8.4655V8.06304H24.31V8.4655H21.6358V15.6332H21.1688V8.4655H18.5048ZM0.309982 8.06211H0.893367L8.9426 20.0492L5.61583 15.6332L0.797367 8.63534L0.777059 15.6332H0.309982V8.06211Z" fill="#5E5F60"/>
</g>
</g>
</g>
<defs>
<clipPath id="clip0_3_1357">
<rect width="24" height="24" fill="white" transform="translate(0.309982 0.22998)"/>
</clipPath>
<clipPath id="clip1_3_1357">
<rect width="24" height="24" fill="white" transform="translate(0.309982 0.22998)"/>
</clipPath>
<clipPath id="clip2_3_1357">
<rect width="24" height="24" fill="white" transform="translate(0.309982 0.22998)"/>
</clipPath>
</defs>
</svg>
