<svg width="25" height="25" viewBox="0 0 25 25" fill="none" xmlns="http://www.w3.org/2000/svg">
<g clip-path="url(#clip0_3_1463)">
<g clip-path="url(#clip1_3_1463)">
<g clip-path="url(#clip2_3_1463)">
<path d="M11.3214 0.534779C11.6237 0.367525 11.9636 0.279785 12.309 0.279785C12.6545 0.279785 12.9944 0.367525 13.2966 0.534779C16.3044 2.21778 19.3128 3.89778 22.3194 5.58198C22.8858 5.89698 23.2638 6.52098 23.2578 7.16598V17.2898C23.2614 17.9618 22.8468 18.6002 22.2498 18.908C19.2516 20.582 16.2564 22.2578 13.2594 23.9312C12.6486 24.2768 11.8536 24.251 11.2614 23.876C10.3638 23.36 9.46266 22.847 8.56446 22.3322C8.38086 22.223 8.17446 22.1372 8.04486 21.9608C8.15886 21.8078 8.36346 21.7892 8.53086 21.7208C8.90586 21.6038 9.25086 21.4142 9.59466 21.23C9.68166 21.1712 9.78786 21.194 9.87186 21.2462C10.6398 21.683 11.4018 22.1318 12.1728 22.5638C12.3378 22.658 12.5034 22.5338 12.6444 22.4558C15.5856 20.8088 18.5304 19.169 21.4716 17.522C21.524 17.4963 21.5674 17.4553 21.596 17.4044C21.6246 17.3535 21.6371 17.2951 21.6318 17.237C21.6348 13.8968 21.6324 10.5572 21.6336 7.21698C21.6389 7.15155 21.6235 7.08612 21.5896 7.02992C21.5557 6.97372 21.505 6.92959 21.4446 6.90378C18.4578 5.23878 15.4716 3.57018 12.4848 1.90398C12.4331 1.86913 12.3721 1.85052 12.3096 1.85052C12.2472 1.85052 12.1862 1.86913 12.1344 1.90398C9.14646 3.57018 6.16086 5.23998 3.17346 6.90618C3.1134 6.93135 3.0628 6.97482 3.02887 7.0304C2.99494 7.08598 2.9794 7.15085 2.98446 7.21578V17.24C2.97975 17.2979 2.99286 17.3558 3.02203 17.406C3.05121 17.4562 3.09505 17.4962 3.14766 17.5208C3.94446 17.969 4.74246 18.413 5.53986 18.8588C5.98986 19.0988 6.54066 19.241 7.03566 19.0568C7.25154 18.9772 7.43779 18.8332 7.56923 18.6444C7.70068 18.4555 7.77099 18.2309 7.77066 18.0008C7.77486 14.681 7.76886 11.36 7.77366 8.04018C7.76346 7.89318 7.90386 7.77018 8.04846 7.78518C8.43185 7.78116 8.81527 7.78116 9.19866 7.78518C9.35886 7.78218 9.46866 7.94118 9.44886 8.08878C9.44646 11.4308 9.45246 14.7722 9.44586 18.1142C9.44586 19.004 9.07686 19.9742 8.24586 20.4092C7.22046 20.9348 5.95386 20.8238 4.94166 20.3192C4.06566 19.886 3.22866 19.3748 2.36886 18.911C1.76946 18.6038 1.35666 17.9642 1.36086 17.291V7.16718C1.35486 6.50778 1.74786 5.87418 2.33046 5.56278L11.3208 0.535979L11.3214 0.534779Z" fill="#8CC84B"/>
<path d="M13.9375 7.5483C15.2443 7.4649 16.6435 7.4979 17.8195 8.1369C18.7303 8.6253 19.2355 9.6513 19.2511 10.6533C19.2253 10.7883 19.0831 10.8633 18.9535 10.8531C18.5731 10.8531 18.1945 10.8579 17.8153 10.8513C17.6545 10.8573 17.5603 10.7103 17.5405 10.5693C17.4313 10.0893 17.1673 9.6153 16.7125 9.3843C16.0123 9.0369 15.2023 9.0543 14.4385 9.0621C13.8823 9.0909 13.2835 9.1389 12.8113 9.4623C12.4495 9.7083 12.3391 10.2039 12.4681 10.6041C12.5905 10.8903 12.9241 10.9833 13.1983 11.0679C14.7733 11.4759 16.4425 11.4363 17.9881 11.9721C18.6283 12.1923 19.2535 12.6171 19.4725 13.2801C19.7581 14.1699 19.6321 15.2319 18.9943 15.9459C18.4765 16.5333 17.7223 16.8531 16.9693 17.0259C15.9691 17.2473 14.9293 17.2533 13.9135 17.1549C12.9583 17.0469 11.9635 16.7979 11.2255 16.1529C10.5955 15.6111 10.2853 14.7651 10.3171 13.9491C10.3243 13.8123 10.4623 13.7151 10.5961 13.7271C10.9783 13.7241 11.3593 13.7229 11.7415 13.7271C11.8945 13.7169 12.0073 13.8471 12.0151 13.9893C12.0853 14.4459 12.2593 14.9259 12.6613 15.1959C13.4371 15.6921 14.4115 15.6579 15.3001 15.6723C16.0363 15.6399 16.8631 15.6303 17.4631 15.1479C17.7805 14.8731 17.8741 14.4129 17.7895 14.0181C17.6965 13.6839 17.3431 13.5279 17.0401 13.4259C15.4855 12.9393 13.7971 13.1163 12.2575 12.5649C11.6323 12.3459 11.0275 11.9319 10.7875 11.2959C10.4521 10.3959 10.6063 9.2829 11.3113 8.5929C11.9995 7.9071 12.9925 7.6431 13.9375 7.5483Z" fill="#8CC84B"/>
</g>
</g>
</g>
<defs>
<clipPath id="clip0_3_1463">
<rect width="24" height="24" fill="white" transform="translate(0.310013 0.22998)"/>
</clipPath>
<clipPath id="clip1_3_1463">
<rect width="24" height="24" fill="white" transform="translate(0.310013 0.22998)"/>
</clipPath>
<clipPath id="clip2_3_1463">
<rect width="24" height="24" fill="white" transform="translate(0.310013 0.22998)"/>
</clipPath>
</defs>
</svg>
