<svg width="25" height="25" viewBox="0 0 25 25" fill="none" xmlns="http://www.w3.org/2000/svg">
<g clip-path="url(#clip0_3_1665)">
<g clip-path="url(#clip1_3_1665)">
<g clip-path="url(#clip2_3_1665)">
<path d="M24.66 24.23H0.659973V0.22998H24.66V24.23Z" fill="#00C3FF"/>
<path d="M24.66 24.23H12.66V0.22998H24.66V24.23Z" fill="#00AAF0"/>
<path d="M23.2537 22.8237H2.06622V1.63623H23.2537V22.8237Z" fill="#063E8B"/>
<path d="M23.2537 22.8237H12.66V1.63623H23.2537V22.8237Z" fill="#032E68"/>
<path d="M12.66 21.3414C12.0965 21.3414 11.5668 21.122 11.1684 20.7235L4.16644 13.7216C3.76801 13.3232 3.54858 12.7935 3.54858 12.23C3.54858 11.6666 3.76801 11.1369 4.16644 10.7385L11.1684 3.73651C11.5668 3.33807 12.0965 3.11865 12.66 3.11865C13.2234 3.11865 13.7531 3.33807 14.1515 3.73651L21.1535 10.7385C21.5519 11.1369 21.7713 11.6666 21.7713 12.23C21.7713 12.7935 21.5519 13.3232 21.1535 13.7216L14.1515 20.7235C13.7531 21.122 13.2234 21.3414 12.66 21.3414ZM12.66 4.5249C12.4721 4.5249 12.2956 4.59807 12.1628 4.73087L5.1608 11.7328C5.02801 11.8656 4.95483 12.0422 4.95483 12.23C4.95483 12.4179 5.02801 12.5944 5.1608 12.7272L12.1628 19.7292C12.2956 19.862 12.4721 19.9352 12.66 19.9352C12.8478 19.9352 13.0243 19.862 13.1572 19.7292L20.1591 12.7272C20.2919 12.5944 20.3651 12.4179 20.3651 12.23C20.3651 12.0422 20.2919 11.8657 20.1591 11.7328L13.1572 4.73087C13.0243 4.59807 12.8478 4.5249 12.66 4.5249Z" fill="#CCEFFF"/>
<path d="M21.1535 10.7385L14.1515 3.73651C13.7531 3.33807 13.2234 3.11865 12.66 3.11865V4.5249C12.8478 4.5249 13.0243 4.59807 13.1572 4.73087L20.1591 11.7328C20.2919 11.8656 20.3651 12.0422 20.3651 12.23C20.3651 12.4179 20.2919 12.5944 20.1591 12.7272L13.1572 19.7292C13.0244 19.862 12.8478 19.9352 12.66 19.9352V21.3414C13.2234 21.3414 13.7531 21.122 14.1515 20.7235L21.1535 13.7216C21.5519 13.3232 21.7713 12.7935 21.7713 12.23C21.7713 11.6666 21.5519 11.1369 21.1535 10.7385Z" fill="#ACE3FC"/>
<path d="M15.1452 14.8363C14.2381 14.8363 13.5927 14.4238 13.3677 14.2288L13.7427 13.5988C13.9827 13.7689 14.535 14.1163 15.1227 14.1163C15.5037 14.1163 15.7677 13.9566 15.7677 13.6813C15.7677 13.3434 15.2102 13.2339 14.9052 13.1488C14.6502 13.0789 13.5027 12.9176 13.5027 12.0538C13.5027 11.2223 14.2263 10.7563 15.0477 10.7563C15.91 10.7563 16.3702 11.1064 16.5852 11.2963L16.1802 11.9038C15.9802 11.7538 15.535 11.4688 15.0402 11.4688C14.6756 11.4688 14.4402 11.6246 14.4402 11.9113C14.4402 12.2691 15.0677 12.3714 15.2127 12.4063C15.4827 12.4764 16.7352 12.6676 16.7352 13.5913C16.7352 14.6832 15.6352 14.8363 15.1452 14.8363Z" fill="#00AAF0"/>
<path d="M9.08533 14.761V9.43604H11.3428C12.3761 9.43604 13.0378 10.3861 13.0378 11.206C13.0378 12.1725 12.3032 12.976 11.3803 12.976H10.1203V14.761H9.08533ZM10.1203 12.0685H11.3203C11.6834 12.0685 11.9878 11.7298 11.9878 11.206C11.9878 10.756 11.7146 10.3435 11.2753 10.3435H10.1203V12.0685Z" fill="#00C3FF"/>
<path d="M12.66 10.1162V12.3296C12.8965 12.0224 13.0379 11.6299 13.0379 11.2061C13.0379 10.8361 12.9027 10.4399 12.66 10.1162Z" fill="#00AAF0"/>
</g>
</g>
</g>
<defs>
<clipPath id="clip0_3_1665">
<rect width="24" height="24" fill="white" transform="translate(0.659973 0.22998)"/>
</clipPath>
<clipPath id="clip1_3_1665">
<rect width="24" height="24" fill="white" transform="translate(0.659973 0.22998)"/>
</clipPath>
<clipPath id="clip2_3_1665">
<rect width="24" height="24" fill="white" transform="translate(0.659973 0.22998)"/>
</clipPath>
</defs>
</svg>
