<svg width="25" height="25" viewBox="0 0 25 25" fill="none" xmlns="http://www.w3.org/2000/svg">
<g clip-path="url(#clip0_3_1470)">
<g clip-path="url(#clip1_3_1470)">
<g clip-path="url(#clip2_3_1470)">
<path d="M0.980011 17.892L2.78001 9.42478H6.94401C8.74401 9.52858 9.64401 10.365 9.64401 11.829C9.64401 14.3376 7.50621 15.801 5.59401 15.696H3.56721L3.11721 17.892H0.980011ZM4.01781 14.1288H5.36781C6.38121 14.0238 7.28121 13.7106 7.39401 11.934C7.39401 11.3058 6.83121 10.9926 6.04401 10.9926H4.58001L4.01781 14.1288ZM9.22581 15.696L11.0258 7.22998H13.1642L12.7142 9.42478H14.7392C16.5392 9.52858 17.2148 10.365 16.9892 11.4108L16.202 15.696H13.952L14.7392 11.829C14.852 11.3058 14.852 10.9926 14.0642 10.9926H12.3758L11.3642 15.696H9.22581ZM16.058 17.892L17.858 9.42478H22.022C23.822 9.52858 24.722 10.365 24.722 11.829C24.722 14.3376 22.5842 15.801 20.672 15.696H18.6458L18.1958 17.892H16.058ZM19.0958 14.1288H20.4458C21.4592 14.0238 22.3592 13.7106 22.472 11.934C22.472 11.3058 21.9092 10.9926 21.122 10.9926H19.6592L19.0958 14.1288Z" fill="#6983B5"/>
</g>
</g>
</g>
<defs>
<clipPath id="clip0_3_1470">
<rect width="24" height="24" fill="white" transform="translate(0.980011 0.22998)"/>
</clipPath>
<clipPath id="clip1_3_1470">
<rect width="24" height="24" fill="white" transform="translate(0.980011 0.22998)"/>
</clipPath>
<clipPath id="clip2_3_1470">
<rect width="24" height="24" fill="white" transform="translate(0.980011 0.22998)"/>
</clipPath>
</defs>
</svg>
