<svg width="25" height="25" viewBox="0 0 25 25" fill="none" xmlns="http://www.w3.org/2000/svg">
<g clip-path="url(#clip0_3_1438)">
<g clip-path="url(#clip1_3_1438)">
<g clip-path="url(#clip2_3_1438)">
<path d="M18.755 17.7016C18.9076 16.4298 18.8619 16.2433 19.8091 16.4494L20.0496 16.4705C20.778 16.5036 21.7308 16.3533 22.2906 16.0933C23.4956 15.5342 24.2101 14.6006 23.022 14.8459C20.3116 15.405 20.1253 14.4873 20.1253 14.4873C22.9872 10.2409 24.1836 4.85051 23.151 3.53105C20.3343 -0.0679551 15.4588 1.63393 15.3772 1.67812L15.3513 1.68292C14.8157 1.5718 14.2164 1.50541 13.5432 1.49453C12.3166 1.47438 11.386 1.81607 10.68 2.35154C10.68 2.35154 1.98235 -1.23179 2.38698 6.85793C2.47304 8.57884 4.85373 19.8798 7.69316 16.4664C8.73095 15.2182 9.73388 14.1629 9.73388 14.1629C10.2319 14.4937 10.8282 14.6625 11.4535 14.6019L11.5018 14.5606C11.4867 14.7156 11.4934 14.8672 11.5212 15.0466C10.7898 15.8639 11.0047 16.0074 9.54232 16.3084C8.06276 16.6134 8.932 17.1563 9.49937 17.2982C10.1874 17.4702 11.779 17.714 12.8548 16.2084L12.8119 16.3802C13.0989 16.6097 13.0795 18.0301 13.1201 19.0449C13.1609 20.0598 13.2288 21.0069 13.4357 21.5653C13.6426 22.1235 13.8867 23.5617 15.8086 23.1498C17.4149 22.8056 18.6431 22.3102 18.755 17.7016Z" fill="black" stroke="black" stroke-width="2.01509"/>
<path d="M23.0222 14.8454C20.3116 15.4045 20.1253 14.4868 20.1253 14.4868C22.9872 10.2401 24.1836 4.84961 23.1512 3.53032C20.3345 -0.0684738 15.4588 1.63352 15.3774 1.67771L15.3512 1.6824C14.8157 1.57123 14.2164 1.505 13.5428 1.49401C12.3163 1.47391 11.386 1.81555 10.68 2.35091C10.68 2.35091 1.98218 -1.23225 2.3867 6.85741C2.47276 8.57843 4.8534 19.8794 7.69293 16.466C8.73078 15.2178 9.73355 14.1624 9.73355 14.1624C10.2316 14.4933 10.8279 14.6621 11.4529 14.6015L11.5015 14.5602C11.4864 14.7152 11.4933 14.8668 11.521 15.0462C10.7894 15.8635 11.0044 16.007 9.54209 16.308C8.06243 16.613 8.93167 17.1559 9.4992 17.2978C10.1872 17.4698 11.779 17.7135 12.8545 16.208L12.8116 16.3798C13.0982 16.6093 13.2995 17.873 13.2657 19.0185C13.232 20.1641 13.2095 20.9505 13.4353 21.5648C13.6612 22.1791 13.8862 23.5613 15.8086 23.1494C17.4149 22.8052 18.2472 21.9132 18.363 20.4252C18.4452 19.3674 18.6312 19.5237 18.6429 18.578L18.7921 18.1302C18.9641 16.6963 18.8194 16.2337 19.809 16.4488L20.0495 16.47C20.7779 16.5031 21.7312 16.3528 22.2907 16.0928C23.4955 15.5336 24.21 14.6001 23.0221 14.8454H23.0222Z" fill="#336791"/>
<path d="M12.9709 15.6675C12.8962 18.3357 12.9896 21.0225 13.2507 21.6755C13.512 22.3285 14.071 23.5986 15.9935 23.1868C17.5997 22.8424 18.184 22.1761 18.4376 20.7052C18.6244 19.6231 18.9845 16.6178 19.0307 16.002" stroke="white" stroke-width="0.671697" stroke-linecap="round" stroke-linejoin="round"/>
<path d="M10.6666 2.29163C10.6666 2.29163 1.96284 -1.26572 2.36747 6.82395C2.45353 8.54497 4.83433 19.8463 7.67381 16.4327C8.71144 15.1844 9.64987 14.2053 9.64987 14.2053" stroke="white" stroke-width="0.671697" stroke-linecap="round" stroke-linejoin="round"/>
<path d="M15.3679 1.64223C15.0666 1.73669 20.2095 -0.237803 23.1322 3.49683C24.1646 4.81618 22.9682 10.2067 20.1063 14.4535" stroke="white" stroke-width="0.671697" stroke-linecap="round" stroke-linejoin="round"/>
<path d="M20.1063 14.4534C20.1063 14.4534 20.2928 15.3714 23.0034 14.8119C24.1911 14.5666 23.4763 15.5002 22.2718 16.0596C21.2832 16.5184 19.067 16.636 19.0308 16.002C18.9376 14.3663 20.1972 14.8632 20.1063 14.4534ZM20.1063 14.4534C20.0241 14.0842 19.4608 13.722 19.0882 12.8186C18.7629 12.03 14.6266 5.98315 20.2353 6.88121C20.4407 6.8387 18.7725 1.54637 13.5236 1.46031C8.27587 1.37426 8.44804 7.91383 8.44804 7.91383" stroke="white" stroke-width="0.671697" stroke-linecap="round" stroke-linejoin="bevel"/>
<path d="M11.5018 15.0131C10.7702 15.8303 10.9854 15.9738 9.52298 16.2749C8.04332 16.5799 8.91267 17.1227 9.48004 17.2645C10.1681 17.4367 11.7598 17.6804 12.8353 16.1745C13.1628 15.716 12.8334 14.9843 12.3835 14.7978C12.1661 14.7078 11.8754 14.595 11.5018 15.0131Z" stroke="white" stroke-width="0.671697" stroke-linecap="round" stroke-linejoin="round"/>
<path d="M11.4539 14.9988C11.3802 14.5183 11.6118 13.9465 11.86 13.2775C12.233 12.2738 13.0936 11.27 12.4052 8.08619C11.892 5.71363 8.45016 7.59243 8.448 7.91413C8.4459 8.23572 8.60368 9.54473 8.3905 11.0691C8.11234 13.0582 9.65618 14.7404 11.4339 14.5683" stroke="white" stroke-width="0.671697" stroke-linecap="round" stroke-linejoin="round"/>
<path d="M10.635 7.86557C10.6195 7.97544 10.8361 8.26864 11.1187 8.30781C11.4007 8.34715 11.6421 8.11803 11.6574 8.00826C11.6727 7.89839 11.4563 7.77736 11.1737 7.73802C10.8915 7.69863 10.65 7.75597 10.635 7.86557H10.635Z" fill="white" stroke="white" stroke-width="0.223897"/>
<path d="M19.2257 7.64192C19.241 7.75179 19.0246 8.04498 18.742 8.08416C18.4598 8.1235 18.2184 7.89437 18.2029 7.78461C18.188 7.67473 18.4044 7.5537 18.6868 7.51437C18.9691 7.47503 19.2104 7.53231 19.2257 7.64197V7.64192Z" fill="white" stroke="white" stroke-width="0.111949"/>
<path d="M20.2353 6.88135C20.2818 7.7432 20.0496 8.33024 20.0204 9.24771C19.977 10.5813 20.6562 12.1077 19.6329 13.6359" stroke="white" stroke-width="0.671697" stroke-linecap="round" stroke-linejoin="round"/>
</g>
</g>
</g>
<defs>
<clipPath id="clip0_3_1438">
<rect width="24" height="24" fill="white" transform="translate(0.980011 0.22998)"/>
</clipPath>
<clipPath id="clip1_3_1438">
<rect width="24" height="24" fill="white" transform="translate(0.980011 0.22998)"/>
</clipPath>
<clipPath id="clip2_3_1438">
<rect width="23.2827" height="24" fill="white" transform="translate(1.33868 0.22998)"/>
</clipPath>
</defs>
</svg>
