<svg width="25" height="25" viewBox="0 0 25 25" fill="none" xmlns="http://www.w3.org/2000/svg">
<g clip-path="url(#clip0_3_1509)">
<g clip-path="url(#clip1_3_1509)">
<g clip-path="url(#clip2_3_1509)">
<path fill-rule="evenodd" clip-rule="evenodd" d="M3.68204 20.5702V9.20014C3.68241 7.49905 4.18492 5.83593 5.12657 4.41925C6.06823 3.00257 7.40713 1.89538 8.97542 1.23648C10.5437 0.577582 12.2716 0.396293 13.9425 0.71534C15.6134 1.03439 17.153 1.83957 18.3682 3.02996C19.5834 4.22034 20.4201 5.74296 20.7735 7.40692C21.127 9.07089 20.9813 10.8022 20.3549 12.3837C19.7285 13.9653 18.6491 15.3267 17.2522 16.2974C15.8552 17.268 14.2028 17.8047 12.5021 17.8402C12.1814 17.8429 11.8633 17.7825 11.566 17.6623C11.2686 17.5421 10.9979 17.3646 10.7692 17.1398C10.3072 16.6857 10.0446 16.0668 10.039 15.4192C10.0335 14.7715 10.2854 14.1482 10.7395 13.6863C11.1935 13.2244 11.8124 12.9617 12.4601 12.9562C13.1961 12.9279 13.9077 12.6839 14.5061 12.2544C15.1045 11.8249 15.5635 11.2289 15.8258 10.5405C16.0881 9.8522 16.1423 9.10193 15.9815 8.38308C15.8207 7.66422 15.4521 7.00851 14.9215 6.49753C14.391 5.98655 13.7219 5.64286 12.9975 5.50923C12.2731 5.37559 11.5254 5.45791 10.8474 5.74594C10.1694 6.03397 9.5911 6.51499 9.18441 7.12916C8.77771 7.74333 8.56058 8.46352 8.56004 9.20014V21.7882C8.55927 22.2343 8.43631 22.6716 8.20451 23.0528C7.97272 23.4339 7.64094 23.7443 7.2452 23.9502C6.84946 24.1561 6.40488 24.2497 5.95971 24.2208C5.51455 24.1919 5.08581 24.0415 4.72004 23.7862C4.94198 23.7272 5.14959 23.6236 5.33022 23.4818C5.51084 23.3399 5.66071 23.1628 5.77068 22.9612C5.88065 22.7596 5.94844 22.5377 5.96989 22.3091C5.99135 22.0804 5.96604 21.8498 5.8955 21.6313C5.82496 21.4127 5.71067 21.2108 5.55959 21.0378C5.40851 20.8649 5.2238 20.7245 5.01671 20.6252C4.80963 20.5259 4.5845 20.4699 4.35504 20.4604C4.12558 20.4509 3.8966 20.4883 3.68204 20.5702ZM12.5021 17.0902C12.7324 17.1035 12.9629 17.0696 13.1796 16.9905C13.3963 16.9114 13.5946 16.7889 13.7622 16.6304C13.9298 16.4719 14.0633 16.2809 14.1543 16.0689C14.2454 15.857 14.2921 15.6287 14.2917 15.398C14.2913 15.1673 14.2438 14.9391 14.1519 14.7275C14.0601 14.5159 13.926 14.3253 13.7578 14.1674C13.5897 14.0095 13.391 13.8877 13.174 13.8094C12.957 13.7311 12.7263 13.698 12.4961 13.7122C12.0655 13.7378 11.661 13.927 11.3653 14.2409C11.0695 14.5548 10.9048 14.9698 10.9048 15.4012C10.9048 15.8325 11.0695 16.2475 11.3653 16.5614C11.661 16.8754 12.0655 17.0645 12.4961 17.0902H12.5021Z" fill="url(#paint0_linear_3_1509)"/>
</g>
</g>
</g>
<defs>
<linearGradient id="paint0_linear_3_1509" x1="12.3101" y1="0.56014" x2="12.3101" y2="15.3802" gradientUnits="userSpaceOnUse">
<stop stop-color="#D378E5"/>
<stop offset="1" stop-color="#7526C2"/>
</linearGradient>
<clipPath id="clip0_3_1509">
<rect width="24" height="24" fill="white" transform="translate(0.309967 0.22998)"/>
</clipPath>
<clipPath id="clip1_3_1509">
<rect width="24" height="24" fill="white" transform="translate(0.309967 0.22998)"/>
</clipPath>
<clipPath id="clip2_3_1509">
<rect width="24" height="24" fill="white" transform="translate(0.309967 0.22998)"/>
</clipPath>
</defs>
</svg>
