<svg width="25" height="25" viewBox="0 0 25 25" fill="none" xmlns="http://www.w3.org/2000/svg">
<g clip-path="url(#clip0_3_1174)">
<g clip-path="url(#clip1_3_1174)">
<g clip-path="url(#clip2_3_1174)">
<mask id="mask0_3_1174" style="mask-type:luminance" maskUnits="userSpaceOnUse" x="0" y="0" width="25" height="25">
<path d="M24.33 0.22998H0.330017V24.23H24.33V0.22998Z" fill="white"/>
</mask>
<g mask="url(#mask0_3_1174)">
<path d="M12.33 0.22998C9.14742 0.22998 6.09518 1.49426 3.84474 3.7447C1.5943 5.99514 0.330017 9.04738 0.330017 12.23C0.330017 15.4126 1.5943 18.4648 3.84474 20.7153C6.09518 22.9657 9.14742 24.23 12.33 24.23C15.5126 24.23 18.5648 22.9657 20.8153 20.7153C23.0657 18.4648 24.33 15.4126 24.33 12.23C24.33 9.04738 23.0657 5.99514 20.8153 3.7447C18.5648 1.49426 15.5126 0.22998 12.33 0.22998ZM12.33 22.688C10.446 22.688 8.91602 21.428 8.91602 19.874H15.744C15.744 21.434 14.214 22.694 12.33 22.694V22.688ZM17.97 18.944H6.69002V16.904H17.97V18.944ZM17.928 15.848H6.72002L6.61202 15.716C5.45402 14.318 5.18402 13.586 4.92002 12.836C4.92002 12.812 6.31802 13.124 7.32002 13.346C7.32002 13.346 7.83002 13.466 8.58002 13.604C7.85349 12.7673 7.4474 11.7 7.43402 10.592C7.43402 8.19198 9.27602 6.08598 8.61002 4.38798C9.25802 4.43598 9.94802 5.75598 9.99602 7.80798C10.686 6.85398 10.974 5.11998 10.974 4.05198C10.974 2.95398 11.7 1.66998 12.432 1.62798C11.778 2.69598 12.594 3.60798 13.32 5.88198C13.596 6.73398 13.56 8.16798 13.77 9.07998C13.842 7.18998 14.166 4.42998 15.366 3.47598C14.838 4.67598 15.444 6.17598 15.858 6.89598C16.53 8.06598 16.938 8.94798 16.938 10.616C16.938 11.714 16.542 12.776 15.828 13.616C16.2763 13.5309 16.7224 13.4348 17.166 13.328L19.74 12.83C19.74 12.83 19.368 14.366 17.928 15.848Z" fill="#E3703B"/>
</g>
</g>
</g>
</g>
<defs>
<clipPath id="clip0_3_1174">
<rect width="24" height="24" fill="white" transform="translate(0.330017 0.22998)"/>
</clipPath>
<clipPath id="clip1_3_1174">
<rect width="24" height="24" fill="white" transform="translate(0.330017 0.22998)"/>
</clipPath>
<clipPath id="clip2_3_1174">
<rect width="24" height="24" fill="white" transform="translate(0.330017 0.22998)"/>
</clipPath>
</defs>
</svg>
