<svg width="25" height="25" viewBox="0 0 25 25" fill="none" xmlns="http://www.w3.org/2000/svg">
<g clip-path="url(#clip0_3_1456)">
<g clip-path="url(#clip1_3_1456)">
<g clip-path="url(#clip2_3_1456)">
<path d="M12.54 0.22998C6.48 0.22998 6.84 2.86998 6.84 2.86998V5.62998H12.66V6.46998H4.56C4.56 6.46998 0.660004 6.04998 0.660004 12.17C0.660004 18.35 4.08 18.11 4.08 18.11H6.12V15.23C6.12 15.23 6 11.81 9.48 11.81H15.24C15.24 11.81 18.48 11.87 18.48 8.68998V3.40998C18.42 3.40998 18.9 0.22998 12.54 0.22998ZM9.36 2.08998C9.48 2.08998 9.66 2.08998 9.78 2.14998C9.9 2.20998 10.02 2.26998 10.14 2.38998C10.26 2.50998 10.32 2.62998 10.38 2.74998C10.44 2.86998 10.44 2.98998 10.44 3.16998C10.44 3.46998 10.32 3.70998 10.14 3.88998C9.96 4.06998 9.66 4.18998 9.42 4.18998C9.3 4.18998 9.12 4.18998 9 4.12998C8.88 4.06998 8.76 4.00998 8.64 3.88998C8.52 3.76998 8.46 3.64998 8.4 3.52998C8.34 3.40998 8.34 3.28998 8.34 3.10998C8.34 2.80998 8.46 2.56998 8.64 2.38998C8.82 2.20998 9.06 2.08998 9.36 2.08998Z" fill="#387EB8"/>
<path d="M12.7201 24.1698C18.7801 24.1698 18.4201 21.5298 18.4201 21.5298V18.7698H12.6001V17.9298H20.7001C20.7001 17.9298 24.6001 18.3498 24.6001 12.2298C24.6001 6.04982 21.1801 6.28982 21.1801 6.28982H19.1401V9.16982C19.1401 9.16982 19.2601 12.5898 15.7801 12.5898H10.0201C10.0201 12.5898 6.78012 12.5298 6.78012 15.7098V20.9898C6.90012 20.9298 6.36012 24.1698 12.7201 24.1698ZM15.9001 22.3098C15.7801 22.3098 15.6001 22.3098 15.4801 22.2498C15.3601 22.1898 15.2401 22.1298 15.1201 22.0098C15.0001 21.8898 14.9401 21.7698 14.8801 21.6498C14.8201 21.5298 14.8201 21.4098 14.8201 21.2298C14.8201 20.9298 14.9401 20.6898 15.1201 20.5098C15.3001 20.3298 15.6001 20.2098 15.8401 20.2098C15.9601 20.2098 16.1401 20.2098 16.2601 20.2698C16.3801 20.3298 16.5001 20.3898 16.6201 20.5098C16.7401 20.6298 16.8001 20.7498 16.8601 20.8698C16.9201 20.9898 16.9201 21.1098 16.9201 21.2898C16.9201 21.5898 16.8001 21.8298 16.6201 22.0098C16.4401 22.1898 16.2001 22.3098 15.9001 22.3098Z" fill="#FFC331"/>
</g>
</g>
</g>
<defs>
<clipPath id="clip0_3_1456">
<rect width="24" height="24" fill="white" transform="translate(0.660004 0.22998)"/>
</clipPath>
<clipPath id="clip1_3_1456">
<rect width="24" height="24" fill="white" transform="translate(0.660004 0.22998)"/>
</clipPath>
<clipPath id="clip2_3_1456">
<rect width="24" height="24" fill="white" transform="translate(0.660004 0.22998)"/>
</clipPath>
</defs>
</svg>
