<svg width="25" height="25" viewBox="0 0 25 25" fill="none" xmlns="http://www.w3.org/2000/svg">
<g clip-path="url(#clip0_3_1363)">
<g clip-path="url(#clip1_3_1363)">
<g clip-path="url(#clip2_3_1363)">
<mask id="mask0_3_1363" style="mask-type:luminance" maskUnits="userSpaceOnUse" x="0" y="0" width="25" height="25">
<path d="M24.98 0.22998H0.97998V24.23H24.98V0.22998Z" fill="white"/>
</mask>
<g mask="url(#mask0_3_1363)">
<path fill-rule="evenodd" clip-rule="evenodd" d="M19.9426 8.11219C20.2018 8.18899 20.4592 8.27299 20.7142 8.36299C23.3062 9.28279 24.982 10.7234 24.982 12.212C24.982 13.766 23.1922 15.284 20.44 16.2236C20.2948 16.274 20.146 16.3214 19.9936 16.3676C20.0476 16.5866 20.0956 16.8074 20.1388 17.0294C20.6812 19.8566 20.2636 22.181 18.976 22.949C17.7298 23.6918 15.715 22.9622 13.675 21.1532C13.453 20.9552 13.237 20.7524 13.0258 20.5424C12.859 20.7104 12.6916 20.8688 12.5254 21.0188C10.4193 22.9154 8.25693 23.7032 6.96813 22.9364C5.72073 22.1954 5.32893 20.0318 5.83053 17.3084C5.88453 17.0114 5.94813 16.7168 6.02013 16.4234C5.80176 16.3603 5.58527 16.2909 5.37093 16.2152C2.72373 15.2822 0.981934 13.7456 0.981934 12.2132C0.981934 10.7288 2.60493 9.29719 5.14593 8.38519C5.42973 8.28319 5.72613 8.18719 6.03333 8.09659C5.96776 7.8251 5.90894 7.55201 5.85693 7.27759C5.33013 4.50559 5.69913 2.28919 6.95133 1.54219C8.25573 0.763995 10.4283 1.60039 12.595 3.58339C12.73 3.70699 12.8626 3.83359 12.9928 3.96199C13.1872 3.76879 13.387 3.58039 13.591 3.39739C15.6586 1.54099 17.707 0.766395 18.958 1.50979C20.2636 2.28619 20.647 4.64359 20.0614 7.56919C20.0254 7.75099 19.9852 7.93219 19.9426 8.11219ZM19.7476 15.3512C19.8856 15.3092 20.0194 15.2654 20.1514 15.221C22.531 14.411 23.9968 13.1684 23.9968 12.2132C23.9968 11.3156 22.6402 10.1504 20.4148 9.36319C20.185 9.28039 19.9468 9.20239 19.7002 9.12919C19.378 10.183 18.9872 11.2147 18.5302 12.2174C19.0054 13.2338 19.4117 14.2807 19.7476 15.3512ZM19.2796 20.4992C19.4386 19.6154 19.4044 18.4844 19.1632 17.234H19.1644C19.1254 17.0337 19.082 16.8342 19.0342 16.6358C17.9626 16.8848 16.8742 17.0576 15.778 17.153C15.1657 18.0745 14.4924 18.9538 13.7626 19.7852C13.9648 19.985 14.1664 20.1752 14.3674 20.3522C16.1134 21.899 17.7346 22.4858 18.4924 22.034C18.8482 21.8222 19.1362 21.293 19.2796 20.4992ZM7.49373 22.0232C7.84893 22.2338 8.43933 22.2272 9.17853 21.9572H9.17973C10.0029 21.6572 10.9377 21.0626 11.8714 20.2238C12.0274 20.0834 12.1792 19.9388 12.3292 19.79C11.5848 18.9612 10.8954 18.0848 10.2651 17.1662C9.09993 17.0684 8.00913 16.9082 7.02513 16.6838C6.95913 16.9562 6.90153 17.2298 6.84933 17.5058C6.41973 19.835 6.73473 21.5732 7.49373 22.0232ZM2.90673 13.6838C3.57093 14.2682 4.53873 14.8034 5.71053 15.215V15.2162C5.90733 15.2846 6.10533 15.3482 6.30453 15.4064C6.63123 14.3259 7.02746 13.2677 7.49073 12.2384C7.03342 11.224 6.6424 10.181 6.32013 9.11599C6.04138 9.19642 5.76524 9.28567 5.49213 9.38359C3.31533 10.1636 2.00973 11.3132 2.00973 12.2132C2.00973 12.6368 2.31093 13.1582 2.90673 13.6838ZM7.47513 2.45719C6.72093 2.90719 6.42033 4.69939 6.87153 7.07539C6.92073 7.33039 6.97593 7.58419 7.03713 7.83739C8.0942 7.59543 9.16615 7.42385 10.2459 7.32379C10.8708 6.41077 11.5551 5.53988 12.2944 4.71679C12.1755 4.60074 12.0551 4.48633 11.9332 4.37359C10.0581 2.66239 8.28033 1.97839 7.47513 2.45719ZM16.513 8.47159C16.765 8.87839 17.0092 9.29119 17.2444 9.70879C17.4826 10.1318 17.7136 10.5614 17.935 10.9952C18.2398 10.2632 18.4978 9.54919 18.7048 8.86579C17.9813 8.69754 17.2497 8.56597 16.513 8.47159ZM14.4298 7.22839C13.9878 6.61932 13.5156 6.03278 13.015 5.47099C12.511 6.03291 12.0346 6.619 11.5876 7.22719C12.5344 7.18175 13.4829 7.18215 14.4298 7.22839ZM8.07933 10.9952C8.51277 10.1322 8.98526 9.28928 9.49533 8.46919C8.76305 8.56177 8.03577 8.69032 7.31613 8.85439C7.53633 9.57979 7.79133 10.2944 8.07933 10.9952ZM7.30113 15.6632C8.03294 15.8247 8.77277 15.9475 9.51753 16.031V16.0298C8.99945 15.2027 8.52033 14.3517 8.08173 13.4798C7.78676 14.1948 7.52586 14.9231 7.30113 15.6632ZM11.5972 17.2478C12.0501 17.8639 12.5326 18.4576 13.0432 19.0268V19.028C13.544 18.4571 14.0152 17.8609 14.455 17.2418C13.5028 17.2829 12.5494 17.2849 11.5972 17.2478ZM18.7528 15.6176C18.5209 14.8789 18.2513 14.1526 17.9452 13.4414C17.504 14.3184 17.025 15.1758 16.5094 16.0112C17.2636 15.9201 18.0125 15.7887 18.7528 15.6176ZM15.205 16.139C15.6093 15.5134 15.9937 14.8751 16.3576 14.225H16.3588C16.726 13.5694 17.0706 12.9014 17.392 12.2222C16.7441 10.8806 16.0108 9.58186 15.1966 8.33419C13.7378 8.2208 12.2724 8.2208 10.8135 8.33419C9.98762 9.57878 9.25636 10.8837 8.62593 12.2378C9.26109 13.5939 9.99653 14.9007 10.8261 16.1474C11.5276 16.1942 12.2542 16.2182 13.0042 16.2182C13.7548 16.2182 14.4916 16.1912 15.205 16.139ZM19.09 7.35499C19.5952 4.82839 19.282 2.90299 18.4768 2.42479C17.7208 1.97779 16.0624 2.60359 14.2876 4.19359C14.098 4.36159 13.9138 4.53679 13.7338 4.71499C14.4689 5.53822 15.148 6.40977 15.7666 7.32379C16.9006 7.43419 17.9842 7.60999 18.9814 7.84759C19.0204 7.68379 19.057 7.51879 19.09 7.35499Z" fill="#53C1DE"/>
<path d="M13.0034 10.004C14.1896 10.004 15.1496 10.9916 15.1496 12.212C15.1496 13.4324 14.1884 14.4206 13.0034 14.4206C11.8178 14.4206 10.856 13.4324 10.856 12.2126C10.856 10.9928 11.8172 10.004 13.0034 10.004Z" fill="#53C1DE"/>
</g>
</g>
</g>
</g>
<defs>
<clipPath id="clip0_3_1363">
<rect width="24" height="24" fill="white" transform="translate(0.97998 0.22998)"/>
</clipPath>
<clipPath id="clip1_3_1363">
<rect width="24" height="24" fill="white" transform="translate(0.97998 0.22998)"/>
</clipPath>
<clipPath id="clip2_3_1363">
<rect width="24" height="24" fill="white" transform="translate(0.97998 0.22998)"/>
</clipPath>
</defs>
</svg>
