<svg width="25" height="25" viewBox="0 0 25 25" fill="none" xmlns="http://www.w3.org/2000/svg">
<g clip-path="url(#clip0_3_1599)">
<g clip-path="url(#clip1_3_1599)">
<g clip-path="url(#clip2_3_1599)">
<mask id="mask0_3_1599" style="mask-type:luminance" maskUnits="userSpaceOnUse" x="0" y="0" width="25" height="25">
<path d="M24.31 0.22998H0.309982V24.23H24.31V0.22998Z" fill="white"/>
</mask>
<g mask="url(#mask0_3_1599)">
<path d="M20.9629 12.9699C20.2098 12.971 19.4669 13.1434 18.7903 13.4739C18.5665 13.0311 18.3433 12.6369 18.3043 12.3477C18.2599 12.0099 18.2071 11.8041 18.2599 11.4009C18.3127 10.9983 18.5491 10.4241 18.5449 10.3809C18.5401 10.3365 18.4921 10.1307 18.0103 10.1265C17.5285 10.1217 17.1121 10.2183 17.0641 10.3455C17.0161 10.4721 16.9237 10.7613 16.8625 11.0595C16.7791 11.4975 15.8983 13.0617 15.3949 13.8807C15.2329 13.5609 15.0925 13.2807 15.0619 13.0575C15.0181 12.7197 14.9653 12.5139 15.0181 12.1107C15.0703 11.7081 15.3067 11.1339 15.3025 11.0901C15.2983 11.0463 15.2503 10.8405 14.7685 10.8357C14.2861 10.8315 13.8697 10.9281 13.8217 11.0553C13.7737 11.1819 13.7209 11.4801 13.6201 11.7693C13.5193 12.0585 12.3499 14.6697 12.0433 15.3441C11.9193 15.6172 11.7893 15.8875 11.6533 16.1547C11.6533 16.1547 11.6485 16.1679 11.6353 16.1895C11.5525 16.3515 11.5045 16.4397 11.5045 16.4397V16.4439C11.4385 16.5621 11.3683 16.6719 11.3335 16.6719C11.3071 16.6719 11.2591 16.3563 11.3419 15.9267C11.5171 15.0201 11.9335 13.6095 11.9293 13.5609C11.9293 13.5345 12.0079 13.2897 11.6575 13.1625C11.3155 13.0353 11.1931 13.2459 11.1625 13.2459C11.1319 13.2459 11.1097 13.3203 11.1097 13.3203C11.1097 13.3203 11.4913 11.7339 10.3825 11.7339C9.69066 11.7339 8.73546 12.4923 8.26206 13.1757C7.96446 13.3377 7.32905 13.6839 6.64986 14.0559C6.39185 14.2005 6.12425 14.3451 5.87405 14.4813C5.85665 14.4633 5.83925 14.4417 5.82186 14.4243C4.48086 12.9915 2.00166 11.9793 2.10665 10.0563C2.14625 9.35491 2.38686 7.51531 6.86886 5.28031C10.5577 3.46231 13.4929 3.96631 14.0017 5.08351C14.7289 6.67831 12.4285 9.63991 8.61725 10.0695C7.16226 10.2315 6.40026 9.67051 6.20706 9.46051C6.00605 9.24151 5.97486 9.22831 5.90105 9.27211C5.77805 9.33811 5.85666 9.53491 5.90105 9.64891C6.01505 9.94651 6.48305 10.4721 7.27625 10.7307C7.97705 10.9587 9.68166 11.0859 11.7451 10.2885C14.0539 9.39451 15.8593 6.91051 15.3289 4.82971C14.7991 2.71771 11.2939 2.02111 7.97705 3.19951C6.00605 3.90091 3.86765 5.00491 2.32986 6.44191C0.502857 8.15011 0.214257 9.63571 0.331857 10.2579C0.757257 12.4659 3.80225 13.9029 5.02025 14.9679C4.95845 15.0027 4.90146 15.0333 4.85345 15.0597C4.24445 15.3615 1.92246 16.5753 1.34406 17.8593C0.687057 19.3137 1.44966 20.3565 1.95305 20.4963C3.51725 20.9301 5.12526 20.1501 5.98806 18.8625C6.85146 17.5743 6.74645 15.9009 6.34805 15.1341C6.34326 15.1251 6.33906 15.1161 6.33005 15.1077C6.48786 15.0159 6.64986 14.9193 6.80766 14.8275C7.11846 14.6433 7.42565 14.4723 7.68845 14.3319C7.53905 14.7399 7.42985 15.2259 7.37705 15.9267C7.31105 16.7505 7.64886 17.8197 8.09106 18.2403C8.28846 18.4239 8.52066 18.4287 8.66946 18.4287C9.18665 18.4287 9.41886 17.9991 9.67746 17.4909C9.99246 16.8687 10.2775 16.1457 10.2775 16.1457C10.2775 16.1457 9.92285 18.0999 10.8865 18.0999C11.2369 18.0999 11.5921 17.6439 11.7493 17.4123V17.4165C11.7493 17.4165 11.7583 17.4033 11.7757 17.3727L11.8327 17.2809V17.2719C11.9731 17.0265 12.2887 16.4703 12.7567 15.5457C13.3621 14.3541 13.9447 12.8643 13.9447 12.8643C13.9447 12.8643 13.9969 13.2279 14.1769 13.8327C14.2819 14.1879 14.5009 14.5773 14.6761 14.9547C14.5357 15.1515 14.4481 15.2607 14.4481 15.2607L14.4529 15.2655C14.3389 15.4143 14.2159 15.5763 14.0803 15.7341C13.6027 16.3041 13.0333 16.9563 12.9541 17.1447C12.8623 17.3685 12.8845 17.5305 13.0597 17.6619C13.1863 17.7579 13.4143 17.7711 13.6465 17.7579C14.0761 17.7279 14.3785 17.6223 14.5273 17.5569C14.7595 17.4729 15.0313 17.3469 15.2851 17.1579C15.7537 16.8117 16.0387 16.3167 16.0123 15.6639C15.9991 15.3045 15.8809 14.9457 15.7363 14.6079C15.7801 14.5467 15.8197 14.4855 15.8635 14.4243C16.6039 13.3419 17.1775 12.1545 17.1775 12.1545C17.1775 12.1545 17.2303 12.5181 17.4103 13.1229C17.4979 13.4295 17.6773 13.7625 17.8351 14.0871C17.1385 14.6523 16.7089 15.3093 16.5559 15.7383C16.2799 16.5363 16.4941 16.8951 16.9021 16.9785C17.0857 17.0181 17.3485 16.9305 17.5417 16.8465C17.7865 16.7685 18.0757 16.6323 18.3517 16.4307C18.8209 16.0845 19.2721 15.6027 19.2457 14.9499C19.2325 14.6523 19.1539 14.3583 19.0441 14.0739C19.6357 13.8279 20.3977 13.6923 21.3703 13.8063C23.4559 14.0523 23.8681 15.3531 23.7889 15.9003C23.7103 16.4481 23.2723 16.7463 23.1277 16.8381C22.9831 16.9305 22.9345 16.9611 22.9477 17.0265C22.9657 17.1225 23.0353 17.1189 23.1577 17.1009C23.3287 17.0709 24.2533 16.6587 24.2929 15.6507C24.3589 14.3631 23.1319 12.9567 20.9629 12.9699ZM4.87626 18.3939C4.18385 19.1469 3.22025 19.4319 2.80386 19.1907C2.35686 18.9327 2.53205 17.8197 3.38225 17.0223C3.89885 16.5363 4.56485 16.0845 5.00765 15.8085C5.10845 15.7473 5.25726 15.6597 5.43666 15.5505C5.46725 15.5325 5.48465 15.5241 5.48465 15.5241L5.59026 15.4581C5.90106 16.5975 5.60345 17.6007 4.87626 18.3939ZM9.91446 14.9679C9.67325 15.5547 9.16985 17.0571 8.86265 16.9743C8.59986 16.9041 8.43785 15.7647 8.81045 14.6391C8.99886 14.0739 9.39725 13.3989 9.62945 13.1361C10.0063 12.7155 10.4227 12.5751 10.5235 12.7461C10.6507 12.9699 10.0633 14.6001 9.91446 14.9679ZM14.0725 16.9563C13.9717 17.0091 13.8745 17.0439 13.8313 17.0181C13.8007 17.0001 13.8751 16.9305 13.8751 16.9305C13.8751 16.9305 14.3965 16.3695 14.6023 16.1151C14.7205 15.9663 14.8603 15.7911 15.0097 15.5937V15.6507C15.0097 16.3209 14.3623 16.7727 14.0725 16.9563ZM17.2789 16.2243C17.2045 16.1721 17.2177 15.9969 17.4673 15.4491C17.5639 15.2349 17.7913 14.8755 18.1813 14.5293C18.2257 14.6697 18.2563 14.8053 18.2515 14.9325C18.2473 15.7785 17.6425 16.0929 17.2789 16.2243Z" fill="#C16D97"/>
</g>
</g>
</g>
</g>
<defs>
<clipPath id="clip0_3_1599">
<rect width="24" height="24" fill="white" transform="translate(0.309982 0.22998)"/>
</clipPath>
<clipPath id="clip1_3_1599">
<rect width="24" height="24" fill="white" transform="translate(0.309982 0.22998)"/>
</clipPath>
<clipPath id="clip2_3_1599">
<rect width="24" height="24" fill="white" transform="translate(0.309982 0.22998)"/>
</clipPath>
</defs>
</svg>
