<svg width="57" height="57" viewBox="0 0 57 57" fill="none" xmlns="http://www.w3.org/2000/svg">
<g clip-path="url(#clip0_3_811)">
<g clip-path="url(#clip1_3_811)">
<g clip-path="url(#clip2_3_811)">
<path d="M56.5 0.22998H0.5V56.23H56.5V0.22998Z" fill="#C4C4C4" fill-opacity="0.01"/>
<path fill-rule="evenodd" clip-rule="evenodd" d="M16.6278 23.5249L28.4586 47.1877L8.57324 23.5249H16.6278Z" fill="#EA6C00"/>
<path fill-rule="evenodd" clip-rule="evenodd" d="M40.2921 23.5249L28.4613 47.1877L48.3467 23.5249H40.2921Z" fill="#EA6C00"/>
<path fill-rule="evenodd" clip-rule="evenodd" d="M16.627 23.5249H40.2885L28.4577 47.1877L16.627 23.5249Z" fill="#FDAD00"/>
<path fill-rule="evenodd" clip-rule="evenodd" d="M28.4577 10.4102L17.2496 11.6208L16.627 23.5241L28.4577 10.4102Z" fill="#FDD231"/>
<path fill-rule="evenodd" clip-rule="evenodd" d="M28.4583 10.4102L39.6664 11.6208L40.2891 23.5241L28.4583 10.4102Z" fill="#FDD231"/>
<path fill-rule="evenodd" clip-rule="evenodd" d="M48.3467 23.5248L39.6694 11.6216L40.2921 23.5248H48.3467Z" fill="#FDAD00"/>
<path fill-rule="evenodd" clip-rule="evenodd" d="M8.57324 23.5248L17.2505 11.6216L16.6278 23.5248H8.57324Z" fill="#FDAD00"/>
<path fill-rule="evenodd" clip-rule="evenodd" d="M28.4577 10.4102L16.627 23.5241H40.2885L28.4577 10.4102Z" fill="#FEEEB7"/>
</g>
</g>
</g>
<defs>
<clipPath id="clip0_3_811">
<rect width="56" height="56" fill="white" transform="translate(0.5 0.22998)"/>
</clipPath>
<clipPath id="clip1_3_811">
<rect width="56" height="56" fill="white" transform="translate(0.5 0.22998)"/>
</clipPath>
<clipPath id="clip2_3_811">
<rect width="56" height="56" fill="white" transform="translate(0.5 0.22998)"/>
</clipPath>
</defs>
</svg>
