<svg width="57" height="57" viewBox="0 0 57 57" fill="none" xmlns="http://www.w3.org/2000/svg">
<g clip-path="url(#clip0_3_651)">
<g clip-path="url(#clip1_3_651)">
<g clip-path="url(#clip2_3_651)">
<path d="M56.5 0.22998H0.5V56.23H56.5V0.22998Z" fill="#C4C4C4" fill-opacity="0.01"/>
<path d="M47.7783 18.5493C47.778 17.7204 47.6946 16.8937 47.5293 16.0816C47.3639 15.2501 47.0828 14.446 46.6941 13.6927C46.288 12.963 45.7832 12.2927 45.194 11.7008C44.5863 11.1063 43.8805 10.6211 43.1076 10.2669C42.3449 9.88227 41.5291 9.61353 40.6872 9.4695C39.852 9.30877 38.9349 9.30877 38.0997 9.22998H17.4978C16.8551 9.24044 16.2139 9.29414 15.5785 9.39071C14.9479 9.46495 14.3306 9.62616 13.7442 9.86975C13.5772 9.94854 13.3282 10.0305 13.1612 10.1093C12.6064 10.4067 12.0791 10.7526 11.5854 11.143C11.4184 11.3037 11.2513 11.3825 11.0843 11.5401C10.4701 12.1098 9.96211 12.7843 9.58415 13.5319C9.17139 14.2747 8.88892 15.0827 8.74898 15.9208C8.62478 16.7387 8.54168 17.5623 8.5 18.3885V37.421C8.50026 38.2498 8.58367 39.0765 8.74898 39.8887C8.91436 40.7201 9.19549 41.5242 9.58415 42.2776C9.99032 43.0073 10.4951 43.6775 11.0843 44.2694C11.692 44.864 12.3978 45.3491 13.1707 45.7034C13.9334 46.088 14.7491 46.3567 15.5911 46.5007C16.4263 46.6614 17.3434 46.6614 18.1785 46.7402H38.1029C38.9709 46.7396 39.837 46.6594 40.6904 46.5007C41.5323 46.3567 42.3481 46.088 43.1108 45.7034C43.8671 45.3206 44.5688 44.8384 45.1971 44.2694C45.8114 43.6997 46.3193 43.0252 46.6973 42.2776C47.11 41.5348 47.3925 40.7268 47.5325 39.8887C47.6567 39.0708 47.7398 38.2472 47.7814 37.421V18.5493H47.7783Z" fill="#F05138"/>
<path d="M34.7529 38.2279C31.2515 40.1598 26.439 40.3584 21.595 38.376C17.8182 36.8436 14.589 34.2117 12.3262 30.8216C13.3778 31.6266 14.5267 32.2958 15.7456 32.8135C20.7472 35.0511 25.7456 34.8967 29.266 32.8135C24.2549 29.1387 20.0003 24.3609 16.8298 20.4592C16.2041 19.7998 15.6457 19.0798 15.1626 18.3098C18.9949 21.6537 25.0901 25.8736 27.2584 27.0681C24.1625 23.896 21.3175 20.4883 18.7491 16.8759C23.0186 21.0249 27.7167 24.7087 32.7642 27.8655C32.988 27.9852 33.1613 28.0861 33.3 28.1806C33.448 27.8194 33.5753 27.4501 33.6814 27.0744C34.8506 23.012 33.5143 18.3949 30.5959 14.572C37.353 18.4706 41.3712 25.7949 39.6883 31.9279C39.6442 32.0949 39.5969 32.243 39.5465 32.4163L39.6063 32.4857C42.9439 36.4661 42.0268 40.6798 41.6076 39.8919C39.7954 36.4945 36.4453 37.544 34.7529 38.2279Z" fill="#FEFEFE"/>
</g>
</g>
</g>
<defs>
<clipPath id="clip0_3_651">
<rect width="56" height="56" fill="white" transform="translate(0.5 0.22998)"/>
</clipPath>
<clipPath id="clip1_3_651">
<rect width="56" height="56" fill="white" transform="translate(0.5 0.22998)"/>
</clipPath>
<clipPath id="clip2_3_651">
<rect width="56" height="56" fill="white" transform="translate(0.5 0.22998)"/>
</clipPath>
</defs>
</svg>
