<svg width="25" height="25" viewBox="0 0 25 25" fill="none" xmlns="http://www.w3.org/2000/svg">
<g clip-path="url(#clip0_3_1618)">
<g clip-path="url(#clip1_3_1618)">
<g clip-path="url(#clip2_3_1618)">
<path fill-rule="evenodd" clip-rule="evenodd" d="M5.09875 15.8667L3.88986 16.3255L3.82408 20.0612L8.00986 18.4735C6.5743 17.9723 5.52542 17.0916 5.09875 15.8667Z" fill="#FDBD39"/>
<path fill-rule="evenodd" clip-rule="evenodd" d="M5.73066 11.916L1.536 13.5093L3.88889 16.3265L5.09777 15.8677C4.672 14.6474 4.93511 13.2674 5.73066 11.917V11.916Z" fill="#F69833"/>
<path fill-rule="evenodd" clip-rule="evenodd" d="M12.7897 6.52721C7.44748 8.55337 4.00393 12.7349 5.09815 15.8669L24.4421 8.52845C23.3488 5.39645 18.131 4.50106 12.7897 6.52721Z" fill="#FECF33"/>
<path fill-rule="evenodd" clip-rule="evenodd" d="M16.7509 17.868C22.0931 15.8419 25.542 11.6788 24.4425 8.52832L5.0985 15.8668C6.19805 19.0173 11.4096 19.8951 16.7509 17.868Z" fill="#EE6723"/>
<path fill-rule="evenodd" clip-rule="evenodd" d="M24.4425 8.52832L5.0985 15.8668C5.47716 16.9514 6.92072 17.4859 8.94827 17.4859C10.9243 17.4859 13.4531 16.9782 16.0905 15.9785C21.4327 13.9514 25.1909 10.6708 24.4425 8.52832Z" fill="#F69833"/>
<path fill-rule="evenodd" clip-rule="evenodd" d="M20.5926 6.90918C18.6166 6.90918 16.0869 7.41687 13.4504 8.41656C8.10822 10.4437 4.35 13.7243 5.09755 15.8667L24.4424 8.52826C24.0638 7.44364 22.6193 6.90918 20.5926 6.90918Z" fill="#FDBD39"/>
<path fill-rule="evenodd" clip-rule="evenodd" d="M19.5238 20.2589C18.955 20.2589 18.115 19.7244 17.0278 18.6712C15.7416 17.426 14.2687 15.602 12.8803 13.5343C11.4918 11.4666 10.3505 9.40072 9.66697 7.71519C8.92297 5.87826 8.81631 4.74934 9.35142 4.35795C9.47509 4.27025 9.62215 4.22505 9.77186 4.22872C10.2074 4.22872 11.0554 4.56565 12.6243 6.16903L12.6581 6.20411L12.6536 6.25395L12.6243 6.60011L12.6065 6.82626L12.4527 6.66565C10.763 4.89703 10.019 4.70688 9.7772 4.70688C9.72007 4.7035 9.66332 4.71831 9.61453 4.74934C9.38342 4.91918 9.36742 5.74903 10.0892 7.52872C10.7603 9.18472 11.8847 11.2201 13.2563 13.2611C14.627 15.3011 16.0767 17.0983 17.3398 18.3223C18.7016 19.6414 19.3158 19.7835 19.5158 19.7835C19.5748 19.7863 19.6331 19.7702 19.683 19.7374C19.9283 19.5592 19.9283 18.6703 19.123 16.754L19.0874 16.6654L19.1674 16.6192C19.2483 16.5731 19.3274 16.5287 19.4003 16.4854L19.4972 16.4281L19.5416 16.5343C20.1123 17.8921 20.6456 19.6183 19.9461 20.1287C19.8218 20.2165 19.6741 20.2626 19.5238 20.2589Z" fill="#EE6723"/>
<path fill-rule="evenodd" clip-rule="evenodd" d="M16.8799 17.8109L16.8719 17.9152C16.7368 19.6506 16.3812 21.7368 15.4541 21.8217C15.4352 21.8235 15.4162 21.8244 15.3972 21.8245C14.767 21.8245 14.1705 20.8875 13.6256 19.0386C13.1101 17.2903 12.7101 14.9429 12.4985 12.4285C12.2879 9.91491 12.2905 7.52968 12.5074 5.71398C12.7439 3.73583 13.1936 2.70198 13.8443 2.64291C13.8641 2.64104 13.884 2.64011 13.9039 2.64014C14.3608 2.64014 15.0488 3.17737 15.7536 5.67983L15.2932 5.77214C15.0585 4.93583 14.8016 4.25552 14.5465 3.78752C14.3119 3.35552 14.0825 3.11829 13.9021 3.11829H13.8843C13.6025 3.14414 13.191 3.85491 12.9625 5.77306C12.7492 7.55644 12.7465 9.90475 12.9554 12.3869C13.1634 14.8691 13.5572 17.1814 14.0639 18.8983C14.2905 19.6672 14.5394 20.3014 14.7839 20.7315C15.0088 21.1285 15.2265 21.3463 15.3972 21.3463C15.4031 21.3465 15.4091 21.3465 15.415 21.3463C15.6843 21.3214 16.1928 20.582 16.407 17.9798L16.8799 17.8109Z" fill="#EE6723"/>
</g>
</g>
</g>
<defs>
<clipPath id="clip0_3_1618">
<rect width="24" height="24" fill="white" transform="translate(0.660019 0.22998)"/>
</clipPath>
<clipPath id="clip1_3_1618">
<rect width="24" height="24" fill="white" transform="translate(0.660019 0.22998)"/>
</clipPath>
<clipPath id="clip2_3_1618">
<rect width="24" height="24" fill="white" transform="translate(0.660019 0.22998)"/>
</clipPath>
</defs>
</svg>
