<svg width="82" height="81" viewBox="0 0 82 81" fill="none" xmlns="http://www.w3.org/2000/svg">
<g clip-path="url(#clip0_3_2120)">
<path d="M81.28 40.6699C81.28 18.5785 63.3714 0.669922 41.28 0.669922C19.1886 0.669922 1.28 18.5785 1.28 40.6699C1.28 62.7613 19.1886 80.6699 41.28 80.6699C63.3714 80.6699 81.28 62.7613 81.28 40.6699Z" fill="#F4F7FF"/>
<path d="M29.6133 52.3366H54.6133C55.5338 52.3366 56.28 53.0828 56.28 54.0032C56.28 54.9237 55.5338 55.6699 54.6133 55.6699H27.9467C27.0262 55.6699 26.28 54.9237 26.28 54.0032V27.3366C26.28 26.4161 27.0262 25.6699 27.9467 25.6699C28.8671 25.6699 29.6133 26.4161 29.6133 27.3366V52.3366Z" fill="#1B5BF7"/>
<path opacity="0.3" d="M35.8296 45.143C35.2 45.8145 34.1453 45.8485 33.4738 45.219C32.8022 44.5894 32.7682 43.5346 33.3978 42.8631L39.6478 36.1965C40.2566 35.5471 41.2684 35.4907 41.9455 36.0686L46.8784 40.278L53.3055 32.1369C53.8759 31.4144 54.9239 31.2912 55.6464 31.8616C56.3689 32.432 56.4922 33.48 55.9218 34.2025L48.4218 43.7025C47.836 44.4445 46.7509 44.5512 46.0318 43.9376L40.9917 39.6367L35.8296 45.143Z" fill="#1B5BF7"/>
</g>
<defs>
<clipPath id="clip0_3_2120">
<rect width="81" height="80" fill="white" transform="translate(0.779999 0.669922)"/>
</clipPath>
</defs>
</svg>
