<svg width="82" height="81" viewBox="0 0 82 81" fill="none" xmlns="http://www.w3.org/2000/svg">
<g clip-path="url(#clip0_3_2112)">
<path d="M81.09 40.6699C81.09 18.5785 63.1814 0.669922 41.09 0.669922C18.9986 0.669922 1.08997 18.5785 1.08997 40.6699C1.08997 62.7613 18.9986 80.6699 41.09 80.6699C63.1814 80.6699 81.09 62.7613 81.09 40.6699Z" fill="#F4F7FF"/>
<path fill-rule="evenodd" clip-rule="evenodd" d="M40.9478 44.2412L44.6212 40.5678C45.6357 39.5533 45.8873 38.0034 45.2456 36.7201L45.0375 36.3038C44.3958 35.0205 44.6473 33.4706 45.6619 32.4561L50.2166 27.9014C50.542 27.5759 51.0696 27.5759 51.3951 27.9014C51.4584 27.9647 51.5111 28.0378 51.5512 28.118L53.3911 31.7979C54.7987 34.6131 54.247 38.0131 52.0214 40.2387L42.0233 50.2367C39.6008 52.6593 36.0174 53.5052 32.7672 52.4218L28.743 51.0804C28.3064 50.9349 28.0705 50.463 28.216 50.0264C28.2569 49.9036 28.3258 49.7921 28.4173 49.7006L32.8361 45.2818C33.8506 44.2673 35.4005 44.0158 36.6838 44.6574L37.1001 44.8656C38.3834 45.5072 39.9333 45.2557 40.9478 44.2412Z" fill="#1B5BF7"/>
</g>
<defs>
<clipPath id="clip0_3_2112">
<rect width="81" height="80" fill="white" transform="translate(0.589966 0.669922)"/>
</clipPath>
</defs>
</svg>
