<svg width="82" height="81" viewBox="0 0 82 81" fill="none" xmlns="http://www.w3.org/2000/svg">
<g clip-path="url(#clip0_3_2129)">
<path d="M81.47 40.6699C81.47 18.5785 63.5614 0.669922 41.47 0.669922C19.3786 0.669922 1.47 18.5785 1.47 40.6699C1.47 62.7613 19.3786 80.6699 41.47 80.6699C63.5614 80.6699 81.47 62.7613 81.47 40.6699Z" fill="#F4F7FF"/>
<path opacity="0.3" fill-rule="evenodd" clip-rule="evenodd" d="M24.803 54.1702C24.803 54.9987 25.4746 55.6702 26.303 55.6702H56.6363C57.4648 55.6702 58.1363 54.9987 58.1363 54.1702V33.8369C58.1363 33.0085 57.4648 32.3369 56.6363 32.3369H38.1363L33.5757 27.7762C33.2944 27.4949 32.9128 27.3369 32.515 27.3369H26.303C25.4746 27.3369 24.803 28.0085 24.803 28.8369V54.1702Z" fill="#1B5BF7"/>
<path opacity="0.3" d="M45.386 38.1699C44.0448 38.1699 42.4762 39.6904 41.636 40.6699C40.7958 39.6904 39.2273 38.1699 37.886 38.1699C35.5118 38.1699 34.136 40.0217 34.136 42.3786C34.136 46.2949 41.636 50.6699 41.636 50.6699C41.636 50.6699 49.136 46.2949 49.136 42.5449C49.136 40.188 47.7602 38.1699 45.386 38.1699Z" fill="#1B5BF7"/>
</g>
<defs>
<clipPath id="clip0_3_2129">
<rect width="81" height="80" fill="white" transform="translate(0.970001 0.669922)"/>
</clipPath>
</defs>
</svg>
