<svg width="82" height="81" viewBox="0 0 82 81" fill="none" xmlns="http://www.w3.org/2000/svg">
<g clip-path="url(#clip0_3_2147)">
<path d="M80.84 40.6699C80.84 18.5785 62.9314 0.669922 40.84 0.669922C18.7486 0.669922 0.839996 18.5785 0.839996 40.6699C0.839996 62.7613 18.7486 80.6699 40.84 80.6699C62.9314 80.6699 80.84 62.7613 80.84 40.6699Z" fill="#F4F7FF"/>
<path d="M33.0454 29.5068C33.8155 29.0026 34.8485 29.2182 35.3527 29.9883C35.8569 30.7584 35.6413 31.7914 34.8712 32.2956C32.0648 34.133 30.3403 37.2529 30.3403 40.6691C30.3403 46.192 34.8175 50.6691 40.3403 50.6691C45.8632 50.6691 50.3403 46.192 50.3403 40.6691C50.3403 37.3283 48.6917 34.2686 45.9863 32.4141C45.227 31.8936 45.0335 30.8563 45.5539 30.0971C46.0743 29.3378 47.1117 29.1442 47.8709 29.6647C51.4737 32.1343 53.6737 36.2172 53.6737 40.6691C53.6737 48.0329 47.7041 54.0024 40.3403 54.0024C32.9765 54.0024 27.007 48.0329 27.007 40.6691C27.007 36.1166 29.3079 31.9537 33.0454 29.5068Z" fill="#1B5BF7"/>
<path opacity="0.3" d="M41.0063 25.6699H39.673C39.1207 25.6699 38.673 26.1176 38.673 26.6699V41.3366C38.673 41.8889 39.1207 42.3366 39.673 42.3366H41.0063C41.5586 42.3366 42.0063 41.8889 42.0063 41.3366V26.6699C42.0063 26.1176 41.5586 25.6699 41.0063 25.6699Z" fill="#1B5BF7"/>
</g>
<defs>
<clipPath id="clip0_3_2147">
<rect width="81" height="80" fill="white" transform="translate(0.339996 0.669922)"/>
</clipPath>
</defs>
</svg>
