<svg width="82" height="81" viewBox="0 0 82 81" fill="none" xmlns="http://www.w3.org/2000/svg">
<g clip-path="url(#clip0_3_2138)">
<path d="M80.66 40.6699C80.66 18.5785 62.7514 0.669922 40.66 0.669922C18.5686 0.669922 0.660004 18.5785 0.660004 40.6699C0.660004 62.7613 18.5686 80.6699 40.66 80.6699C62.7514 80.6699 80.66 62.7613 80.66 40.6699Z" fill="#F4F7FF"/>
<path opacity="0.3" fill-rule="evenodd" clip-rule="evenodd" d="M28.993 32.3366C28.993 36.0185 31.9778 39.0032 35.6597 39.0032C39.3416 39.0032 42.3263 36.0185 42.3263 32.3366C42.3263 28.6547 39.3416 25.6699 35.6597 25.6699C31.9778 25.6699 28.993 28.6547 28.993 32.3366ZM45.6597 39.0032C45.6597 41.7647 47.8983 44.0032 50.6597 44.0032C53.4211 44.0032 55.6597 41.7647 55.6597 39.0032C55.6597 36.2418 53.4211 34.0032 50.6597 34.0032C47.8983 34.0032 45.6597 36.2418 45.6597 39.0032Z" fill="#1B5BF7"/>
<path fill-rule="evenodd" clip-rule="evenodd" d="M35.6322 42.3369C27.7632 42.3369 21.3071 46.3811 20.6611 54.3356C20.6259 54.7689 21.4545 55.6702 21.8725 55.6702H49.4045C50.6565 55.6702 50.676 54.6627 50.6565 54.3369C50.1681 46.1589 43.612 42.3369 35.6322 42.3369ZM59.7533 55.6702H53.3271C53.3271 51.9187 52.0876 48.4566 49.9957 45.6713C55.6731 45.7334 60.3086 48.6039 60.6575 54.6702C60.6715 54.9146 60.6575 55.6702 59.7533 55.6702Z" fill="#1B5BF7"/>
</g>
<defs>
<clipPath id="clip0_3_2138">
<rect width="81" height="80" fill="white" transform="translate(0.160004 0.669922)"/>
</clipPath>
</defs>
</svg>
