<svg width="57" height="57" viewBox="0 0 57 57" fill="none" xmlns="http://www.w3.org/2000/svg">
<g clip-path="url(#clip0_3_1872)">
<g clip-path="url(#clip1_3_1872)">
<path d="M32.9768 18.7571C35.5541 18.7571 37.6434 16.6678 37.6434 14.0905C37.6434 11.5131 35.5541 9.42383 32.9768 9.42383C30.3994 9.42383 28.3101 11.5131 28.3101 14.0905C28.3101 16.6678 30.3994 18.7571 32.9768 18.7571Z" stroke="#1B5BF7" stroke-width="3.5" stroke-linecap="round" stroke-linejoin="round"/>
<path d="M9.64307 14.0898H28.3098" stroke="#1B5BF7" stroke-width="3.5" stroke-linecap="round" stroke-linejoin="round"/>
<path d="M37.6431 14.0898H46.9764" stroke="#1B5BF7" stroke-width="3.5" stroke-linecap="round" stroke-linejoin="round"/>
<path d="M18.9768 32.7571C21.5541 32.7571 23.6434 30.6678 23.6434 28.0905C23.6434 25.5131 21.5541 23.4238 18.9768 23.4238C16.3994 23.4238 14.3101 25.5131 14.3101 28.0905C14.3101 30.6678 16.3994 32.7571 18.9768 32.7571Z" stroke="#1B5BF7" stroke-width="3.5" stroke-linecap="round" stroke-linejoin="round"/>
<path d="M9.64307 28.0898H14.3098" stroke="#1B5BF7" stroke-width="3.5" stroke-linecap="round" stroke-linejoin="round"/>
<path d="M23.6431 28.0898H46.9764" stroke="#1B5BF7" stroke-width="3.5" stroke-linecap="round" stroke-linejoin="round"/>
<path d="M39.9768 46.7571C42.5541 46.7571 44.6434 44.6678 44.6434 42.0905C44.6434 39.5131 42.5541 37.4238 39.9768 37.4238C37.3994 37.4238 35.3101 39.5131 35.3101 42.0905C35.3101 44.6678 37.3994 46.7571 39.9768 46.7571Z" stroke="#1B5BF7" stroke-width="3.5" stroke-linecap="round" stroke-linejoin="round"/>
<path d="M9.64307 42.0898H35.3098" stroke="#1B5BF7" stroke-width="3.5" stroke-linecap="round" stroke-linejoin="round"/>
<path d="M44.6431 42.0898H46.9764" stroke="#1B5BF7" stroke-width="3.5" stroke-linecap="round" stroke-linejoin="round"/>
</g>
</g>
<defs>
<clipPath id="clip0_3_1872">
<rect width="56" height="56" fill="white" transform="translate(0.310059 0.0898438)"/>
</clipPath>
<clipPath id="clip1_3_1872">
<rect width="56" height="56" fill="white" transform="translate(0.310059 0.0898438)"/>
</clipPath>
</defs>
</svg>
