<svg width="57" height="57" viewBox="0 0 57 57" fill="none" xmlns="http://www.w3.org/2000/svg">
<g clip-path="url(#clip0_3_1886)">
<g clip-path="url(#clip1_3_1886)">
<g clip-path="url(#clip2_3_1886)">
<path d="M56.3101 1.51367H0.310059V54.6662H56.3101V1.51367Z" fill="#C4C4C4" fill-opacity="0.01"/>
<path opacity="0.3" fill-rule="evenodd" clip-rule="evenodd" d="M41.1818 8.84833H22.5371V39.8116H41.1818V8.84833ZM22.5371 6.25977C21.0091 6.25977 19.7704 7.41874 19.7704 8.84833V39.8116C19.7704 41.2413 21.0091 42.4003 22.5371 42.4003H41.1818C42.7098 42.4003 43.9484 41.2413 43.9484 39.8116V8.84833C43.9484 7.41874 42.7098 6.25977 41.1818 6.25977H22.5371Z" fill="#1B5BF7"/>
<path d="M6.30899 18.0082C6.30899 15.1489 8.78631 12.8311 11.8423 12.8311H25.3561C28.412 12.8311 30.8894 15.1489 30.8894 18.0082V43.7944C30.8894 46.6535 28.412 48.9715 25.3561 48.9715H11.8423C8.78631 48.9715 6.30899 46.6535 6.30899 43.7944V18.0082Z" fill="white" fill-opacity="0.01"/>
<path fill-rule="evenodd" clip-rule="evenodd" d="M25.3561 15.4196H11.8423C10.3143 15.4196 9.07561 16.5786 9.07561 18.0082V43.7944C9.07561 45.2239 10.3143 46.3829 11.8423 46.3829H25.3561C26.884 46.3829 28.1228 45.2239 28.1228 43.7944V18.0082C28.1228 16.5786 26.884 15.4196 25.3561 15.4196ZM11.8423 12.8311C8.78631 12.8311 6.30899 15.1489 6.30899 18.0082V43.7944C6.30899 46.6535 8.78631 48.9715 11.8423 48.9715H25.3561C28.412 48.9715 30.8894 46.6535 30.8894 43.7944V18.0082C30.8894 15.1489 28.412 12.8311 25.3561 12.8311H11.8423Z" fill="#1B5BF7"/>
<path fill-rule="evenodd" clip-rule="evenodd" d="M23.2816 44.5905H14.5028V42.002H23.2816V44.5905Z" fill="#1B5BF7"/>
<path fill-rule="evenodd" clip-rule="evenodd" d="M25.501 27.2678C24.2953 28.9323 22.6167 31.2491 19.2922 31.2491V28.6605C21.0397 28.6605 21.9465 27.5562 23.3177 25.6681C23.3524 25.6204 23.3874 25.5722 23.4228 25.5232C24.6285 23.8589 26.307 21.542 29.6316 21.542C32.9561 21.542 34.6346 23.8589 35.8403 25.5232C35.8758 25.5722 35.9107 25.6204 35.9453 25.6681C37.3166 27.5562 38.2234 28.6605 39.9709 28.6605C41.7184 28.6605 42.6253 27.5562 43.9963 25.6681C44.0311 25.6204 44.066 25.5722 44.1014 25.5232C45.3072 23.8589 46.9857 21.542 50.3102 21.542V24.1305C48.5627 24.1305 47.6559 25.2349 46.2847 27.123C46.2501 27.1707 46.2152 27.219 46.1798 27.2678C44.9739 28.9323 43.2955 31.2491 39.9709 31.2491C36.6464 31.2491 34.9679 28.9323 33.7621 27.2678C33.7267 27.219 33.6917 27.1707 33.657 27.123C32.2859 25.2349 31.3791 24.1305 29.6316 24.1305C27.884 24.1305 26.9772 25.2349 25.606 27.123C25.5714 27.1707 25.5364 27.219 25.501 27.2678Z" fill="#1B5BF7"/>
</g>
</g>
</g>
<defs>
<clipPath id="clip0_3_1886">
<rect width="56" height="56" fill="white" transform="translate(0.310059 0.0898438)"/>
</clipPath>
<clipPath id="clip1_3_1886">
<rect width="56" height="56" fill="white" transform="translate(0.310059 0.0898438)"/>
</clipPath>
<clipPath id="clip2_3_1886">
<rect width="56" height="53.1525" fill="white" transform="translate(0.310059 1.51367)"/>
</clipPath>
</defs>
</svg>
