<svg width="253" height="50" viewBox="0 0 253 50" fill="none" xmlns="http://www.w3.org/2000/svg">
<g clip-path="url(#clip0_3_1846)">
<g clip-path="url(#clip1_3_1846)">
<g clip-path="url(#clip2_3_1846)">
<path d="M18.75 3.11012C23.486 3.11012 27.6247 4.07012 31.166 5.99012C34.75 7.86745 37.502 10.5128 39.422 13.9261C41.342 17.3394 42.302 21.2434 42.302 25.6381C42.302 29.9901 41.3207 33.8728 39.358 37.2861C37.438 40.6994 34.686 43.3874 31.102 45.3501C27.5607 47.2701 23.4433 48.2301 18.75 48.2301H0.893997V3.11012H18.75ZM17.79 37.1581C21.4593 37.1581 24.3393 36.1554 26.43 34.1501C28.5207 32.1448 29.566 29.3074 29.566 25.6381C29.566 21.9261 28.5207 19.0674 26.43 17.0621C24.3393 15.0141 21.4593 13.9901 17.79 13.9901H13.438V37.1581H17.79ZM82.2605 29.8621C82.2605 30.8434 82.1965 31.8248 82.0685 32.8061H58.3245C58.4525 34.7688 58.9858 36.2408 59.9245 37.2221C60.9058 38.1608 62.1432 38.6301 63.6365 38.6301C65.7272 38.6301 67.2205 37.6914 68.1165 35.8141H81.4925C80.9378 38.2888 79.8498 40.5074 78.2285 42.4701C76.6498 44.3901 74.6445 45.9048 72.2125 47.0141C69.7805 48.1234 67.0925 48.6781 64.1485 48.6781C60.6072 48.6781 57.4498 47.9314 54.6765 46.4381C51.9458 44.9448 49.7912 42.8114 48.2125 40.0381C46.6765 37.2648 45.9085 34.0008 45.9085 30.2461C45.9085 26.4914 46.6765 23.2488 48.2125 20.5181C49.7485 17.7448 51.8818 15.6114 54.6125 14.1181C57.3858 12.6248 60.5645 11.8781 64.1485 11.8781C67.6898 11.8781 70.8258 12.6034 73.5565 14.0541C76.2872 15.5048 78.4205 17.5954 79.9565 20.3261C81.4925 23.0141 82.2605 26.1928 82.2605 29.8621ZM69.4605 26.7261C69.4605 25.1901 68.9485 23.9954 67.9245 23.1421C66.9005 22.2461 65.6205 21.7981 64.0845 21.7981C62.5485 21.7981 61.2898 22.2248 60.3085 23.0781C59.3272 23.8888 58.6872 25.1048 58.3885 26.7261H69.4605ZM99.938 0.870117V48.2301H87.394V0.870117H99.938ZM141.386 29.8621C141.386 30.8434 141.322 31.8248 141.194 32.8061H117.45C117.578 34.7688 118.111 36.2408 119.05 37.2221C120.031 38.1608 121.268 38.6301 122.762 38.6301C124.852 38.6301 126.346 37.6914 127.242 35.8141H140.618C140.063 38.2888 138.975 40.5074 137.354 42.4701C135.775 44.3901 133.77 45.9048 131.338 47.0141C128.906 48.1234 126.218 48.6781 123.274 48.6781C119.732 48.6781 116.575 47.9314 113.802 46.4381C111.071 44.9448 108.916 42.8114 107.338 40.0381C105.802 37.2648 105.034 34.0008 105.034 30.2461C105.034 26.4914 105.802 23.2488 107.338 20.5181C108.874 17.7448 111.007 15.6114 113.738 14.1181C116.511 12.6248 119.69 11.8781 123.274 11.8781C126.815 11.8781 129.951 12.6034 132.682 14.0541C135.412 15.5048 137.546 17.5954 139.082 20.3261C140.618 23.0141 141.386 26.1928 141.386 29.8621ZM128.586 26.7261C128.586 25.1901 128.074 23.9954 127.05 23.1421C126.026 22.2461 124.746 21.7981 123.21 21.7981C121.674 21.7981 120.415 22.2248 119.434 23.0781C118.452 23.8888 117.812 25.1048 117.514 26.7261H128.586ZM163.735 36.3901L170.455 12.3261H183.831L171.479 48.2301H155.863L143.511 12.3261H156.887L163.735 36.3901ZM222.386 29.8621C222.386 30.8434 222.322 31.8248 222.194 32.8061H198.45C198.578 34.7688 199.111 36.2408 200.05 37.2221C201.031 38.1608 202.268 38.6301 203.762 38.6301C205.852 38.6301 207.346 37.6914 208.242 35.8141H221.618C221.063 38.2888 219.975 40.5074 218.354 42.4701C216.775 44.3901 214.77 45.9048 212.338 47.0141C209.906 48.1234 207.218 48.6781 204.274 48.6781C200.732 48.6781 197.575 47.9314 194.802 46.4381C192.071 44.9448 189.916 42.8114 188.338 40.0381C186.802 37.2648 186.034 34.0008 186.034 30.2461C186.034 26.4914 186.802 23.2488 188.338 20.5181C189.874 17.7448 192.007 15.6114 194.738 14.1181C197.511 12.6248 200.69 11.8781 204.274 11.8781C207.815 11.8781 210.951 12.6034 213.682 14.0541C216.412 15.5048 218.546 17.5954 220.082 20.3261C221.618 23.0141 222.386 26.1928 222.386 29.8621ZM209.586 26.7261C209.586 25.1901 209.074 23.9954 208.05 23.1421C207.026 22.2461 205.746 21.7981 204.21 21.7981C202.674 21.7981 201.415 22.2248 200.434 23.0781C199.452 23.8888 198.812 25.1048 198.514 26.7261H209.586ZM240.063 18.6621C241.471 16.6141 243.178 14.9928 245.183 13.7981C247.188 12.6034 249.343 12.0061 251.647 12.0061V25.3821H248.127C245.396 25.3821 243.37 25.9154 242.047 26.9821C240.724 28.0488 240.063 29.9048 240.063 32.5501V48.2301H227.519V12.3261H240.063V18.6621Z" fill="#FF5722"/>
</g>
</g>
</g>
<defs>
<clipPath id="clip0_3_1846">
<rect width="252" height="49" fill="white" transform="translate(0.309998 0.22998)"/>
</clipPath>
<clipPath id="clip1_3_1846">
<rect width="252" height="49" fill="white" transform="translate(0.309998 0.22998)"/>
</clipPath>
<clipPath id="clip2_3_1846">
<rect width="252" height="49" fill="white" transform="translate(0.309998 0.22998)"/>
</clipPath>
</defs>
</svg>
