<svg width="36" height="36" viewBox="0 0 36 36" fill="none" xmlns="http://www.w3.org/2000/svg">
<g clip-path="url(#clip0_3_356)">
<g clip-path="url(#clip1_3_356)">
<path d="M17.0659 24.1602C17.6127 24.5949 18.3871 24.5947 18.9336 24.1596L28.7333 16.3582L29.6432 15.6377C30.4005 15.038 30.4018 13.8891 29.6457 13.2878L18.9337 4.7684C18.3871 4.33371 17.6129 4.33371 17.0663 4.7684L6.34983 13.2914C5.59515 13.8916 5.59466 15.0377 6.34883 15.6385L7.25208 16.3582L17.0659 24.1602Z" fill="#1B5BF7"/>
<path opacity="0.3" fill-rule="evenodd" clip-rule="evenodd" d="M18.9183 27.9481C18.3718 28.3828 17.5977 28.3828 17.0512 27.9483L8.28445 20.9787C7.70806 20.5205 6.86831 20.6218 6.41746 21.204C5.96874 21.7834 6.0773 22.6174 6.65942 23.0626L17.0859 31.0373C17.6237 31.4486 18.3704 31.4487 18.9083 31.0375L29.33 23.0694C29.9171 22.6206 30.0263 21.7795 29.5733 21.1956C29.1187 20.6097 28.2731 20.5081 27.6927 20.9697L18.9183 27.9481Z" fill="#1B5BF7"/>
</g>
</g>
<defs>
<clipPath id="clip0_3_356">
<rect width="35" height="35" fill="white" transform="translate(0.5 0.380005)"/>
</clipPath>
<clipPath id="clip1_3_356">
<rect width="35" height="35" fill="white" transform="translate(0.5 0.380005)"/>
</clipPath>
</defs>
</svg>
