<svg width="36" height="36" viewBox="0 0 36 36" fill="none" xmlns="http://www.w3.org/2000/svg">
<g clip-path="url(#clip0_3_346)">
<g clip-path="url(#clip1_3_346)">
<g clip-path="url(#clip2_3_346)">
<path fill-rule="evenodd" clip-rule="evenodd" d="M3.60699 7.57162C3.60699 10.7933 6.21866 13.405 9.44033 13.405C12.662 13.405 15.2737 10.7933 15.2737 7.57162C15.2737 4.34995 12.662 1.73828 9.44033 1.73828C6.21866 1.73828 3.60699 4.34995 3.60699 7.57162ZM12.3572 7.57162C12.3572 9.18245 11.0514 10.4883 9.44052 10.4883C7.82969 10.4883 6.52385 9.18245 6.52385 7.57162C6.52385 5.96079 7.82969 4.65495 9.44052 4.65495C11.0514 4.65495 12.3572 5.96079 12.3572 7.57162Z" fill="#1B5BF7"/>
<path opacity="0.3" fill-rule="evenodd" clip-rule="evenodd" d="M22.5653 14.8633V17.78H13.8153C12.7528 17.78 11.7567 17.4959 10.8987 16.9996V25.0717C10.8987 26.6825 12.2045 27.9883 13.8153 27.9883H22.5653V30.905H13.8153C10.5937 30.905 7.98199 28.2933 7.98199 25.0717V11.2175V10.4883H10.8987V11.9466C10.8987 13.5575 12.2045 14.8633 13.8153 14.8633H22.5653Z" fill="#1B5BF7"/>
<path fill-rule="evenodd" clip-rule="evenodd" d="M21.107 29.4466C21.107 32.6683 23.7187 35.28 26.9403 35.28C30.162 35.28 32.7737 32.6683 32.7737 29.4466C32.7737 26.225 30.162 23.6133 26.9403 23.6133C23.7187 23.6133 21.107 26.225 21.107 29.4466ZM29.8572 29.4466C29.8572 31.0575 28.5514 32.3633 26.9405 32.3633C25.3297 32.3633 24.0239 31.0575 24.0239 29.4466C24.0239 27.8358 25.3297 26.53 26.9405 26.53C28.5514 26.53 29.8572 27.8358 29.8572 29.4466Z" fill="#1B5BF7"/>
<path fill-rule="evenodd" clip-rule="evenodd" d="M21.107 16.3216C21.107 19.5433 23.7187 22.155 26.9403 22.155C30.162 22.155 32.7737 19.5433 32.7737 16.3216C32.7737 13.1 30.162 10.4883 26.9403 10.4883C23.7187 10.4883 21.107 13.1 21.107 16.3216ZM29.8572 16.3216C29.8572 17.9325 28.5514 19.2383 26.9405 19.2383C25.3297 19.2383 24.0239 17.9325 24.0239 16.3216C24.0239 14.7108 25.3297 13.405 26.9405 13.405C28.5514 13.405 29.8572 14.7108 29.8572 16.3216Z" fill="#1B5BF7"/>
</g>
</g>
</g>
<defs>
<clipPath id="clip0_3_346">
<rect width="35" height="35" fill="white" transform="translate(0.690002 0.280029)"/>
</clipPath>
<clipPath id="clip1_3_346">
<rect width="35" height="35" fill="white" transform="translate(0.690002 0.280029)"/>
</clipPath>
<clipPath id="clip2_3_346">
<rect width="35" height="35" fill="white" transform="translate(0.690002 0.280029)"/>
</clipPath>
</defs>
</svg>
