<svg width="170" height="65" viewBox="0 0 170 65" fill="none" xmlns="http://www.w3.org/2000/svg">
<g clip-path="url(#clip0_3_2028)">
<g clip-path="url(#clip1_3_2028)">
<g clip-path="url(#clip2_3_2028)">
<path d="M2.76751 57.1712V60.1357H6.31038V61.0706H2.76751V64.7155H1.60059V56.2363H6.91188V57.1712H2.76751Z" fill="#01CAB0"/>
<path d="M12.1066 61.5676L10.7532 58.1179C10.7131 58.0154 10.671 57.897 10.6269 57.7629C10.5828 57.6249 10.5407 57.4789 10.5006 57.3251C10.4164 57.6446 10.3302 57.9108 10.242 58.1239L8.88861 61.5676H12.1066ZM14.5367 64.7155H13.6345C13.5302 64.7155 13.446 64.6899 13.3818 64.6386C13.3177 64.5873 13.2695 64.5222 13.2375 64.4433L12.4315 62.396H8.5638L7.75778 64.4433C7.73372 64.5144 7.6876 64.5775 7.61943 64.6327C7.55126 64.6879 7.46705 64.7155 7.3668 64.7155H6.46454L9.91117 56.2363H11.0901L14.5367 64.7155Z" fill="#01CAB0"/>
<path d="M16.6571 64.7155H15.4902V56.2363H16.6571V64.7155Z" fill="#01CAB0"/>
<path d="M24.5101 57.2008H21.7191V64.7155H20.5582V57.2008H17.7612V56.2363H24.5101V57.2008Z" fill="#01CAB0"/>
<path d="M32.5921 56.2363V64.7155H31.4252V60.8576H26.7756V64.7155H25.6087V56.2363H26.7756V60.0173H31.4252V56.2363H32.5921Z" fill="#01CAB0"/>
<path d="M47.8811 60.4789C47.8811 61.114 47.7788 61.6919 47.5743 62.2126C47.3698 62.7333 47.0811 63.1791 46.7082 63.5499C46.3352 63.9207 45.8861 64.2086 45.3608 64.4138C44.8395 64.6149 44.262 64.7155 43.6285 64.7155H40.4104V56.2363H43.6285C44.262 56.2363 44.8395 56.3389 45.3608 56.544C45.8861 56.7452 46.3352 57.0331 46.7082 57.4079C47.0811 57.7787 47.3698 58.2245 47.5743 58.7452C47.7788 59.2659 47.8811 59.8438 47.8811 60.4789ZM46.6841 60.4789C46.6841 59.9582 46.6119 59.4927 46.4676 59.0824C46.3232 58.6722 46.1187 58.325 45.854 58.041C45.5894 57.757 45.2686 57.54 44.8916 57.3901C44.5147 57.2402 44.0936 57.1653 43.6285 57.1653H41.5773V63.7865H43.6285C44.0936 63.7865 44.5147 63.7116 44.8916 63.5617C45.2686 63.4118 45.5894 63.1968 45.854 62.9167C46.1187 62.6327 46.3232 62.2856 46.4676 61.8753C46.6119 61.4651 46.6841 60.9996 46.6841 60.4789Z" fill="#01CAB0"/>
<path d="M51.7697 60.3428C52.1066 60.3428 52.4033 60.3033 52.66 60.2244C52.9206 60.1416 53.1372 60.0272 53.3096 59.8813C53.486 59.7314 53.6184 59.5538 53.7066 59.3487C53.7948 59.1436 53.8389 58.9168 53.8389 58.6682C53.8389 58.1633 53.6705 57.7826 53.3337 57.5262C52.9968 57.2698 52.4916 57.1416 51.8179 57.1416H50.5427V60.3428H51.7697ZM55.7517 64.7155H54.7171C54.5046 64.7155 54.3482 64.6347 54.2479 64.4729L52.0103 61.4434C51.9422 61.3487 51.868 61.2816 51.7878 61.2422C51.7116 61.1988 51.5913 61.1771 51.4269 61.1771H50.5427V64.7155H49.3818V56.2363H51.8179C52.3632 56.2363 52.8344 56.2915 53.2314 56.402C53.6284 56.5085 53.9552 56.6643 54.2119 56.8694C54.4725 57.0746 54.665 57.3231 54.7893 57.615C54.9136 57.903 54.9758 58.2264 54.9758 58.5854C54.9758 58.8852 54.9277 59.1653 54.8314 59.4256C54.7352 59.686 54.5948 59.9207 54.4104 60.1298C54.2299 60.3349 54.0073 60.5104 53.7427 60.6564C53.482 60.8023 53.1853 60.9128 52.8525 60.9878C53.0008 61.0706 53.1291 61.1909 53.2374 61.3487L55.7517 64.7155Z" fill="#01CAB0"/>
<path d="M57.9106 64.7155H56.7436V56.2363H57.9106V64.7155Z" fill="#01CAB0"/>
<path d="M66.9425 56.2363L63.4297 64.7155H62.383L58.8702 56.2363H59.8026C59.9068 56.2363 59.991 56.2619 60.0552 56.3132C60.1194 56.3645 60.1675 56.4296 60.1996 56.5085L62.6297 62.4907C62.6818 62.6248 62.7319 62.7708 62.78 62.9286C62.8322 63.0864 62.8783 63.252 62.9184 63.4256C62.9585 63.252 63.0006 63.0864 63.0447 62.9286C63.0888 62.7708 63.1369 62.6248 63.1891 62.4907L65.6131 56.5085C65.6372 56.4414 65.6833 56.3803 65.7515 56.3251C65.8236 56.2659 65.9099 56.2363 66.0101 56.2363H66.9425Z" fill="#01CAB0"/>
<path d="M73.2132 63.7806L73.2072 64.7155H67.8959V56.2363H73.2072V57.1712H69.0629V59.9878H72.4193V60.8872H69.0629V63.7806H73.2132Z" fill="#01CAB0"/>
<path d="M81.6421 56.2363V64.7155H81.0587C80.9664 64.7155 80.8882 64.6998 80.8241 64.6682C80.7639 64.6366 80.7038 64.5834 80.6436 64.5084L75.6571 58.1179C75.6652 58.2166 75.6712 58.3132 75.6752 58.4079C75.6792 58.5026 75.6812 58.5913 75.6812 58.6742V64.7155H74.6586V56.2363H75.2601C75.3123 56.2363 75.3564 56.2402 75.3925 56.2481C75.4286 56.2521 75.4606 56.2619 75.4887 56.2777C75.5168 56.2896 75.5449 56.3093 75.5729 56.3369C75.601 56.3606 75.6311 56.3921 75.6632 56.4316L80.6496 62.8161C80.6416 62.7136 80.6336 62.615 80.6256 62.5203C80.6216 62.4217 80.6196 62.329 80.6196 62.2422V56.2363H81.6421Z" fill="#01CAB0"/>
<path d="M94.9248 57.2008H92.1338V64.7155H90.9729V57.2008H88.1759V56.2363H94.9248V57.2008Z" fill="#01CAB0"/>
<path d="M101.341 63.7806L101.335 64.7155H96.0234V56.2363H101.335V57.1712H97.1903V59.9878H100.547V60.8872H97.1903V63.7806H101.341Z" fill="#01CAB0"/>
<path d="M108.649 62.9641C108.713 62.9641 108.77 62.9897 108.818 63.041L109.281 63.5321C108.928 63.9345 108.499 64.2481 107.994 64.4729C107.492 64.6978 106.885 64.8102 106.171 64.8102C105.554 64.8102 104.992 64.7057 104.487 64.4966C103.982 64.2836 103.551 63.9877 103.194 63.609C102.837 63.2264 102.56 62.7688 102.364 62.2363C102.167 61.7037 102.069 61.1179 102.069 60.4789C102.069 59.8398 102.171 59.254 102.376 58.7215C102.58 58.189 102.867 57.7314 103.236 57.3487C103.609 56.9661 104.054 56.6702 104.571 56.4612C105.088 56.2481 105.66 56.1416 106.285 56.1416C106.899 56.1416 107.44 56.2383 107.909 56.4316C108.379 56.6249 108.792 56.8872 109.149 57.2185L108.764 57.7452C108.739 57.7846 108.707 57.8181 108.667 57.8458C108.631 57.8694 108.581 57.8813 108.517 57.8813C108.445 57.8813 108.357 57.8438 108.252 57.7688C108.148 57.6899 108.012 57.6032 107.843 57.5085C107.675 57.4138 107.464 57.329 107.212 57.254C106.959 57.1752 106.648 57.1357 106.279 57.1357C105.834 57.1357 105.427 57.2126 105.058 57.3665C104.689 57.5164 104.371 57.7353 104.102 58.0233C103.837 58.3112 103.631 58.6623 103.482 59.0765C103.334 59.4907 103.26 59.9582 103.26 60.4789C103.26 61.0075 103.336 61.4789 103.488 61.8931C103.645 62.3073 103.855 62.6584 104.12 62.9463C104.389 63.2303 104.703 63.4473 105.064 63.5972C105.429 63.7471 105.822 63.8221 106.243 63.8221C106.5 63.8221 106.73 63.8082 106.935 63.7806C107.143 63.7491 107.334 63.7017 107.506 63.6386C107.683 63.5755 107.845 63.4966 107.994 63.4019C108.146 63.3033 108.296 63.1869 108.445 63.0528C108.513 62.9937 108.581 62.9641 108.649 62.9641Z" fill="#01CAB0"/>
<path d="M117.437 56.2363V64.7155H116.27V60.8576H111.62V64.7155H110.453V56.2363H111.62V60.0173H116.27V56.2363H117.437Z" fill="#01CAB0"/>
<path d="M126.444 56.2363V64.7155H125.86C125.768 64.7155 125.69 64.6998 125.625 64.6682C125.565 64.6366 125.505 64.5834 125.445 64.5084L120.459 58.1179C120.467 58.2166 120.473 58.3132 120.477 58.4079C120.481 58.5026 120.483 58.5913 120.483 58.6742V64.7155H119.46V56.2363H120.062C120.114 56.2363 120.158 56.2402 120.194 56.2481C120.23 56.2521 120.262 56.2619 120.29 56.2777C120.318 56.2896 120.346 56.3093 120.374 56.3369C120.402 56.3606 120.432 56.3921 120.465 56.4316L125.451 62.8161C125.443 62.7136 125.435 62.615 125.427 62.5203C125.423 62.4217 125.421 62.329 125.421 62.2422V56.2363H126.444Z" fill="#01CAB0"/>
<path d="M136.431 60.4789C136.431 61.114 136.328 61.6978 136.124 62.2303C135.919 62.7589 135.631 63.2146 135.258 63.5972C134.885 63.9798 134.436 64.2777 133.91 64.4907C133.389 64.6998 132.812 64.8043 132.178 64.8043C131.544 64.8043 130.967 64.6998 130.446 64.4907C129.924 64.2777 129.477 63.9798 129.104 63.5972C128.731 63.2146 128.443 62.7589 128.238 62.2303C128.034 61.6978 127.931 61.114 127.931 60.4789C127.931 59.8438 128.034 59.2619 128.238 58.7333C128.443 58.2008 128.731 57.7432 129.104 57.3606C129.477 56.974 129.924 56.6742 130.446 56.4612C130.967 56.2481 131.544 56.1416 132.178 56.1416C132.812 56.1416 133.389 56.2481 133.91 56.4612C134.436 56.6742 134.885 56.974 135.258 57.3606C135.631 57.7432 135.919 58.2008 136.124 58.7333C136.328 59.2619 136.431 59.8438 136.431 60.4789ZM135.234 60.4789C135.234 59.9582 135.161 59.4907 135.017 59.0765C134.873 58.6623 134.668 58.3132 134.403 58.0292C134.139 57.7412 133.818 57.5203 133.441 57.3665C133.064 57.2126 132.643 57.1357 132.178 57.1357C131.717 57.1357 131.298 57.2126 130.921 57.3665C130.544 57.5203 130.221 57.7412 129.952 58.0292C129.688 58.3132 129.483 58.6623 129.339 59.0765C129.194 59.4907 129.122 59.9582 129.122 60.4789C129.122 60.9996 129.194 61.467 129.339 61.8812C129.483 62.2915 129.688 62.6406 129.952 62.9286C130.221 63.2126 130.544 63.4315 130.921 63.5854C131.298 63.7353 131.717 63.8102 132.178 63.8102C132.643 63.8102 133.064 63.7353 133.441 63.5854C133.818 63.4315 134.139 63.2126 134.403 62.9286C134.668 62.6406 134.873 62.2915 135.017 61.8812C135.161 61.467 135.234 60.9996 135.234 60.4789Z" fill="#01CAB0"/>
<path d="M142.81 63.751V64.7155H137.92V56.2363H139.081V63.751H142.81Z" fill="#01CAB0"/>
<path d="M151.483 60.4789C151.483 61.114 151.381 61.6978 151.176 62.2303C150.972 62.7589 150.683 63.2146 150.31 63.5972C149.937 63.9798 149.488 64.2777 148.963 64.4907C148.442 64.6998 147.864 64.8043 147.231 64.8043C146.597 64.8043 146.02 64.6998 145.498 64.4907C144.977 64.2777 144.53 63.9798 144.157 63.5972C143.784 63.2146 143.495 62.7589 143.291 62.2303C143.086 61.6978 142.984 61.114 142.984 60.4789C142.984 59.8438 143.086 59.2619 143.291 58.7333C143.495 58.2008 143.784 57.7432 144.157 57.3606C144.53 56.974 144.977 56.6742 145.498 56.4612C146.02 56.2481 146.597 56.1416 147.231 56.1416C147.864 56.1416 148.442 56.2481 148.963 56.4612C149.488 56.6742 149.937 56.974 150.31 57.3606C150.683 57.7432 150.972 58.2008 151.176 58.7333C151.381 59.2619 151.483 59.8438 151.483 60.4789ZM150.286 60.4789C150.286 59.9582 150.214 59.4907 150.07 59.0765C149.925 58.6623 149.721 58.3132 149.456 58.0292C149.192 57.7412 148.871 57.5203 148.494 57.3665C148.117 57.2126 147.696 57.1357 147.231 57.1357C146.769 57.1357 146.35 57.2126 145.973 57.3665C145.597 57.5203 145.274 57.7412 145.005 58.0292C144.74 58.3132 144.536 58.6623 144.391 59.0765C144.247 59.4907 144.175 59.9582 144.175 60.4789C144.175 60.9996 144.247 61.467 144.391 61.8812C144.536 62.2915 144.74 62.6406 145.005 62.9286C145.274 63.2126 145.597 63.4315 145.973 63.5854C146.35 63.7353 146.769 63.8102 147.231 63.8102C147.696 63.8102 148.117 63.7353 148.494 63.5854C148.871 63.4315 149.192 63.2126 149.456 62.9286C149.721 62.6406 149.925 62.2915 150.07 61.8812C150.214 61.467 150.286 60.9996 150.286 60.4789Z" fill="#01CAB0"/>
<path d="M159.974 60.6386V63.8931C159.541 64.2007 159.078 64.4315 158.584 64.5854C158.095 64.7353 157.558 64.8102 156.972 64.8102C156.279 64.8102 155.653 64.7057 155.096 64.4966C154.538 64.2836 154.061 63.9877 153.664 63.609C153.271 63.2264 152.968 62.7688 152.756 62.2363C152.543 61.7037 152.437 61.1179 152.437 60.4789C152.437 59.8319 152.539 59.2422 152.744 58.7097C152.952 58.1771 153.247 57.7215 153.628 57.3428C154.009 56.9602 154.472 56.6643 155.017 56.4552C155.563 56.2462 156.172 56.1416 156.846 56.1416C157.187 56.1416 157.504 56.1673 157.796 56.2186C158.089 56.2659 158.36 56.3369 158.608 56.4316C158.857 56.5223 159.088 56.6347 159.3 56.7688C159.513 56.899 159.711 57.047 159.896 57.2126L159.565 57.7333C159.513 57.8122 159.445 57.8635 159.36 57.8872C159.28 57.9069 159.19 57.8872 159.09 57.828C158.993 57.7728 158.883 57.7057 158.759 57.6268C158.635 57.5479 158.482 57.473 158.302 57.402C158.125 57.327 157.915 57.2639 157.67 57.2126C157.43 57.1613 157.143 57.1357 156.81 57.1357C156.325 57.1357 155.886 57.2146 155.493 57.3724C155.1 57.5262 154.765 57.7491 154.488 58.041C154.211 58.329 153.999 58.6801 153.851 59.0943C153.702 59.5045 153.628 59.9661 153.628 60.4789C153.628 61.0114 153.704 61.4887 153.857 61.9108C154.013 62.329 154.234 62.686 154.518 62.9818C154.807 63.2737 155.156 63.4966 155.565 63.6505C155.974 63.8043 156.433 63.8812 156.942 63.8812C157.343 63.8812 157.698 63.8378 158.007 63.751C158.32 63.6603 158.625 63.5361 158.921 63.3783V61.5144H157.58C157.504 61.5144 157.442 61.4927 157.393 61.4493C157.349 61.4059 157.327 61.3526 157.327 61.2895V60.6386H159.974Z" fill="#01CAB0"/>
<path d="M164.616 61.3369V64.7155H163.449V61.3369L160.291 56.2363H161.314C161.418 56.2363 161.5 56.2619 161.56 56.3132C161.62 56.3606 161.673 56.4237 161.717 56.5026L163.69 59.7984C163.762 59.9365 163.828 60.0667 163.888 60.1889C163.948 60.3073 164 60.4276 164.044 60.5499C164.089 60.4276 164.139 60.3073 164.195 60.1889C164.251 60.0667 164.313 59.9365 164.381 59.7984L166.348 56.5026C166.384 56.4355 166.434 56.3744 166.499 56.3191C166.563 56.2639 166.645 56.2363 166.745 56.2363H167.774L164.616 61.3369Z" fill="#01CAB0"/>
<path d="M0.5 47.73V1.64062H6.89535V47.73H0.5Z" fill="#01CAB0"/>
<path d="M40.8465 34.6315L25.6786 17.8245V47.696H19.2832V0.80957L40.7796 23.8196L62.5103 0.80957V47.7306H56.115V17.8592L40.8465 34.6315Z" fill="#01CAB0"/>
<path d="M97.7021 1.71094L118.629 48.1469H111.33L106.374 36.5379C106.374 36.5379 98.0035 36.6072 92.3448 38.7557C86.0164 41.1815 80.1568 48.1469 80.1568 48.1469H73.0918L94.5212 1.71094H97.7021ZM103.528 30.5082L95.6596 14.5675L86.6191 35.1171C88.3937 34.0775 88.8625 33.627 92.1104 32.3102C95.3248 31.028 103.528 30.5082 103.528 30.5082Z" fill="#01CAB0"/>
<path d="M133.597 1.71094L162.326 37.0577V1.81489H168.922V48.1469H162.46L136.811 15.8843V48.1469H130.416V1.71094H133.597Z" fill="#01CAB0"/>
</g>
</g>
</g>
<defs>
<clipPath id="clip0_3_2028">
<rect width="169" height="64" fill="white" transform="translate(0.5 0.80957)"/>
</clipPath>
<clipPath id="clip1_3_2028">
<rect width="169" height="64" fill="white" transform="translate(0.5 0.80957)"/>
</clipPath>
<clipPath id="clip2_3_2028">
<rect width="169" height="64" fill="white" transform="translate(0.5 0.80957)"/>
</clipPath>
</defs>
</svg>
