<svg width="36" height="36" viewBox="0 0 36 36" fill="none" xmlns="http://www.w3.org/2000/svg">
<g clip-path="url(#clip0_3_372)">
<g clip-path="url(#clip1_3_372)">
<path opacity="0.3" fill-rule="evenodd" clip-rule="evenodd" d="M7.98199 10.5884V22.255H28.3987V10.5884H7.98199Z" fill="#1B5BF7"/>
<path opacity="0.3" fill-rule="evenodd" clip-rule="evenodd" d="M17.7319 22.255C17.1796 22.255 16.7319 22.7027 16.7319 23.255V28.0883H14.5442C14.1415 28.0883 13.815 28.4148 13.815 28.8175C13.815 29.2202 14.1415 29.5466 14.5442 29.5466H17.726C17.726 29.5466 17.7299 29.5467 17.7319 29.5467H18.6486C18.6486 29.5467 18.6525 29.5467 18.6545 29.5466H21.8358C22.2385 29.5466 22.565 29.2202 22.565 28.8175C22.565 28.4148 22.2385 28.0883 21.8358 28.0883H19.6486V23.255C19.6486 22.7027 19.2008 22.255 18.6486 22.255H17.7319Z" fill="#1B5BF7"/>
<path fill-rule="evenodd" clip-rule="evenodd" d="M28.0337 7.67175H8.34625C6.53407 7.67175 5.065 8.97758 5.065 10.5885V22.2551C5.065 23.866 6.53407 25.1718 8.34625 25.1718H28.0337C29.8459 25.1718 31.315 23.866 31.315 22.2551V10.5885C31.315 8.97758 29.8459 7.67175 28.0337 7.67175ZM7.9819 22.2552V10.5885H28.3986V22.2552H7.9819Z" fill="#1B5BF7"/>
</g>
</g>
<defs>
<clipPath id="clip0_3_372">
<rect width="35" height="35" fill="white" transform="translate(0.690002 0.380005)"/>
</clipPath>
<clipPath id="clip1_3_372">
<rect width="35" height="35" fill="white" transform="translate(0.690002 0.380005)"/>
</clipPath>
</defs>
</svg>
