<svg width="36" height="36" viewBox="0 0 36 36" fill="none" xmlns="http://www.w3.org/2000/svg">
<g clip-path="url(#clip0_3_339)">
<path opacity="0.3" fill-rule="evenodd" clip-rule="evenodd" d="M12.2567 3.92578C11.2499 3.92578 10.4337 4.74193 10.4337 5.7487V29.8112C10.4337 30.818 11.2499 31.6341 12.2567 31.6341H23.9233C24.9301 31.6341 25.7462 30.818 25.7462 29.8112V5.7487C25.7462 4.74193 24.9301 3.92578 23.9233 3.92578H12.2567Z" fill="#1B5BF7"/>
<path fill-rule="evenodd" clip-rule="evenodd" d="M12.2567 1.73853H23.9233C26.1382 1.73853 27.9338 3.53405 27.9338 5.74894V29.8114C27.9338 32.0263 26.1382 33.8219 23.9233 33.8219H12.2567C10.0418 33.8219 8.24625 32.0263 8.24625 29.8114V5.74894C8.24625 3.53405 10.0418 1.73853 12.2567 1.73853ZM12.2566 3.92603C11.2499 3.92603 10.4337 4.74217 10.4337 5.74894V29.8114C10.4337 30.8182 11.2499 31.6344 12.2566 31.6344H23.9233C24.9301 31.6344 25.7462 30.8182 25.7462 29.8114V5.74894C25.7462 4.74217 24.9301 3.92603 23.9233 3.92603H22.29V4.88008C22.29 5.43236 21.8423 5.88008 21.29 5.88008H14.89C14.3377 5.88008 13.89 5.43236 13.89 4.88008V3.92603H12.2566Z" fill="#1B5BF7"/>
</g>
<defs>
<clipPath id="clip0_3_339">
<rect width="35" height="35" fill="white" transform="translate(0.589996 0.280029)"/>
</clipPath>
</defs>
</svg>
