<svg width="36" height="36" viewBox="0 0 36 36" fill="none" xmlns="http://www.w3.org/2000/svg">
<g clip-path="url(#clip0_3_364)">
<g clip-path="url(#clip1_3_364)">
<path opacity="0.3" d="M27.7478 14.5988H27.9338C29.7459 14.5988 31.215 16.0678 31.215 17.88C31.215 19.6922 29.7459 21.1612 27.9338 21.1612H27.8397C27.5563 21.1624 27.3007 21.3317 27.1891 21.5921C27.067 21.8688 27.1233 22.1793 27.3181 22.3785L27.3833 22.4437C27.9994 23.0591 28.3456 23.8943 28.3456 24.7652C28.3456 25.636 27.9994 26.4712 27.3841 27.0858C26.7687 27.7019 25.9335 28.0481 25.0627 28.0481C24.1918 28.0481 23.3566 27.7019 22.7416 27.0862L22.6846 27.0291C22.4768 26.8258 22.1663 26.7695 21.8896 26.8916C21.6292 27.0032 21.4599 27.2588 21.4588 27.5378V27.7238C21.4588 29.5359 19.9897 31.005 18.1775 31.005C16.3653 31.005 14.8963 29.5359 14.8963 27.7238C14.8897 27.359 14.7052 27.101 14.3671 26.9744C14.1012 26.857 13.7907 26.9133 13.5915 27.1081L13.5263 27.1733C12.9109 27.7894 12.0757 28.1356 11.2048 28.1356C10.334 28.1356 9.49882 27.7894 8.88422 27.1741C8.26808 26.5587 7.92187 25.7235 7.92187 24.8527C7.92187 23.9818 8.26808 23.1466 8.88379 22.5316L8.94093 22.4746C9.14416 22.2668 9.20047 21.9563 9.07844 21.6796C8.96682 21.4192 8.71118 21.2499 8.43219 21.2488H8.24625C6.43407 21.2488 4.965 19.7797 4.965 17.9675C4.965 16.1553 6.43407 14.6863 8.24625 14.6863C8.61095 14.6797 8.86896 14.4952 8.99562 14.1571C9.11297 13.8912 9.05666 13.5807 8.86191 13.3815L8.79672 13.3163C8.18058 12.7009 7.83437 11.8657 7.83437 10.9948C7.83437 10.124 8.18058 9.28883 8.79586 8.67422C9.41132 8.05808 10.2465 7.71187 11.1173 7.71187C11.9882 7.71187 12.8234 8.05808 13.4384 8.67379L13.4954 8.73094C13.7032 8.93417 14.0137 8.99048 14.2796 8.87313L14.4367 8.84001C14.6635 8.71713 14.8077 8.47961 14.8088 8.22219V8.03625C14.8088 6.22407 16.2778 4.755 18.09 4.755C19.9022 4.755 21.3712 6.22407 21.3712 8.03625V8.13033C21.3724 8.41368 21.5417 8.66932 21.8129 8.78562C22.0788 8.90297 22.3893 8.84666 22.5885 8.65191L22.6537 8.58673C23.2691 7.97059 24.1043 7.62437 24.9752 7.62437C25.846 7.62437 26.6812 7.97059 27.2958 8.58587C27.9119 9.20132 28.2581 10.0365 28.2581 10.9073C28.2581 11.7782 27.9119 12.6134 27.2962 13.2284L27.2391 13.2854C27.0358 13.4932 26.9795 13.8037 27.0969 14.0696L27.13 14.2267C27.2529 14.4535 27.4904 14.5977 27.7478 14.5988Z" fill="#1B5BF7"/>
<path fill-rule="evenodd" clip-rule="evenodd" d="M18.09 22.255C20.5062 22.255 22.465 20.2962 22.465 17.88C22.465 15.4638 20.5062 13.505 18.09 13.505C15.6738 13.505 13.715 15.4638 13.715 17.88C13.715 20.2962 15.6738 22.255 18.09 22.255Z" fill="#1B5BF7"/>
</g>
</g>
<defs>
<clipPath id="clip0_3_364">
<rect width="35" height="35" fill="white" transform="translate(0.589996 0.380005)"/>
</clipPath>
<clipPath id="clip1_3_364">
<rect width="35" height="35" fill="white" transform="translate(0.589996 0.380005)"/>
</clipPath>
</defs>
</svg>
