<svg width="144" height="37" viewBox="0 0 144 37" fill="none" xmlns="http://www.w3.org/2000/svg">
<rect x="0.5" y="0.0898438" width="142.95" height="36" rx="18" fill="#4473E5" fill-opacity="0.2"/>
<g clip-path="url(#clip0_3_1918)">
<g clip-path="url(#clip1_3_1918)">
<path d="M36.2917 10.7979H21.7083C20.5577 10.7979 19.625 11.7306 19.625 12.8812V23.2979C19.625 24.4485 20.5577 25.3812 21.7083 25.3812H36.2917C37.4423 25.3812 38.375 24.4485 38.375 23.2979V12.8812C38.375 11.7306 37.4423 10.7979 36.2917 10.7979Z" stroke="#1B5BF7" stroke-width="2.08333" stroke-linecap="round" stroke-linejoin="round"/>
<path d="M19.625 12.8818L29 19.1318L38.375 12.8818" stroke="#1B5BF7" stroke-width="2.08333" stroke-linecap="round" stroke-linejoin="round"/>
</g>
</g>
<path d="M50.48 22.5898V12.5098H51.74L56.997 20.3848V12.5098H58.257V22.5898H56.997L51.74 14.7078V22.5898H50.48ZM63.4344 22.7998C62.683 22.7998 62.0344 22.6295 61.4884 22.2888C60.947 21.9482 60.5294 21.4768 60.2354 20.8748C59.9414 20.2728 59.7944 19.5822 59.7944 18.8028C59.7944 18.0095 59.9437 17.3142 60.2424 16.7168C60.541 16.1195 60.9634 15.6552 61.5094 15.3238C62.0554 14.9878 62.697 14.8198 63.4344 14.8198C64.1904 14.8198 64.8414 14.9902 65.3874 15.3308C65.9334 15.6668 66.351 16.1358 66.6404 16.7378C66.9344 17.3352 67.0814 18.0235 67.0814 18.8028C67.0814 19.5915 66.9344 20.2868 66.6404 20.8888C66.3464 21.4862 65.9264 21.9552 65.3804 22.2958C64.8344 22.6318 64.1857 22.7998 63.4344 22.7998ZM63.4344 21.6168C64.2184 21.6168 64.8017 21.3555 65.1844 20.8328C65.567 20.3102 65.7584 19.6335 65.7584 18.8028C65.7584 17.9488 65.5647 17.2698 65.1774 16.7658C64.79 16.2572 64.209 16.0028 63.4344 16.0028C62.907 16.0028 62.473 16.1218 62.1324 16.3598C61.7917 16.5978 61.5374 16.9268 61.3694 17.3468C61.2014 17.7668 61.1174 18.2522 61.1174 18.8028C61.1174 19.6522 61.3134 20.3335 61.7054 20.8468C62.0974 21.3602 62.6737 21.6168 63.4344 21.6168ZM72.8436 22.5898C72.3956 22.6785 71.9522 22.7135 71.5136 22.6948C71.0796 22.6808 70.6922 22.5945 70.3516 22.4358C70.0109 22.2725 69.7519 22.0205 69.5746 21.6798C69.4252 21.3812 69.3436 21.0802 69.3296 20.7768C69.3202 20.4688 69.3156 20.1212 69.3156 19.7338V12.9298H70.5616V19.6778C70.5616 19.9858 70.5639 20.2495 70.5686 20.4688C70.5779 20.6882 70.6269 20.8772 70.7156 21.0358C70.8836 21.3345 71.1496 21.5095 71.5136 21.5608C71.8822 21.6122 72.3256 21.5982 72.8436 21.5188V22.5898ZM67.7826 16.0588V15.0298H72.8436V16.0588H67.7826ZM74.5184 13.6928V12.4048H75.7644V13.6928H74.5184ZM74.5184 22.5898V15.0298H75.7644V22.5898H74.5184ZM78.5858 22.5898V14.6168C78.5858 14.4208 78.5951 14.2225 78.6138 14.0218C78.6324 13.8165 78.6744 13.6182 78.7398 13.4268C78.8051 13.2308 78.9124 13.0512 79.0618 12.8878C79.2344 12.6965 79.4234 12.5612 79.6288 12.4818C79.8341 12.3978 80.0418 12.3465 80.2518 12.3278C80.4664 12.3092 80.6694 12.2998 80.8608 12.2998H81.8198V13.3358H80.9308C80.5621 13.3358 80.2868 13.4268 80.1048 13.6088C79.9228 13.7862 79.8318 14.0568 79.8318 14.4208V22.5898H78.5858ZM77.3048 16.0588V15.0298H81.8198V16.0588H77.3048ZM83.2898 13.6928V12.4048H84.5358V13.6928H83.2898ZM83.2898 22.5898V15.0298H84.5358V22.5898H83.2898ZM89.8271 22.7998C89.0618 22.7998 88.4108 22.6295 87.8741 22.2888C87.3421 21.9435 86.9361 21.4698 86.6561 20.8678C86.3761 20.2658 86.2314 19.5798 86.2221 18.8098C86.2314 18.0212 86.3784 17.3282 86.6631 16.7308C86.9524 16.1288 87.3654 15.6598 87.9021 15.3238C88.4388 14.9878 89.0851 14.8198 89.8411 14.8198C90.6391 14.8198 91.3251 15.0158 91.8991 15.4078C92.4778 15.7998 92.8651 16.3365 93.0611 17.0178L91.8291 17.3888C91.6704 16.9502 91.4114 16.6095 91.0521 16.3668C90.6974 16.1242 90.2891 16.0028 89.8271 16.0028C89.3091 16.0028 88.8821 16.1242 88.5461 16.3668C88.2101 16.6048 87.9604 16.9362 87.7971 17.3608C87.6338 17.7808 87.5498 18.2638 87.5451 18.8098C87.5544 19.6498 87.7481 20.3288 88.1261 20.8468C88.5088 21.3602 89.0758 21.6168 89.8271 21.6168C90.3218 21.6168 90.7324 21.5048 91.0591 21.2808C91.3858 21.0522 91.6331 20.7232 91.8011 20.2938L93.0611 20.6228C92.7998 21.3275 92.3914 21.8665 91.8361 22.2398C91.2808 22.6132 90.6111 22.7998 89.8271 22.7998ZM96.5704 22.7998C96.0057 22.7998 95.5321 22.6972 95.1494 22.4918C94.7714 22.2818 94.4844 22.0065 94.2884 21.6658C94.0971 21.3252 94.0014 20.9518 94.0014 20.5458C94.0014 20.1492 94.0761 19.8062 94.2254 19.5168C94.3794 19.2228 94.5941 18.9802 94.8694 18.7888C95.1447 18.5928 95.4737 18.4388 95.8564 18.3268C96.2157 18.2288 96.6171 18.1448 97.0604 18.0748C97.5084 18.0002 97.9611 17.9325 98.4184 17.8718C98.8757 17.8112 99.3027 17.7528 99.6994 17.6968L99.2514 17.9558C99.2654 17.2838 99.1301 16.7868 98.8454 16.4648C98.5654 16.1428 98.0801 15.9818 97.3894 15.9818C96.9321 15.9818 96.5307 16.0868 96.1854 16.2968C95.8447 16.5022 95.6044 16.8382 95.4644 17.3048L94.2814 16.9478C94.4634 16.2852 94.8157 15.7648 95.3384 15.3868C95.8611 15.0088 96.5494 14.8198 97.4034 14.8198C98.0894 14.8198 98.6774 14.9435 99.1674 15.1908C99.6621 15.4335 100.017 15.8022 100.231 16.2968C100.339 16.5302 100.406 16.7845 100.434 17.0598C100.462 17.3305 100.476 17.6152 100.476 17.9138V22.5898H99.3704V20.7768L99.6294 20.9448C99.3447 21.5562 98.9457 22.0182 98.4324 22.3308C97.9237 22.6435 97.3031 22.7998 96.5704 22.7998ZM96.7594 21.7568C97.2074 21.7568 97.5947 21.6775 97.9214 21.5188C98.2527 21.3555 98.5187 21.1432 98.7194 20.8818C98.9201 20.6158 99.0507 20.3265 99.1114 20.0138C99.1814 19.7805 99.2187 19.5215 99.2234 19.2368C99.2327 18.9475 99.2374 18.7258 99.2374 18.5718L99.6714 18.7608C99.2654 18.8168 98.8664 18.8705 98.4744 18.9218C98.0824 18.9732 97.7114 19.0292 97.3614 19.0898C97.0114 19.1458 96.6964 19.2135 96.4164 19.2928C96.2111 19.3582 96.0174 19.4422 95.8354 19.5448C95.6581 19.6475 95.5134 19.7805 95.4014 19.9438C95.2941 20.1025 95.2404 20.3008 95.2404 20.5388C95.2404 20.7442 95.2917 20.9402 95.3944 21.1268C95.5017 21.3135 95.6651 21.4652 95.8844 21.5818C96.1084 21.6985 96.4001 21.7568 96.7594 21.7568ZM106.517 22.5898C106.069 22.6785 105.626 22.7135 105.187 22.6948C104.753 22.6808 104.366 22.5945 104.025 22.4358C103.685 22.2725 103.426 22.0205 103.248 21.6798C103.099 21.3812 103.017 21.0802 103.003 20.7768C102.994 20.4688 102.989 20.1212 102.989 19.7338V12.9298H104.235V19.6778C104.235 19.9858 104.238 20.2495 104.242 20.4688C104.252 20.6882 104.301 20.8772 104.389 21.0358C104.557 21.3345 104.823 21.5095 105.187 21.5608C105.556 21.6122 105.999 21.5982 106.517 21.5188V22.5898ZM101.456 16.0588V15.0298H106.517V16.0588H101.456ZM108.192 13.6928V12.4048H109.438V13.6928H108.192ZM108.192 22.5898V15.0298H109.438V22.5898H108.192ZM114.759 22.7998C114.007 22.7998 113.359 22.6295 112.813 22.2888C112.271 21.9482 111.854 21.4768 111.56 20.8748C111.266 20.2728 111.119 19.5822 111.119 18.8028C111.119 18.0095 111.268 17.3142 111.567 16.7168C111.865 16.1195 112.288 15.6552 112.834 15.3238C113.38 14.9878 114.021 14.8198 114.759 14.8198C115.515 14.8198 116.166 14.9902 116.712 15.3308C117.258 15.6668 117.675 16.1358 117.965 16.7378C118.259 17.3352 118.406 18.0235 118.406 18.8028C118.406 19.5915 118.259 20.2868 117.965 20.8888C117.671 21.4862 117.251 21.9552 116.705 22.2958C116.159 22.6318 115.51 22.7998 114.759 22.7998ZM114.759 21.6168C115.543 21.6168 116.126 21.3555 116.509 20.8328C116.891 20.3102 117.083 19.6335 117.083 18.8028C117.083 17.9488 116.889 17.2698 116.502 16.7658C116.114 16.2572 115.533 16.0028 114.759 16.0028C114.231 16.0028 113.797 16.1218 113.457 16.3598C113.116 16.5978 112.862 16.9268 112.694 17.3468C112.526 17.7668 112.442 18.2522 112.442 18.8028C112.442 19.6522 112.638 20.3335 113.03 20.8468C113.422 21.3602 113.998 21.6168 114.759 21.6168ZM125.33 22.5898V18.8028C125.33 18.4435 125.297 18.0982 125.232 17.7668C125.171 17.4355 125.061 17.1392 124.903 16.8778C124.749 16.6118 124.539 16.4018 124.273 16.2478C124.011 16.0938 123.68 16.0168 123.279 16.0168C122.966 16.0168 122.681 16.0705 122.425 16.1778C122.173 16.2805 121.956 16.4392 121.774 16.6538C121.592 16.8685 121.449 17.1392 121.347 17.4658C121.249 17.7878 121.2 18.1682 121.2 18.6068L120.381 18.3548C120.381 17.6222 120.511 16.9945 120.773 16.4718C121.039 15.9445 121.41 15.5408 121.886 15.2608C122.366 14.9762 122.931 14.8338 123.58 14.8338C124.07 14.8338 124.487 14.9108 124.833 15.0648C125.178 15.2188 125.465 15.4242 125.694 15.6808C125.922 15.9328 126.102 16.2175 126.233 16.5348C126.363 16.8475 126.454 17.1672 126.506 17.4938C126.562 17.8158 126.59 18.1215 126.59 18.4108V22.5898H125.33ZM119.94 22.5898V15.0298H121.06V17.0528H121.2V22.5898H119.94Z" fill="#4473E5"/>
<defs>
<clipPath id="clip0_3_1918">
<rect width="25" height="25" fill="white" transform="translate(16.5 5.58984)"/>
</clipPath>
<clipPath id="clip1_3_1918">
<rect width="25" height="25" fill="white" transform="translate(16.5 5.58984)"/>
</clipPath>
</defs>
</svg>
