<svg width="152" height="37" viewBox="0 0 152 37" fill="none" xmlns="http://www.w3.org/2000/svg">
<rect x="0.309998" y="0.950195" width="150.89" height="36" rx="18" fill="#F50000" fill-opacity="0.2"/>
<g clip-path="url(#clip0_3_1965)">
<g clip-path="url(#clip1_3_1965)">
<path d="M23.602 16.8672L28.8103 10.6172L34.0187 16.8672" stroke="#F50000" stroke-width="2" stroke-linecap="round" stroke-linejoin="round"/>
<path d="M38.185 16.8672L36.1017 25.2005C36.0043 25.7976 35.7424 26.3331 35.3618 26.7137C34.9811 27.0944 34.5057 27.2961 34.0183 27.2839H23.6017C23.1143 27.2961 22.6389 27.0944 22.2582 26.7137C21.8775 26.3331 21.6157 25.7976 21.5183 25.2005L19.435 16.8672H38.185Z" stroke="#F50000" stroke-width="2" stroke-linecap="round" stroke-linejoin="round"/>
<path d="M28.8103 24.1589C29.9609 24.1589 30.8937 23.2261 30.8937 22.0755C30.8937 20.9249 29.9609 19.9922 28.8103 19.9922C27.6597 19.9922 26.727 20.9249 26.727 22.0755C26.727 23.2261 27.6597 24.1589 28.8103 24.1589Z" stroke="#F50000" stroke-width="2" stroke-linecap="round" stroke-linejoin="round"/>
</g>
</g>
<path d="M50.29 23.4502V13.3702H56.66V14.5532H51.536V17.7102H55.82V18.8932H51.536V22.2672H56.66V23.4502H50.29ZM58.2027 18.9212V17.8922H62.4027V18.9212H58.2027ZM68.3656 23.6602C67.3623 23.6602 66.5106 23.4385 65.8106 22.9952C65.1106 22.5519 64.5763 21.9359 64.2076 21.1472C63.8436 20.3585 63.6616 19.4462 63.6616 18.4102C63.6616 17.3742 63.8436 16.4619 64.2076 15.6732C64.5763 14.8845 65.1106 14.2685 65.8106 13.8252C66.5106 13.3819 67.3623 13.1602 68.3656 13.1602C69.5323 13.1602 70.4913 13.4565 71.2426 14.0492C71.9986 14.6419 72.519 15.4399 72.8036 16.4432L71.5366 16.7792C71.3313 16.0279 70.965 15.4352 70.4376 15.0012C69.9103 14.5672 69.2196 14.3502 68.3656 14.3502C67.6143 14.3502 66.989 14.5205 66.4896 14.8612C65.9903 15.2019 65.6146 15.6779 65.3626 16.2892C65.1106 16.8959 64.9823 17.6029 64.9776 18.4102C64.973 19.2129 65.0966 19.9199 65.3486 20.5312C65.6006 21.1379 65.9786 21.6139 66.4826 21.9592C66.9866 22.2999 67.6143 22.4702 68.3656 22.4702C69.2196 22.4702 69.9103 22.2532 70.4376 21.8192C70.965 21.3805 71.3313 20.7879 71.5366 20.0412L72.8036 20.3772C72.519 21.3759 71.9986 22.1739 71.2426 22.7712C70.4913 23.3639 69.5323 23.6602 68.3656 23.6602ZM77.5588 23.6602C76.8075 23.6602 76.1588 23.4899 75.6128 23.1492C75.0715 22.8085 74.6538 22.3372 74.3598 21.7352C74.0658 21.1332 73.9188 20.4425 73.9188 19.6632C73.9188 18.8699 74.0682 18.1745 74.3668 17.5772C74.6655 16.9799 75.0878 16.5155 75.6338 16.1842C76.1798 15.8482 76.8215 15.6802 77.5588 15.6802C78.3148 15.6802 78.9658 15.8505 79.5118 16.1912C80.0578 16.5272 80.4755 16.9962 80.7648 17.5982C81.0588 18.1955 81.2058 18.8839 81.2058 19.6632C81.2058 20.4519 81.0588 21.1472 80.7648 21.7492C80.4708 22.3465 80.0508 22.8155 79.5048 23.1562C78.9588 23.4922 78.3102 23.6602 77.5588 23.6602ZM77.5588 22.4772C78.3428 22.4772 78.9262 22.2159 79.3088 21.6932C79.6915 21.1705 79.8828 20.4939 79.8828 19.6632C79.8828 18.8092 79.6892 18.1302 79.3018 17.6262C78.9145 17.1175 78.3335 16.8632 77.5588 16.8632C77.0315 16.8632 76.5975 16.9822 76.2568 17.2202C75.9162 17.4582 75.6618 17.7872 75.4938 18.2072C75.3258 18.6272 75.2418 19.1125 75.2418 19.6632C75.2418 20.5125 75.4378 21.1939 75.8298 21.7072C76.2218 22.2205 76.7982 22.4772 77.5588 22.4772ZM91.784 23.4502L91.791 18.6132C91.791 18.0485 91.6394 17.6075 91.336 17.2902C91.0374 16.9682 90.6477 16.8072 90.167 16.8072C89.887 16.8072 89.621 16.8725 89.369 17.0032C89.117 17.1292 88.9117 17.3299 88.753 17.6052C88.5944 17.8759 88.515 18.2235 88.515 18.6482L87.857 18.3822C87.8477 17.8455 87.9574 17.3765 88.186 16.9752C88.4194 16.5692 88.7367 16.2542 89.138 16.0302C89.5394 15.8062 89.992 15.6942 90.496 15.6942C91.2847 15.6942 91.9054 15.9345 92.358 16.4152C92.8107 16.8912 93.037 17.5329 93.037 18.3402L93.03 23.4502H91.784ZM82.74 23.4502V15.8902H83.853V17.9132H83.993V23.4502H82.74ZM87.269 23.4502L87.276 18.6622C87.276 18.0835 87.1267 17.6309 86.828 17.3042C86.5294 16.9729 86.1327 16.8072 85.638 16.8072C85.148 16.8072 84.7514 16.9752 84.448 17.3112C84.1447 17.6472 83.993 18.0929 83.993 18.6482L83.335 18.2562C83.335 17.7662 83.4517 17.3275 83.685 16.9402C83.9184 16.5529 84.2357 16.2495 84.637 16.0302C85.0384 15.8062 85.4934 15.6942 86.002 15.6942C86.5107 15.6942 86.954 15.8015 87.332 16.0162C87.71 16.2309 88.0017 16.5389 88.207 16.9402C88.4124 17.3369 88.515 17.8105 88.515 18.3612L88.508 23.4502H87.269ZM103.897 23.4502L103.904 18.6132C103.904 18.0485 103.753 17.6075 103.449 17.2902C103.151 16.9682 102.761 16.8072 102.28 16.8072C102 16.8072 101.734 16.8725 101.482 17.0032C101.23 17.1292 101.025 17.3299 100.866 17.6052C100.708 17.8759 100.628 18.2235 100.628 18.6482L99.9703 18.3822C99.961 17.8455 100.071 17.3765 100.299 16.9752C100.533 16.5692 100.85 16.2542 101.251 16.0302C101.653 15.8062 102.105 15.6942 102.609 15.6942C103.398 15.6942 104.019 15.9345 104.471 16.4152C104.924 16.8912 105.15 17.5329 105.15 18.3402L105.143 23.4502H103.897ZM94.8533 23.4502V15.8902H95.9663V17.9132H96.1063V23.4502H94.8533ZM99.3823 23.4502L99.3893 18.6622C99.3893 18.0835 99.24 17.6309 98.9413 17.3042C98.6426 16.9729 98.246 16.8072 97.7513 16.8072C97.2613 16.8072 96.8646 16.9752 96.5613 17.3112C96.258 17.6472 96.1063 18.0929 96.1063 18.6482L95.4483 18.2562C95.4483 17.7662 95.565 17.3275 95.7983 16.9402C96.0316 16.5529 96.349 16.2495 96.7503 16.0302C97.1516 15.8062 97.6066 15.6942 98.1153 15.6942C98.624 15.6942 99.0673 15.8015 99.4453 16.0162C99.8233 16.2309 100.115 16.5389 100.32 16.9402C100.526 17.3369 100.628 17.8105 100.628 18.3612L100.621 23.4502H99.3823ZM110.181 23.6602C109.439 23.6602 108.791 23.4969 108.235 23.1702C107.685 22.8389 107.255 22.3792 106.947 21.7912C106.639 21.1985 106.485 20.5079 106.485 19.7192C106.485 18.8932 106.637 18.1792 106.94 17.5772C107.244 16.9705 107.666 16.5039 108.207 16.1772C108.753 15.8459 109.393 15.6802 110.125 15.6802C110.886 15.6802 111.532 15.8552 112.064 16.2052C112.601 16.5552 113.002 17.0545 113.268 17.7032C113.539 18.3519 113.656 19.1242 113.618 20.0202H112.358V19.5722C112.344 18.6435 112.155 17.9505 111.791 17.4932C111.427 17.0312 110.886 16.8002 110.167 16.8002C109.397 16.8002 108.812 17.0475 108.41 17.5422C108.009 18.0369 107.808 18.7462 107.808 19.6702C107.808 20.5615 108.009 21.2522 108.41 21.7422C108.812 22.2322 109.383 22.4772 110.125 22.4772C110.625 22.4772 111.059 22.3629 111.427 22.1342C111.796 21.9055 112.085 21.5765 112.295 21.1472L113.492 21.5602C113.198 22.2275 112.755 22.7455 112.162 23.1142C111.574 23.4782 110.914 23.6602 110.181 23.6602ZM107.388 20.0202V19.0192H112.974V20.0202H107.388ZM115.177 23.4502V15.8902H116.29V17.7172L116.108 17.4792C116.196 17.2459 116.311 17.0312 116.451 16.8352C116.595 16.6392 116.756 16.4782 116.934 16.3522C117.13 16.1935 117.351 16.0722 117.599 15.9882C117.846 15.9042 118.098 15.8552 118.355 15.8412C118.611 15.8225 118.852 15.8389 119.076 15.8902V17.0592C118.814 16.9892 118.527 16.9705 118.215 17.0032C117.902 17.0359 117.613 17.1502 117.347 17.3462C117.104 17.5189 116.915 17.7289 116.78 17.9762C116.649 18.2235 116.558 18.4919 116.507 18.7812C116.455 19.0659 116.43 19.3575 116.43 19.6562V23.4502H115.177ZM123.448 23.6602C122.682 23.6602 122.031 23.4899 121.495 23.1492C120.963 22.8039 120.557 22.3302 120.277 21.7282C119.997 21.1262 119.852 20.4402 119.843 19.6702C119.852 18.8815 119.999 18.1885 120.284 17.5912C120.573 16.9892 120.986 16.5202 121.523 16.1842C122.059 15.8482 122.706 15.6802 123.462 15.6802C124.26 15.6802 124.946 15.8762 125.52 16.2682C126.098 16.6602 126.486 17.1969 126.682 17.8782L125.45 18.2492C125.291 17.8105 125.032 17.4699 124.673 17.2272C124.318 16.9845 123.91 16.8632 123.448 16.8632C122.93 16.8632 122.503 16.9845 122.167 17.2272C121.831 17.4652 121.581 17.7965 121.418 18.2212C121.254 18.6412 121.17 19.1242 121.166 19.6702C121.175 20.5102 121.369 21.1892 121.747 21.7072C122.129 22.2205 122.696 22.4772 123.448 22.4772C123.942 22.4772 124.353 22.3652 124.68 22.1412C125.006 21.9125 125.254 21.5835 125.422 21.1542L126.682 21.4832C126.42 22.1879 126.012 22.7269 125.457 23.1002C124.901 23.4735 124.232 23.6602 123.448 23.6602ZM131.181 23.6602C130.439 23.6602 129.791 23.4969 129.235 23.1702C128.685 22.8389 128.255 22.3792 127.947 21.7912C127.639 21.1985 127.485 20.5079 127.485 19.7192C127.485 18.8932 127.637 18.1792 127.94 17.5772C128.244 16.9705 128.666 16.5039 129.207 16.1772C129.753 15.8459 130.393 15.6802 131.125 15.6802C131.886 15.6802 132.532 15.8552 133.064 16.2052C133.601 16.5552 134.002 17.0545 134.268 17.7032C134.539 18.3519 134.656 19.1242 134.618 20.0202H133.358V19.5722C133.344 18.6435 133.155 17.9505 132.791 17.4932C132.427 17.0312 131.886 16.8002 131.167 16.8002C130.397 16.8002 129.812 17.0475 129.41 17.5422C129.009 18.0369 128.808 18.7462 128.808 19.6702C128.808 20.5615 129.009 21.2522 129.41 21.7422C129.812 22.2322 130.383 22.4772 131.125 22.4772C131.625 22.4772 132.059 22.3629 132.427 22.1342C132.796 21.9055 133.085 21.5765 133.295 21.1472L134.492 21.5602C134.198 22.2275 133.755 22.7455 133.162 23.1142C132.574 23.4782 131.914 23.6602 131.181 23.6602ZM128.388 20.0202V19.0192H133.974V20.0202H128.388Z" fill="#F50000"/>
<defs>
<clipPath id="clip0_3_1965">
<rect width="25" height="25" fill="white" transform="translate(16.31 6.4502)"/>
</clipPath>
<clipPath id="clip1_3_1965">
<rect width="25" height="25" fill="white" transform="translate(16.31 6.4502)"/>
</clipPath>
</defs>
</svg>
