<svg width="118" height="37" viewBox="0 0 118 37" fill="none" xmlns="http://www.w3.org/2000/svg">
<rect x="0.309998" y="0.22998" width="117.7" height="36" rx="18" fill="#FF5722" fill-opacity="0.2"/>
<g clip-path="url(#clip0_3_1850)">
<g clip-path="url(#clip1_3_1850)">
<path d="M23.6013 25.5217C24.7519 25.5217 25.6847 24.5889 25.6847 23.4383C25.6847 22.2877 24.7519 21.355 23.6013 21.355C22.4507 21.355 21.518 22.2877 21.518 23.4383C21.518 24.5889 22.4507 25.5217 23.6013 25.5217Z" stroke="#FF5722" stroke-width="2" stroke-linecap="round" stroke-linejoin="round"/>
<path d="M34.0183 25.5217C35.1689 25.5217 36.1017 24.5889 36.1017 23.4383C36.1017 22.2877 35.1689 21.355 34.0183 21.355C32.8677 21.355 31.935 22.2877 31.935 23.4383C31.935 24.5889 32.8677 25.5217 34.0183 25.5217Z" stroke="#FF5722" stroke-width="2" stroke-linecap="round" stroke-linejoin="round"/>
<path d="M21.518 23.4385H19.4347V19.2718M18.393 10.9385H29.8513V23.4385M25.6847 23.4385H31.9347M36.1013 23.4385H38.1847V17.1885M38.1847 17.1885H29.8513M38.1847 17.1885L35.0597 11.9801H29.8513" stroke="#FF5722" stroke-width="2" stroke-linecap="round" stroke-linejoin="round"/>
<path d="M19.435 15.105H23.6017" stroke="#FF5722" stroke-width="2" stroke-linecap="round" stroke-linejoin="round"/>
</g>
</g>
<path d="M50.29 22.73V12.65H53.398C53.5007 12.65 53.6803 12.6523 53.937 12.657C54.1937 12.6616 54.4387 12.6803 54.672 12.713C55.4513 12.8156 56.1023 13.1003 56.625 13.567C57.1523 14.029 57.549 14.617 57.815 15.331C58.081 16.045 58.214 16.8313 58.214 17.69C58.214 18.5486 58.081 19.335 57.815 20.049C57.549 20.763 57.1523 21.3533 56.625 21.82C56.1023 22.282 55.4513 22.5643 54.672 22.667C54.4387 22.695 54.1913 22.7136 53.93 22.723C53.6733 22.7276 53.496 22.73 53.398 22.73H50.29ZM51.571 21.54H53.398C53.5753 21.54 53.7737 21.5353 53.993 21.526C54.2123 21.512 54.4037 21.491 54.567 21.463C55.1177 21.3603 55.5633 21.1293 55.904 20.77C56.2447 20.4106 56.4943 19.9626 56.653 19.426C56.8117 18.8893 56.891 18.3106 56.891 17.69C56.891 17.0553 56.8093 16.4696 56.646 15.933C56.4873 15.3963 56.2377 14.9506 55.897 14.596C55.5563 14.2413 55.113 14.015 54.567 13.917C54.4037 13.8843 54.21 13.8633 53.986 13.854C53.762 13.8446 53.566 13.84 53.398 13.84H51.571V21.54ZM63.0953 22.94C62.3533 22.94 61.7046 22.7766 61.1493 22.45C60.5986 22.1186 60.1693 21.659 59.8613 21.071C59.5533 20.4783 59.3993 19.7876 59.3993 18.999C59.3993 18.173 59.551 17.459 59.8543 16.857C60.1576 16.2503 60.58 15.7836 61.1213 15.457C61.6673 15.1256 62.3066 14.96 63.0393 14.96C63.8 14.96 64.4463 15.135 64.9783 15.485C65.515 15.835 65.9163 16.3343 66.1823 16.983C66.453 17.6316 66.5696 18.404 66.5323 19.3H65.2723V18.852C65.2583 17.9233 65.0693 17.2303 64.7053 16.773C64.3413 16.311 63.8 16.08 63.0813 16.08C62.3113 16.08 61.7256 16.3273 61.3243 16.822C60.923 17.3166 60.7223 18.026 60.7223 18.95C60.7223 19.8413 60.923 20.532 61.3243 21.022C61.7256 21.512 62.2973 21.757 63.0393 21.757C63.5386 21.757 63.9726 21.6426 64.3413 21.414C64.71 21.1853 64.9993 20.8563 65.2093 20.427L66.4063 20.84C66.1123 21.5073 65.669 22.0253 65.0763 22.394C64.4883 22.758 63.828 22.94 63.0953 22.94ZM60.3023 19.3V18.299H65.8883V19.3H60.3023ZM68.2308 22.73V12.44H69.4768V22.73H68.2308ZM71.7171 13.833V12.545H72.9631V13.833H71.7171ZM71.7171 22.73V15.17H72.9631V22.73H71.7171ZM77.1074 22.73L74.3634 15.17H75.6234L77.7444 21.141L79.8584 15.17H81.1254L78.3814 22.73H77.1074ZM85.3941 22.94C84.6521 22.94 84.0035 22.7766 83.4481 22.45C82.8975 22.1186 82.4681 21.659 82.1601 21.071C81.8521 20.4783 81.6981 19.7876 81.6981 18.999C81.6981 18.173 81.8498 17.459 82.1531 16.857C82.4565 16.2503 82.8788 15.7836 83.4201 15.457C83.9661 15.1256 84.6055 14.96 85.3381 14.96C86.0988 14.96 86.7451 15.135 87.2771 15.485C87.8138 15.835 88.2151 16.3343 88.4811 16.983C88.7518 17.6316 88.8685 18.404 88.8311 19.3H87.5711V18.852C87.5571 17.9233 87.3681 17.2303 87.0041 16.773C86.6401 16.311 86.0988 16.08 85.3801 16.08C84.6101 16.08 84.0245 16.3273 83.6231 16.822C83.2218 17.3166 83.0211 18.026 83.0211 18.95C83.0211 19.8413 83.2218 20.532 83.6231 21.022C84.0245 21.512 84.5961 21.757 85.3381 21.757C85.8375 21.757 86.2715 21.6426 86.6401 21.414C87.0088 21.1853 87.2981 20.8563 87.5081 20.427L88.7051 20.84C88.4111 21.5073 87.9678 22.0253 87.3751 22.394C86.7871 22.758 86.1268 22.94 85.3941 22.94ZM82.6011 19.3V18.299H88.1871V19.3H82.6011ZM90.3896 22.73V15.17H91.5026V16.997L91.3206 16.759C91.4093 16.5256 91.5236 16.311 91.6636 16.115C91.8083 15.919 91.9693 15.758 92.1466 15.632C92.3426 15.4733 92.5643 15.352 92.8116 15.268C93.0589 15.184 93.3109 15.135 93.5676 15.121C93.8243 15.1023 94.0646 15.1186 94.2886 15.17V16.339C94.0273 16.269 93.7403 16.2503 93.4276 16.283C93.1149 16.3156 92.8256 16.43 92.5596 16.626C92.3169 16.7986 92.1279 17.0086 91.9926 17.256C91.8619 17.5033 91.7709 17.7716 91.7196 18.061C91.6683 18.3456 91.6426 18.6373 91.6426 18.936V22.73H90.3896ZM96.5255 26.09L97.9885 22.114L98.0095 23.29L94.7055 15.17H96.0145L98.6045 21.701H98.1565L100.586 15.17H101.853L97.7365 26.09H96.5255Z" fill="#FF5722"/>
<defs>
<clipPath id="clip0_3_1850">
<rect width="25" height="25" fill="white" transform="translate(16.31 5.72998)"/>
</clipPath>
<clipPath id="clip1_3_1850">
<rect width="25" height="25" fill="white" transform="translate(16.31 5.72998)"/>
</clipPath>
</defs>
</svg>
