<svg width="117" height="37" viewBox="0 0 117 37" fill="none" xmlns="http://www.w3.org/2000/svg">
<rect x="0.5" y="0.80957" width="116.28" height="36" rx="18" fill="#01CAB0" fill-opacity="0.2"/>
<g clip-path="url(#clip0_3_2056)">
<g clip-path="url(#clip1_3_2056)">
<path d="M19.625 28.1846H38.375" stroke="#01CAB0" stroke-width="1.5625" stroke-linecap="round" stroke-linejoin="round"/>
<path d="M19.625 16.7266H38.375" stroke="#01CAB0" stroke-width="1.5625" stroke-linecap="round" stroke-linejoin="round"/>
<path d="M21.7083 12.5596L29 9.43457L36.2916 12.5596" stroke="#01CAB0" stroke-width="1.5625" stroke-linecap="round" stroke-linejoin="round"/>
<path d="M20.6667 16.7266V28.1849" stroke="#01CAB0" stroke-width="1.5625" stroke-linecap="round" stroke-linejoin="round"/>
<path d="M37.3333 16.7266V28.1849" stroke="#01CAB0" stroke-width="1.5625" stroke-linecap="round" stroke-linejoin="round"/>
<path d="M24.8333 20.8926V24.0176" stroke="#01CAB0" stroke-width="1.5625" stroke-linecap="round" stroke-linejoin="round"/>
<path d="M29 20.8926V24.0176" stroke="#01CAB0" stroke-width="1.5625" stroke-linecap="round" stroke-linejoin="round"/>
<path d="M33.1667 20.8926V24.0176" stroke="#01CAB0" stroke-width="1.5625" stroke-linecap="round" stroke-linejoin="round"/>
</g>
</g>
<path d="M50.48 23.3096V13.2296H56.36V14.4756H51.726V17.6466H55.52V18.8926H51.726V23.3096H50.48ZM57.7567 14.4126V13.1246H59.0027V14.4126H57.7567ZM57.7567 23.3096V15.7496H59.0027V23.3096H57.7567ZM66.486 23.3096V19.5226C66.486 19.1632 66.4534 18.8179 66.388 18.4866C66.3274 18.1552 66.2177 17.8589 66.059 17.5976C65.905 17.3316 65.695 17.1216 65.429 16.9676C65.1677 16.8136 64.8364 16.7366 64.435 16.7366C64.1224 16.7366 63.8377 16.7902 63.581 16.8976C63.329 17.0002 63.112 17.1589 62.93 17.3736C62.748 17.5882 62.6057 17.8589 62.503 18.1856C62.405 18.5076 62.356 18.8879 62.356 19.3266L61.537 19.0746C61.537 18.3419 61.6677 17.7142 61.929 17.1916C62.195 16.6642 62.566 16.2606 63.042 15.9806C63.5227 15.6959 64.0874 15.5536 64.736 15.5536C65.226 15.5536 65.6437 15.6306 65.989 15.7846C66.3344 15.9386 66.6214 16.1439 66.85 16.4006C67.0787 16.6526 67.2584 16.9372 67.389 17.2546C67.5197 17.5672 67.6107 17.8869 67.662 18.2136C67.718 18.5356 67.746 18.8412 67.746 19.1306V23.3096H66.486ZM61.096 23.3096V15.7496H62.216V17.7726H62.356V23.3096H61.096ZM71.7149 23.5196C71.1503 23.5196 70.6766 23.4169 70.2939 23.2116C69.9159 23.0016 69.6289 22.7262 69.4329 22.3856C69.2416 22.0449 69.1459 21.6716 69.1459 21.2656C69.1459 20.8689 69.2206 20.5259 69.3699 20.2366C69.5239 19.9426 69.7386 19.6999 70.0139 19.5086C70.2893 19.3126 70.6183 19.1586 71.0009 19.0466C71.3603 18.9486 71.7616 18.8646 72.2049 18.7946C72.6529 18.7199 73.1056 18.6522 73.5629 18.5916C74.0203 18.5309 74.4473 18.4726 74.8439 18.4166L74.3959 18.6756C74.4099 18.0036 74.2746 17.5066 73.9899 17.1846C73.7099 16.8626 73.2246 16.7016 72.5339 16.7016C72.0766 16.7016 71.6753 16.8066 71.3299 17.0166C70.9893 17.2219 70.7489 17.5579 70.6089 18.0246L69.4259 17.6676C69.6079 17.0049 69.9603 16.4846 70.4829 16.1066C71.0056 15.7286 71.6939 15.5396 72.5479 15.5396C73.2339 15.5396 73.8219 15.6632 74.3119 15.9106C74.8066 16.1532 75.1613 16.5219 75.3759 17.0166C75.4833 17.2499 75.5509 17.5042 75.5789 17.7796C75.6069 18.0502 75.6209 18.3349 75.6209 18.6336V23.3096H74.5149V21.4966L74.7739 21.6646C74.4893 22.2759 74.0903 22.7379 73.5769 23.0506C73.0683 23.3632 72.4476 23.5196 71.7149 23.5196ZM71.9039 22.4766C72.3519 22.4766 72.7393 22.3972 73.0659 22.2386C73.3973 22.0752 73.6633 21.8629 73.8639 21.6016C74.0646 21.3356 74.1953 21.0462 74.2559 20.7336C74.3259 20.5002 74.3633 20.2412 74.3679 19.9566C74.3773 19.6672 74.3819 19.4456 74.3819 19.2916L74.8159 19.4806C74.4099 19.5366 74.0109 19.5902 73.6189 19.6416C73.2269 19.6929 72.8559 19.7489 72.5059 19.8096C72.1559 19.8656 71.8409 19.9332 71.5609 20.0126C71.3556 20.0779 71.1619 20.1619 70.9799 20.2646C70.8026 20.3672 70.6579 20.5002 70.5459 20.6636C70.4386 20.8222 70.3849 21.0206 70.3849 21.2586C70.3849 21.4639 70.4363 21.6599 70.5389 21.8466C70.6463 22.0332 70.8096 22.1849 71.0289 22.3016C71.2529 22.4182 71.5446 22.4766 71.9039 22.4766ZM82.8239 23.3096V19.5226C82.8239 19.1632 82.7913 18.8179 82.7259 18.4866C82.6653 18.1552 82.5556 17.8589 82.3969 17.5976C82.2429 17.3316 82.0329 17.1216 81.7669 16.9676C81.5056 16.8136 81.1743 16.7366 80.7729 16.7366C80.4603 16.7366 80.1756 16.7902 79.9189 16.8976C79.6669 17.0002 79.4499 17.1589 79.2679 17.3736C79.0859 17.5882 78.9436 17.8589 78.8409 18.1856C78.7429 18.5076 78.6939 18.8879 78.6939 19.3266L77.8749 19.0746C77.8749 18.3419 78.0056 17.7142 78.2669 17.1916C78.5329 16.6642 78.9039 16.2606 79.3799 15.9806C79.8606 15.6959 80.4253 15.5536 81.0739 15.5536C81.5639 15.5536 81.9816 15.6306 82.3269 15.7846C82.6723 15.9386 82.9593 16.1439 83.1879 16.4006C83.4166 16.6526 83.5963 16.9372 83.7269 17.2546C83.8576 17.5672 83.9486 17.8869 83.9999 18.2136C84.0559 18.5356 84.0839 18.8412 84.0839 19.1306V23.3096H82.8239ZM77.4339 23.3096V15.7496H78.5539V17.7726H78.6939V23.3096H77.4339ZM89.0205 23.5196C88.2551 23.5196 87.6041 23.3492 87.0675 23.0086C86.5355 22.6632 86.1295 22.1896 85.8495 21.5876C85.5695 20.9856 85.4248 20.2996 85.4155 19.5296C85.4248 18.7409 85.5718 18.0479 85.8565 17.4506C86.1458 16.8486 86.5588 16.3796 87.0955 16.0436C87.6321 15.7076 88.2785 15.5396 89.0345 15.5396C89.8325 15.5396 90.5185 15.7356 91.0925 16.1276C91.6711 16.5196 92.0585 17.0562 92.2545 17.7376L91.0225 18.1086C90.8638 17.6699 90.6048 17.3292 90.2455 17.0866C89.8908 16.8439 89.4825 16.7226 89.0205 16.7226C88.5025 16.7226 88.0755 16.8439 87.7395 17.0866C87.4035 17.3246 87.1538 17.6559 86.9905 18.0806C86.8271 18.5006 86.7431 18.9836 86.7385 19.5296C86.7478 20.3696 86.9415 21.0486 87.3195 21.5666C87.7021 22.0799 88.2691 22.3366 89.0205 22.3366C89.5151 22.3366 89.9258 22.2246 90.2525 22.0006C90.5791 21.7719 90.8265 21.4429 90.9945 21.0136L92.2545 21.3426C91.9931 22.0472 91.5848 22.5862 91.0295 22.9596C90.4741 23.3329 89.8045 23.5196 89.0205 23.5196ZM96.754 23.5196C96.012 23.5196 95.3634 23.3562 94.808 23.0296C94.2574 22.6982 93.828 22.2386 93.52 21.6506C93.212 21.0579 93.058 20.3672 93.058 19.5786C93.058 18.7526 93.2097 18.0386 93.513 17.4366C93.8164 16.8299 94.2387 16.3632 94.78 16.0366C95.326 15.7052 95.9654 15.5396 96.698 15.5396C97.4587 15.5396 98.105 15.7146 98.637 16.0646C99.1737 16.4146 99.575 16.9139 99.841 17.5626C100.112 18.2112 100.228 18.9836 100.191 19.8796H98.931V19.4316C98.917 18.5029 98.728 17.8099 98.364 17.3526C98 16.8906 97.4587 16.6596 96.74 16.6596C95.97 16.6596 95.3844 16.9069 94.983 17.4016C94.5817 17.8962 94.381 18.6056 94.381 19.5296C94.381 20.4209 94.5817 21.1116 94.983 21.6016C95.3844 22.0916 95.956 22.3366 96.698 22.3366C97.1974 22.3366 97.6314 22.2222 98 21.9936C98.3687 21.7649 98.658 21.4359 98.868 21.0066L100.065 21.4196C99.771 22.0869 99.3277 22.6049 98.735 22.9736C98.147 23.3376 97.4867 23.5196 96.754 23.5196ZM93.961 19.8796V18.8786H99.547V19.8796H93.961Z" fill="#01CAB0"/>
<defs>
<clipPath id="clip0_3_2056">
<rect width="25" height="25" fill="white" transform="translate(16.5 6.30957)"/>
</clipPath>
<clipPath id="clip1_3_2056">
<rect width="25" height="25" fill="white" transform="translate(16.5 6.30957)"/>
</clipPath>
</defs>
</svg>
