<svg width="314" height="48" viewBox="0 0 314 48" fill="none" xmlns="http://www.w3.org/2000/svg">
<g clip-path="url(#clip0_3_1914)">
<g clip-path="url(#clip1_3_1914)">
<g clip-path="url(#clip2_3_1914)">
<path d="M19.108 46.5376C13.86 46.5376 9.55066 45.3003 6.17999 42.8256C2.80932 40.3083 0.99599 36.7243 0.73999 32.0736H14.116C14.244 33.6523 14.7133 34.8043 15.524 35.5296C16.3347 36.2549 17.38 36.6176 18.66 36.6176C19.812 36.6176 20.7507 36.3403 21.476 35.7856C22.244 35.1883 22.628 34.3776 22.628 33.3536C22.628 32.0309 22.0093 31.0069 20.772 30.2816C19.5347 29.5563 17.5293 28.7456 14.756 27.8496C11.812 26.8683 9.42266 25.9296 7.58799 25.0336C5.79599 24.0949 4.21732 22.7509 2.85199 21.0016C1.52932 19.2096 0.86799 16.8843 0.86799 14.0256C0.86799 11.1243 1.59332 8.64963 3.04399 6.60163C4.49466 4.51096 6.49999 2.9323 9.05999 1.86563C11.62 0.798958 14.5213 0.265625 17.764 0.265625C23.012 0.265625 27.1933 1.50296 30.308 3.97763C33.4653 6.40963 35.1507 9.8443 35.364 14.2816H21.732C21.6893 12.9163 21.2627 11.8923 20.452 11.2096C19.684 10.5269 18.6813 10.1856 17.444 10.1856C16.5053 10.1856 15.7373 10.4629 15.14 11.0176C14.5427 11.5723 14.244 12.3616 14.244 13.3856C14.244 14.2389 14.564 14.9856 15.204 15.6256C15.8867 16.2229 16.7187 16.7563 17.7 17.2256C18.6813 17.6523 20.132 18.2069 22.052 18.8896C24.9107 19.8709 27.2573 20.8523 29.092 21.8336C30.9693 22.7723 32.5693 24.1163 33.892 25.8656C35.2573 27.5723 35.94 29.7483 35.94 32.3936C35.94 35.0816 35.2573 37.4923 33.892 39.6256C32.5693 41.7589 30.628 43.4443 28.068 44.6816C25.5507 45.9189 22.564 46.5376 19.108 46.5376ZM88.6835 9.86563C93.2062 9.86563 96.7475 11.2309 99.3075 13.9616C101.91 16.6923 103.212 20.4256 103.212 25.1616V46.0896H90.6675V26.8256C90.6675 24.9056 90.1342 23.4123 89.0675 22.3456C88.0008 21.2789 86.5502 20.7456 84.7155 20.7456C82.8808 20.7456 81.4302 21.2789 80.3635 22.3456C79.2968 23.4123 78.7635 24.9056 78.7635 26.8256V46.0896H66.2195V26.8256C66.2195 24.9056 65.6862 23.4123 64.6195 22.3456C63.5955 21.2789 62.1662 20.7456 60.3315 20.7456C58.4542 20.7456 56.9822 21.2789 55.9155 22.3456C54.8488 23.4123 54.3155 24.9056 54.3155 26.8256V46.0896H41.7715V10.1856H54.3155V14.9216C55.4248 13.3856 56.8542 12.1696 58.6035 11.2736C60.3955 10.3349 62.4435 9.86563 64.7475 9.86563C67.3928 9.86563 69.7395 10.4416 71.7875 11.5936C73.8782 12.7456 75.5208 14.3669 76.7155 16.4576C77.9955 14.4949 79.6808 12.9163 81.7715 11.7216C83.8622 10.4843 86.1662 9.86563 88.6835 9.86563ZM125.38 46.5376C122.137 46.5376 119.236 46.0043 116.676 44.9376C114.159 43.8283 112.153 42.3349 110.66 40.4576C109.209 38.5376 108.399 36.3829 108.228 33.9936H120.388C120.559 35.1456 121.092 36.0416 121.988 36.6816C122.884 37.3216 123.993 37.6416 125.316 37.6416C126.34 37.6416 127.151 37.4283 127.748 37.0016C128.345 36.5749 128.644 36.0203 128.644 35.3376C128.644 34.4416 128.153 33.7803 127.172 33.3536C126.191 32.9269 124.569 32.4576 122.308 31.9456C119.748 31.4336 117.615 30.8576 115.908 30.2176C114.201 29.5776 112.708 28.5323 111.428 27.0816C110.191 25.6309 109.572 23.6683 109.572 21.1936C109.572 19.0603 110.148 17.1403 111.3 15.4336C112.452 13.6843 114.137 12.2976 116.356 11.2736C118.617 10.2496 121.327 9.73763 124.484 9.73763C129.177 9.73763 132.868 10.8896 135.556 13.1936C138.244 15.4976 139.801 18.5269 140.228 22.2816H128.9C128.687 21.1296 128.175 20.2549 127.364 19.6576C126.596 19.0176 125.551 18.6976 124.228 18.6976C123.204 18.6976 122.415 18.8896 121.86 19.2736C121.348 19.6576 121.092 20.1909 121.092 20.8736C121.092 21.7269 121.583 22.3883 122.564 22.8576C123.545 23.2843 125.124 23.7323 127.3 24.2016C129.903 24.7563 132.057 25.3749 133.764 26.0576C135.513 26.7403 137.028 27.8496 138.308 29.3856C139.631 30.8789 140.292 32.9269 140.292 35.5296C140.292 37.6203 139.673 39.4976 138.436 41.1616C137.241 42.8256 135.513 44.1483 133.252 45.1296C131.033 46.0683 128.409 46.5376 125.38 46.5376ZM183.195 10.1856V46.0896H170.587V40.9696C169.52 42.5909 168.048 43.9136 166.171 44.9376C164.294 45.9189 162.139 46.4096 159.707 46.4096C155.526 46.4096 152.219 45.0443 149.787 42.3136C147.398 39.5403 146.203 35.7856 146.203 31.0496V10.1856H158.683V29.4496C158.683 31.4976 159.216 33.1189 160.283 34.3136C161.392 35.4656 162.843 36.0416 164.635 36.0416C166.47 36.0416 167.92 35.4656 168.987 34.3136C170.054 33.1189 170.587 31.4976 170.587 29.4496V10.1856H183.195ZM202.238 35.6576H217.534V46.0896H188.414V36.1696L202.686 20.6176H188.542V10.1856H217.022V20.1056L202.238 35.6576ZM228.852 46.6016C226.633 46.6016 224.841 46.0043 223.476 44.8096C222.153 43.5723 221.492 42.0149 221.492 40.1376C221.492 38.2603 222.153 36.7029 223.476 35.4656C224.841 34.2283 226.633 33.6096 228.852 33.6096C231.028 33.6096 232.777 34.2283 234.1 35.4656C235.465 36.7029 236.148 38.2603 236.148 40.1376C236.148 41.9723 235.465 43.5083 234.1 44.7456C232.777 45.9829 231.028 46.6016 228.852 46.6016ZM278.758 10.1856V46.0896H266.15V40.9696C265.083 42.5909 263.611 43.9136 261.734 44.9376C259.856 45.9189 257.702 46.4096 255.27 46.4096C251.088 46.4096 247.782 45.0443 245.35 42.3136C242.96 39.5403 241.766 35.7856 241.766 31.0496V10.1856H254.246V29.4496C254.246 31.4976 254.779 33.1189 255.846 34.3136C256.955 35.4656 258.406 36.0416 260.198 36.0416C262.032 36.0416 263.483 35.4656 264.55 34.3136C265.616 33.1189 266.15 31.4976 266.15 29.4496V10.1856H278.758ZM297.801 35.6576H313.097V46.0896H283.977V36.1696L298.249 20.6176H284.105V10.1856H312.585V20.1056L297.801 35.6576Z" fill="#1B5BF7"/>
</g>
</g>
</g>
<defs>
<clipPath id="clip0_3_1914">
<rect width="313" height="47" fill="white" transform="translate(0.5 0.0898438)"/>
</clipPath>
<clipPath id="clip1_3_1914">
<rect width="313" height="47" fill="white" transform="translate(0.5 0.0898438)"/>
</clipPath>
<clipPath id="clip2_3_1914">
<rect width="313" height="47" fill="white" transform="translate(0.5 0.0898438)"/>
</clipPath>
</defs>
</svg>
