<svg width="36" height="36" viewBox="0 0 36 36" fill="none" xmlns="http://www.w3.org/2000/svg">
<g clip-path="url(#clip0_3_331)">
<g clip-path="url(#clip1_3_331)">
<g clip-path="url(#clip2_3_331)">
<path opacity="0.3" fill-rule="evenodd" clip-rule="evenodd" d="M7.79199 10.4883C7.79199 13.71 10.4037 16.3217 13.6253 16.3217C16.847 16.3217 19.4587 13.71 19.4587 10.4883C19.4587 7.2667 16.847 4.65503 13.6253 4.65503C10.4037 4.65503 7.79199 7.2667 7.79199 10.4883ZM22.3751 16.3217C22.3751 18.7379 24.3338 20.6967 26.7501 20.6967C29.1663 20.6967 31.1251 18.7379 31.1251 16.3217C31.1251 13.9055 29.1663 11.9467 26.7501 11.9467C24.3338 11.9467 22.3751 13.9055 22.3751 16.3217Z" fill="#1B5BF7"/>
<path fill-rule="evenodd" clip-rule="evenodd" d="M13.6007 19.2383C6.71529 19.2383 1.06621 22.777 0.50095 29.7372C0.47016 30.1163 1.19521 30.905 1.56094 30.905H25.6514C26.747 30.905 26.764 30.0234 26.747 29.7383C26.3196 22.5826 20.583 19.2383 13.6007 19.2383ZM29.0829 30.905C29.0829 27.6224 27.9983 24.5931 26.168 22.1559C31.1358 22.2102 35.1922 24.7218 35.4975 30.03C35.5098 30.2438 35.4975 30.905 34.7062 30.905H29.0829Z" fill="#1B5BF7"/>
</g>
</g>
</g>
<defs>
<clipPath id="clip0_3_331">
<rect width="35" height="35" fill="white" transform="translate(0.5 0.280029)"/>
</clipPath>
<clipPath id="clip1_3_331">
<rect width="35" height="35" fill="white" transform="translate(0.5 0.280029)"/>
</clipPath>
<clipPath id="clip2_3_331">
<rect width="35" height="35" fill="white" transform="translate(0.5 0.280029)"/>
</clipPath>
</defs>
</svg>
