<svg width="57" height="57" viewBox="0 0 57 57" fill="none" xmlns="http://www.w3.org/2000/svg">
<g clip-path="url(#clip0_3_1862)">
<g clip-path="url(#clip1_3_1862)">
<path d="M28.31 49.0898C39.908 49.0898 49.31 39.6878 49.31 28.0898C49.31 16.4918 39.908 7.08984 28.31 7.08984C16.712 7.08984 7.31 16.4918 7.31 28.0898C7.31 39.6878 16.712 49.0898 28.31 49.0898Z" stroke="#1B5BF7" stroke-width="3.5" stroke-linecap="round" stroke-linejoin="round"/>
<path d="M8.71039 21.0898H47.9104" stroke="#1B5BF7" stroke-width="3.5" stroke-linecap="round" stroke-linejoin="round"/>
<path d="M8.71039 35.0898H47.9104" stroke="#1B5BF7" stroke-width="3.5" stroke-linecap="round" stroke-linejoin="round"/>
<path d="M27.1432 7.08984C23.2123 13.3889 21.1284 20.6648 21.1284 28.0898C21.1284 35.5148 23.2123 42.7907 27.1432 49.0898" stroke="#1B5BF7" stroke-width="3.5" stroke-linecap="round" stroke-linejoin="round"/>
<path d="M29.477 7.08984C33.4079 13.3889 35.4918 20.6648 35.4918 28.0898C35.4918 35.5148 33.4079 42.7907 29.477 49.0898" stroke="#1B5BF7" stroke-width="3.5" stroke-linecap="round" stroke-linejoin="round"/>
</g>
</g>
<defs>
<clipPath id="clip0_3_1862">
<rect width="56" height="56" fill="white" transform="translate(0.309998 0.0898438)"/>
</clipPath>
<clipPath id="clip1_3_1862">
<rect width="56" height="56" fill="white" transform="translate(0.309998 0.0898438)"/>
</clipPath>
</defs>
</svg>
