<svg width="57" height="57" viewBox="0 0 57 57" fill="none" xmlns="http://www.w3.org/2000/svg">
<g clip-path="url(#clip0_3_626)">
<g clip-path="url(#clip1_3_626)">
<g clip-path="url(#clip2_3_626)">
<path d="M56.5 0.22998H0.5V56.23H56.5V0.22998Z" fill="#C4C4C4" fill-opacity="0.01"/>
<path d="M9.83301 23.5632V37.5632" stroke="#1B5BF7" stroke-width="3.5" stroke-linecap="round" stroke-linejoin="round"/>
<path d="M47.167 23.5632V37.5632" stroke="#1B5BF7" stroke-width="3.5" stroke-linecap="round" stroke-linejoin="round"/>
<path d="M16.833 21.2299H40.1663M16.833 21.2299V39.8966C16.833 40.5154 17.0788 41.1089 17.5164 41.5465C17.954 41.9841 18.5475 42.2299 19.1663 42.2299H37.833C38.4518 42.2299 39.0453 41.9841 39.4829 41.5465C39.9205 41.1089 40.1663 40.5154 40.1663 39.8966V21.2299M16.833 21.2299C16.833 18.1357 18.0622 15.1683 20.2501 12.9803C22.438 10.7924 25.4055 9.56323 28.4997 9.56323C31.5939 9.56323 34.5613 10.7924 36.7493 12.9803C38.9372 15.1683 40.1663 18.1357 40.1663 21.2299" stroke="#1B5BF7" stroke-width="3.5" stroke-linecap="round" stroke-linejoin="round"/>
<path d="M19.167 7.22998L21.5003 11.8967" stroke="#1B5BF7" stroke-width="3.5" stroke-linecap="round" stroke-linejoin="round"/>
<path d="M37.8333 7.22998L35.5 11.8967" stroke="#1B5BF7" stroke-width="3.5" stroke-linecap="round" stroke-linejoin="round"/>
<path d="M21.5 42.23V49.23" stroke="#1B5BF7" stroke-width="3.5" stroke-linecap="round" stroke-linejoin="round"/>
<path d="M35.5 42.23V49.23" stroke="#1B5BF7" stroke-width="3.5" stroke-linecap="round" stroke-linejoin="round"/>
</g>
</g>
</g>
<defs>
<clipPath id="clip0_3_626">
<rect width="56" height="56" fill="white" transform="translate(0.5 0.22998)"/>
</clipPath>
<clipPath id="clip1_3_626">
<rect width="56" height="56" fill="white" transform="translate(0.5 0.22998)"/>
</clipPath>
<clipPath id="clip2_3_626">
<rect width="56" height="56" fill="white" transform="translate(0.5 0.22998)"/>
</clipPath>
</defs>
</svg>
