<svg width="57" height="57" viewBox="0 0 57 57" fill="none" xmlns="http://www.w3.org/2000/svg">
<g clip-path="url(#clip0_3_618)">
<g clip-path="url(#clip1_3_618)">
<g clip-path="url(#clip2_3_618)">
<path d="M56.5 0.22998H0.5V56.23H56.5V0.22998Z" fill="#C4C4C4" fill-opacity="0.01"/>
<path d="M21.5003 16.5634C14.5003 16.5634 12.167 23.5634 12.167 29.3967C12.167 36.3967 16.8337 46.8967 21.5003 46.8967C24.039 46.7894 25.418 45.73 28.5003 45.73C31.5617 45.73 32.0003 46.8967 35.5003 46.8967C39.0003 46.8967 44.8337 39.8967 44.8337 35.23C44.7683 35.2067 39.0657 34.2897 39.0003 28.23C38.956 23.1667 44.6377 21.3374 44.8337 21.23C42.4467 17.7487 37.948 16.6497 36.667 16.5634C33.3233 16.3044 30.0637 18.8967 28.5003 18.8967C26.9137 18.8967 24.067 16.5634 21.5003 16.5634Z" stroke="#1B5BF7" stroke-width="3.5" stroke-linecap="round" stroke-linejoin="round"/>
<path d="M28.5 9.56339C29.7377 9.56339 30.9247 9.07173 31.7998 8.19656C32.675 7.32139 33.1667 6.13441 33.1667 4.89673C31.929 4.89673 30.742 5.38839 29.8668 6.26356C28.9917 7.13873 28.5 8.32572 28.5 9.56339Z" stroke="#1B5BF7" stroke-width="3.5" stroke-linecap="round" stroke-linejoin="round"/>
</g>
</g>
</g>
<defs>
<clipPath id="clip0_3_618">
<rect width="56" height="56" fill="white" transform="translate(0.5 0.22998)"/>
</clipPath>
<clipPath id="clip1_3_618">
<rect width="56" height="56" fill="white" transform="translate(0.5 0.22998)"/>
</clipPath>
<clipPath id="clip2_3_618">
<rect width="56" height="56" fill="white" transform="translate(0.5 0.22998)"/>
</clipPath>
</defs>
</svg>
