<svg width="57" height="57" viewBox="0 0 57 57" fill="none" xmlns="http://www.w3.org/2000/svg">
<g clip-path="url(#clip0_3_856)">
<g clip-path="url(#clip1_3_856)">
<path d="M12.1663 9.56348H44.833C45.4518 9.56348 46.0453 9.80931 46.4829 10.2469C46.9205 10.6845 47.1663 11.278 47.1663 11.8968V23.5635C47.1663 24.1823 46.9205 24.7758 46.4829 25.2134C46.0453 25.651 45.4518 25.8968 44.833 25.8968H28.4997C27.8808 25.8968 27.2873 26.1427 26.8498 26.5802C26.4122 27.0178 26.1663 27.6113 26.1663 28.2302V44.5635C26.1663 45.1823 25.9205 45.7758 25.4829 46.2134C25.0453 46.651 24.4518 46.8968 23.833 46.8968H12.1663C11.5475 46.8968 10.954 46.651 10.5164 46.2134C10.0788 45.7758 9.83301 45.1823 9.83301 44.5635V11.8968C9.83301 11.278 10.0788 10.6845 10.5164 10.2469C10.954 9.80931 11.5475 9.56348 12.1663 9.56348Z" stroke="#1B5BF7" stroke-width="3.5" stroke-linecap="round" stroke-linejoin="round"/>
<path d="M9.83301 18.8965H14.4997" stroke="#1B5BF7" stroke-width="3.5" stroke-linecap="round" stroke-linejoin="round"/>
<path d="M9.83301 28.23H16.833" stroke="#1B5BF7" stroke-width="3.5" stroke-linecap="round" stroke-linejoin="round"/>
<path d="M9.83301 37.5635H14.4997" stroke="#1B5BF7" stroke-width="3.5" stroke-linecap="round" stroke-linejoin="round"/>
<path d="M19.167 9.56348V14.2302" stroke="#1B5BF7" stroke-width="3.5" stroke-linecap="round" stroke-linejoin="round"/>
<path d="M28.5 9.56348V16.5635" stroke="#1B5BF7" stroke-width="3.5" stroke-linecap="round" stroke-linejoin="round"/>
<path d="M37.833 9.56348V14.2302" stroke="#1B5BF7" stroke-width="3.5" stroke-linecap="round" stroke-linejoin="round"/>
</g>
</g>
<defs>
<clipPath id="clip0_3_856">
<rect width="56" height="56" fill="white" transform="translate(0.5 0.22998)"/>
</clipPath>
<clipPath id="clip1_3_856">
<rect width="56" height="56" fill="white" transform="translate(0.5 0.22998)"/>
</clipPath>
</defs>
</svg>
