<svg width="57" height="57" viewBox="0 0 57 57" fill="none" xmlns="http://www.w3.org/2000/svg">
<g clip-path="url(#clip0_3_908)">
<g clip-path="url(#clip1_3_908)">
<path d="M14.4997 18.8968C17.077 18.8968 19.1663 16.8075 19.1663 14.2302C19.1663 11.6528 17.077 9.56348 14.4997 9.56348C11.9223 9.56348 9.83301 11.6528 9.83301 14.2302C9.83301 16.8075 11.9223 18.8968 14.4997 18.8968Z" stroke="#1B5BF7" stroke-width="3.5" stroke-linecap="round" stroke-linejoin="round"/>
<path d="M42.4997 46.8968C45.077 46.8968 47.1663 44.8075 47.1663 42.2302C47.1663 39.6528 45.077 37.5635 42.4997 37.5635C39.9223 37.5635 37.833 39.6528 37.833 42.2302C37.833 44.8075 39.9223 46.8968 42.4997 46.8968Z" stroke="#1B5BF7" stroke-width="3.5" stroke-linecap="round" stroke-linejoin="round"/>
<path d="M26.167 14.23H37.8337C39.0713 14.23 40.2583 14.7217 41.1335 15.5968C42.0087 16.472 42.5003 17.659 42.5003 18.8967V37.5633" stroke="#1B5BF7" stroke-width="3.5" stroke-linecap="round" stroke-linejoin="round"/>
<path d="M33.167 21.23L26.167 14.23L33.167 7.22998" stroke="#1B5BF7" stroke-width="3.5" stroke-linecap="round" stroke-linejoin="round"/>
<path d="M30.8333 42.2298H19.1667C17.929 42.2298 16.742 41.7382 15.8668 40.863C14.9917 39.9878 14.5 38.8008 14.5 37.5632V18.8965" stroke="#1B5BF7" stroke-width="3.5" stroke-linecap="round" stroke-linejoin="round"/>
<path d="M23.833 35.23L30.833 42.23L23.833 49.23" stroke="#1B5BF7" stroke-width="3.5" stroke-linecap="round" stroke-linejoin="round"/>
</g>
</g>
<defs>
<clipPath id="clip0_3_908">
<rect width="56" height="56" fill="white" transform="translate(0.5 0.22998)"/>
</clipPath>
<clipPath id="clip1_3_908">
<rect width="56" height="56" fill="white" transform="translate(0.5 0.22998)"/>
</clipPath>
</defs>
</svg>
