<svg width="57" height="57" viewBox="0 0 57 57" fill="none" xmlns="http://www.w3.org/2000/svg">
<g clip-path="url(#clip0_3_902)">
<g clip-path="url(#clip1_3_902)">
<path d="M16.8337 42.2298C13.9224 42.2298 11.1303 41.1236 9.07161 39.1544C7.01298 37.1853 5.85645 34.5146 5.85645 31.7298C5.85645 28.945 7.01298 26.2743 9.07161 24.3052C11.1303 22.3361 13.9224 21.2298 16.8337 21.2298C17.5213 18.1666 19.5328 15.4746 22.4258 13.7461C23.8582 12.8903 25.4639 12.2967 27.1512 11.9994C28.8385 11.7021 30.5743 11.7067 32.2596 12.0131C33.9449 12.3196 35.5467 12.9217 36.9734 13.7853C38.4001 14.6488 39.6239 15.7568 40.5748 17.046C41.5258 18.3352 42.1853 19.7803 42.5156 21.2989C42.846 22.8174 42.8408 24.3797 42.5004 25.8965H44.8337C46.9997 25.8965 49.0769 26.7569 50.6084 28.2884C52.14 29.82 53.0004 31.8972 53.0004 34.0631C53.0004 36.2291 52.14 38.3063 50.6084 39.8378C49.0769 41.3694 46.9997 42.2298 44.8337 42.2298H16.8337Z" stroke="#1B5BF7" stroke-width="3.5" stroke-linecap="round" stroke-linejoin="round"/>
</g>
</g>
<defs>
<clipPath id="clip0_3_902">
<rect width="56" height="56" fill="white" transform="translate(0.5 0.22998)"/>
</clipPath>
<clipPath id="clip1_3_902">
<rect width="56" height="56" fill="white" transform="translate(0.5 0.22998)"/>
</clipPath>
</defs>
</svg>
