<svg width="57" height="57" viewBox="0 0 57 57" fill="none" xmlns="http://www.w3.org/2000/svg">
<g clip-path="url(#clip0_3_688)">
<path d="M42.3748 9.89062H15.0729C11.3033 9.89062 8.24739 12.9697 8.24739 16.7679V39.6918C8.24739 43.49 11.3033 46.569 15.0729 46.569H42.3748C46.1444 46.569 49.2003 43.49 49.2003 39.6918V16.7679C49.2003 12.9697 46.1444 9.89062 42.3748 9.89062Z" stroke="#1B5BF7" stroke-width="3.4386" stroke-linecap="round" stroke-linejoin="round"/>
<path d="M21.8989 28.23C24.4119 28.23 26.4492 26.1772 26.4492 23.6451C26.4492 21.113 24.4119 19.0603 21.8989 19.0603C19.3858 19.0603 17.3485 21.113 17.3485 23.6451C17.3485 26.1772 19.3858 28.23 21.8989 28.23Z" stroke="#1B5BF7" stroke-width="3.4386" stroke-linecap="round" stroke-linejoin="round"/>
<path d="M35.5499 19.0603H40.1003" stroke="#1B5BF7" stroke-width="3.4386" stroke-linecap="round" stroke-linejoin="round"/>
<path d="M35.5499 28.23H40.1003" stroke="#1B5BF7" stroke-width="3.4386" stroke-linecap="round" stroke-linejoin="round"/>
<path d="M17.3485 37.3994H40.1002" stroke="#1B5BF7" stroke-width="3.4386" stroke-linecap="round" stroke-linejoin="round"/>
</g>
<defs>
<clipPath id="clip0_3_688">
<rect width="56" height="56" fill="white" transform="translate(0.5 0.22998)"/>
</clipPath>
</defs>
</svg>
