<svg width="57" height="57" viewBox="0 0 57 57" fill="none" xmlns="http://www.w3.org/2000/svg">
<g clip-path="url(#clip0_3_896)">
<g clip-path="url(#clip1_3_896)">
<path d="M28.5 28.2298C27.2197 30.7153 25.5031 32.9503 23.432 34.8285C22.1269 36.1341 20.4638 37.0233 18.6533 37.3836C16.8427 37.744 14.9659 37.5593 13.2603 36.853C11.5547 36.1467 10.0969 34.9504 9.07119 33.4155C8.04551 31.8805 7.49805 30.0759 7.49805 28.2298C7.49805 26.3838 8.04551 24.5791 9.07119 23.0442C10.0969 21.5093 11.5547 20.313 13.2603 19.6067C14.9659 18.9004 16.8427 18.7157 18.6533 19.0761C20.4638 19.4364 22.1269 20.3256 23.432 21.6312C25.5031 23.5093 27.2197 25.7444 28.5 28.2298ZM28.5 28.2298C29.7804 25.7444 31.497 23.5093 33.568 21.6312C34.8732 20.3256 36.5363 19.4364 38.3468 19.0761C40.1574 18.7157 42.0342 18.9004 43.7398 19.6067C45.4454 20.313 46.9032 21.5093 47.9289 23.0442C48.9546 24.5791 49.502 26.3838 49.502 28.2298C49.502 30.0759 48.9546 31.8805 47.9289 33.4155C46.9032 34.9504 45.4454 36.1467 43.7398 36.853C42.0342 37.5593 40.1574 37.744 38.3468 37.3836C36.5363 37.0233 34.8732 36.1341 33.568 34.8285C31.497 32.9503 29.7804 30.7153 28.5 28.2298Z" stroke="#1B5BF7" stroke-width="3.5" stroke-linecap="round" stroke-linejoin="round"/>
</g>
</g>
<defs>
<clipPath id="clip0_3_896">
<rect width="56" height="56" fill="white" transform="translate(0.5 0.22998)"/>
</clipPath>
<clipPath id="clip1_3_896">
<rect width="56" height="56" fill="white" transform="translate(0.5 0.22998)"/>
</clipPath>
</defs>
</svg>
