<svg width="57" height="57" viewBox="0 0 57 57" fill="none" xmlns="http://www.w3.org/2000/svg">
<g clip-path="url(#clip0_3_705)">
<path d="M16.833 23.5633L28.4997 9.56323L40.1663 23.5633" stroke="#1B5BF7" stroke-width="3.5" stroke-linecap="round" stroke-linejoin="round"/>
<path d="M49.5 23.5632L44.8333 42.2298C44.6152 43.5673 44.0287 44.7667 43.176 45.6194C42.3233 46.4721 41.2584 46.924 40.1667 46.8965H16.8333C15.7416 46.924 14.6767 46.4721 13.824 45.6194C12.9713 44.7667 12.3848 43.5673 12.1667 42.2298L7.5 23.5632H49.5Z" stroke="#1B5BF7" stroke-width="3.5" stroke-linecap="round" stroke-linejoin="round"/>
<path d="M28.4997 39.8965C31.077 39.8965 33.1663 37.8071 33.1663 35.2298C33.1663 32.6525 31.077 30.5632 28.4997 30.5632C25.9223 30.5632 23.833 32.6525 23.833 35.2298C23.833 37.8071 25.9223 39.8965 28.4997 39.8965Z" stroke="#1B5BF7" stroke-width="3.5" stroke-linecap="round" stroke-linejoin="round"/>
</g>
<defs>
<clipPath id="clip0_3_705">
<rect width="56" height="56" fill="white" transform="translate(0.5 0.22998)"/>
</clipPath>
</defs>
</svg>
