<svg width="57" height="57" viewBox="0 0 57 57" fill="none" xmlns="http://www.w3.org/2000/svg">
<g clip-path="url(#clip0_3_639)">
<g clip-path="url(#clip1_3_639)">
<g clip-path="url(#clip2_3_639)">
<path d="M56.5 1.65381H0.5V54.8064H56.5V1.65381Z" fill="#C4C4C4" fill-opacity="0.01"/>
<path opacity="0.3" fill-rule="evenodd" clip-rule="evenodd" d="M41.3717 8.98822H22.7271V39.9515H41.3717V8.98822ZM22.7271 6.39966C21.199 6.39966 19.9604 7.55863 19.9604 8.98822V39.9515C19.9604 41.3811 21.199 42.5402 22.7271 42.5402H41.3717C42.8997 42.5402 44.1383 41.3811 44.1383 39.9515V8.98822C44.1383 7.55863 42.8997 6.39966 41.3717 6.39966H22.7271Z" fill="#1B5BF7"/>
<path d="M6.49893 18.1483C6.49893 15.289 8.97625 12.9712 12.0322 12.9712H25.546C28.6019 12.9712 31.0793 15.289 31.0793 18.1483V43.9345C31.0793 46.7937 28.6019 49.1116 25.546 49.1116H12.0322C8.97625 49.1116 6.49893 46.7937 6.49893 43.9345V18.1483Z" fill="white" fill-opacity="0.01"/>
<path fill-rule="evenodd" clip-rule="evenodd" d="M25.546 15.5597H12.0322C10.5043 15.5597 9.26555 16.7187 9.26555 18.1483V43.9345C9.26555 45.3641 10.5043 46.5231 12.0322 46.5231H25.546C27.074 46.5231 28.3127 45.3641 28.3127 43.9345V18.1483C28.3127 16.7187 27.074 15.5597 25.546 15.5597ZM12.0322 12.9712C8.97625 12.9712 6.49893 15.289 6.49893 18.1483V43.9345C6.49893 46.7937 8.97625 49.1116 12.0322 49.1116H25.546C28.6019 49.1116 31.0793 46.7937 31.0793 43.9345V18.1483C31.0793 15.289 28.6019 12.9712 25.546 12.9712H12.0322Z" fill="#1B5BF7"/>
<path fill-rule="evenodd" clip-rule="evenodd" d="M23.4715 44.7309H14.6928V42.1423H23.4715V44.7309Z" fill="#1B5BF7"/>
<path fill-rule="evenodd" clip-rule="evenodd" d="M25.6909 27.4082C24.4852 29.0727 22.8066 31.3894 19.4821 31.3894V28.8009C21.2296 28.8009 22.1364 27.6966 23.5076 25.8085C23.5423 25.7608 23.5773 25.7126 23.6127 25.6636C24.8184 23.9993 26.4969 21.6824 29.8215 21.6824C33.146 21.6824 34.8245 23.9993 36.0302 25.6636C36.0657 25.7126 36.1006 25.7608 36.1353 25.8085C37.5065 27.6966 38.4133 28.8009 40.1608 28.8009C41.9083 28.8009 42.8152 27.6966 44.1863 25.8085C44.221 25.7608 44.2559 25.7126 44.2913 25.6636C45.4971 23.9993 47.1756 21.6824 50.5001 21.6824V24.2709C48.7526 24.2709 47.8458 25.3752 46.4747 27.2634C46.44 27.311 46.4051 27.3593 46.3697 27.4082C45.1638 29.0727 43.4854 31.3894 40.1608 31.3894C36.8363 31.3894 35.1578 29.0727 33.952 27.4082C33.9166 27.3593 33.8816 27.311 33.847 27.2634C32.4758 25.3752 31.569 24.2709 29.8215 24.2709C28.0739 24.2709 27.1671 25.3752 25.796 27.2634C25.7613 27.311 25.7263 27.3593 25.6909 27.4082Z" fill="#1B5BF7"/>
</g>
</g>
</g>
<defs>
<clipPath id="clip0_3_639">
<rect width="56" height="56" fill="white" transform="translate(0.5 0.22998)"/>
</clipPath>
<clipPath id="clip1_3_639">
<rect width="56" height="56" fill="white" transform="translate(0.5 0.22998)"/>
</clipPath>
<clipPath id="clip2_3_639">
<rect width="56" height="53.1525" fill="white" transform="translate(0.5 1.65381)"/>
</clipPath>
</defs>
</svg>
