<svg width="57" height="57" viewBox="0 0 57 57" fill="none" xmlns="http://www.w3.org/2000/svg">
<g clip-path="url(#clip0_3_968)">
<g clip-path="url(#clip1_3_968)">
<path d="M37.8338 9.56348L44.8338 16.5635L16.0171 45.3802C15.0889 46.3084 13.8299 46.8299 12.5171 46.8299C11.2044 46.8299 9.94539 46.3084 9.01713 45.3802C8.08887 44.4519 7.56738 43.1929 7.56738 41.8802C7.56738 40.5674 8.08887 39.3084 9.01713 38.3802L37.8338 9.56348Z" stroke="#1B5BF7" stroke-width="3.5" stroke-linecap="round" stroke-linejoin="round"/>
<path d="M23.833 23.5635H37.833" stroke="#1B5BF7" stroke-width="3.5" stroke-linecap="round" stroke-linejoin="round"/>
<path d="M44.8337 35.23L48.3337 38.9633C48.9277 39.6369 49.3147 40.4676 49.4484 41.3557C49.582 42.2437 49.4565 43.1515 49.087 43.9701C48.7175 44.7886 48.1197 45.4832 47.3652 45.9704C46.6108 46.4576 45.7317 46.7167 44.8337 46.7167C43.9356 46.7167 43.0566 46.4576 42.3021 45.9704C41.5476 45.4832 40.9498 44.7886 40.5803 43.9701C40.2108 43.1515 40.0853 42.2437 40.2189 41.3557C40.3526 40.4676 40.7396 39.6369 41.3337 38.9633L44.8337 35.23Z" stroke="#1B5BF7" stroke-width="3.5" stroke-linecap="round" stroke-linejoin="round"/>
</g>
</g>
<defs>
<clipPath id="clip0_3_968">
<rect width="56" height="56" fill="white" transform="translate(0.5 0.22998)"/>
</clipPath>
<clipPath id="clip1_3_968">
<rect width="56" height="56" fill="white" transform="translate(0.5 0.22998)"/>
</clipPath>
</defs>
</svg>
