<svg width="57" height="57" viewBox="0 0 57 57" fill="none" xmlns="http://www.w3.org/2000/svg">
<g clip-path="url(#clip0_3_961)">
<g clip-path="url(#clip1_3_961)">
<path d="M42.5003 9.56348H23.8337C21.2563 9.56348 19.167 11.6528 19.167 14.2302V32.8968C19.167 35.4742 21.2563 37.5635 23.8337 37.5635H42.5003C45.0777 37.5635 47.167 35.4742 47.167 32.8968V14.2302C47.167 11.6528 45.0777 9.56348 42.5003 9.56348Z" stroke="#1B5BF7" stroke-width="3.5" stroke-linecap="round" stroke-linejoin="round"/>
<path d="M33.1663 18.8965H14.4997C11.9223 18.8965 9.83301 20.9858 9.83301 23.5632V42.2298C9.83301 44.8072 11.9223 46.8965 14.4997 46.8965H33.1663C35.7437 46.8965 37.833 44.8072 37.833 42.2298V23.5632C37.833 20.9858 35.7437 18.8965 33.1663 18.8965Z" stroke="#1B5BF7" stroke-width="3.5" stroke-linecap="round" stroke-linejoin="round"/>
</g>
</g>
<defs>
<clipPath id="clip0_3_961">
<rect width="56" height="56" fill="white" transform="translate(0.5 0.22998)"/>
</clipPath>
<clipPath id="clip1_3_961">
<rect width="56" height="56" fill="white" transform="translate(0.5 0.22998)"/>
</clipPath>
</defs>
</svg>
